{
.appVersion = "3151";
.formatVersion = 3;
axes = (
{
name = Width;
tag = wdth;
},
{
name = Weight;
tag = wght;
}
);
classes = (
{
automatic = 1;

glyphs = (
{
color = 6;
glyphname = A;
kernLeft = A;
kernRight = A;
lastChange = "2023-03-03 15:00:28 +0000";
layers = (
{
anchors = (
{
name = bottom;
pos = (948,0);
},
{
name = ogonek;
pos = (1891,0);
},
{
name = top;
pos = (1185,1350);
}
);
layerId = "5997A0D0-E78E-41EC-9011-DECBEAD8517D";
shapes = (
{
closed = 1;
nodes = (
(1168,1357,l),
(1207,1357,l),
(1891,0,l),
(1863,0,l),
(1643,437,l),
(405,437,l),
(30,0,l),
(1,0,l)
);
},
{
closed = 1;
nodes = (
(1632,459,l),
(1187,1342,l),
(1186,1342,l),
(426,459,l)
);
}
);
width = 2130;
},
{
anchors = (
{
name = bottom;
pos = (279,0);
},
{
name = ogonek;
pos = (647,0);
},
{
name = top;
pos = (518,1350);
}
);
layerId = "55C4185A-9C39-4468-B19C-DE0A3E571700";
shapes = (
{
closed = 1;
nodes = (
(239,1350,l),
(787,1350,l),
(647,0,l),
(297,0,l),
(346,314,l),
(318,314,l),
(257,0,l),
(-93,0,l)
);
},
{
closed = 1;
nodes = (
(392,568,l),
(474,1100,l),
(468,1100,l),
(362,568,l)
);
}
);
width = 758;
},
{
anchors = (
{
name = bottom;
pos = (-24,0);
},
{
name = ogonek;
pos = (34,0);
},
{
name = top;
pos = (215,1350);
}
);
layerId = "4F53612F-C4F8-4368-83AD-8913BEEF8F1D";
shapes = (
{
closed = 1;
nodes = (
(194,1350,l),
(237,1350,l),
(34,0,l),
(12,0,l),
(78,437,l),
(32,437,l),
(-56,0,l),
(-78,0,l)
);
},
{
closed = 1;
nodes = (
(82,459,l),
(213,1328,l),
(210,1328,l),
(36,459,l)
);
}
);
width = 161;
},
{
anchors = (
{
name = bottom;
pos = (1070,0);
},
{
name = ogonek;
pos = (2195,0);
},
{
name = top;
pos = (1345,1350);
}
);
layerId = "E5A4176B-9C10-4B01-BBC9-D7999ECBFAF8";
shapes = (
{
closed = 1;
nodes = (
(957,1350,l),
(1695,1350,l),
(2185,0,l),
(1595,0,l),
(1512,264,l),
(757,264,l),
(579,0,l),
(-11,0,l)
);
},
{
closed = 1;
nodes = (
(1427,606,l),
(1279,1072,l),
(1277,1072,l),
(964,606,l)
);
}
);
width = 2388;
}
);
unicode = 65;
},
{
color = 3;
glyphname = AE;
kernLeft = A;
kernRight = E;
lastChange = "2023-03-03 15:00:28 +0000";
layers = (
{
anchors = (
{
name = bottom;
pos = (1326,0);
},
{
name = top;
pos = (1565,1350);
}
);
layerId = "5997A0D0-E78E-41EC-9011-DECBEAD8517D";
shapes = (
{
closed = 1;
nodes = (
(1431,1350,l),
(1457,1350,l),
(1455,1338,l),
(33,0,l),
(1,0,l)
);
},
{
closed = 1;
nodes = (
(499,444,l),
(1301,444,l),
(1297,422,l),
(461,422,l)
);
},
{
alignment = -1;
pos = (1175,0);
ref = E;
}
);
width = 3017;
},
{
anchors = (
{
name = bottom;
pos = (379,0);
},
{
name = top;
pos = (618,1350);
}
);
layerId = "55C4185A-9C39-4468-B19C-DE0A3E571700";
shapes = (
{
closed = 1;
nodes = (
(299,1350,l),
(591,1350,l),
(554,1160,l),
(275,0,l),
(-93,0,l)
);
},
{
closed = 1;
nodes = (
(270,448,l),
(546,448,l),
(503,204,l),
(173,204,l)
);
},
{
alignment = -1;
pos = (438,0);
ref = E;
}
);
width = 940;
},
{
anchors = (
{
name = bottom;
pos = (9,0);
},
{
name = top;
pos = (248,1350);
}
);
layerId = "4F53612F-C4F8-4368-83AD-8913BEEF8F1D";
shapes = (
{
closed = 1;
nodes = (
(220,1350,l),
(238,1350,l),
(235,1334,l),
(-56,0,l),
(-78,0,l)
);
},
{
closed = 1;
nodes = (
(3,344,l),
(71,344,l),
(67,322,l),
(1,322,l)
);
},
{
alignment = -1;
pos = (63,0);
ref = E;
}
);
width = 205;
},
{
anchors = (
{
name = bottom;
pos = (1566,0);
},
{
name = top;
pos = (1805,1350);
}
);
layerId = "E5A4176B-9C10-4B01-BBC9-D7999ECBFAF8";
shapes = (
{
closed = 1;
nodes = (
(1309,1350,l),
(1803,1350,l),
(1780,1218,l),
(579,0,l),
(-11,0,l)
);
},
{
closed = 1;
nodes = (
(725,604,l),
(1627,604,l),
(1565,250,l),
(543,250,l)
);
},
{
alignment = -1;
pos = (1470,0);
ref = E;
}
);
width = 3394;
}
);
metricLeft = A;
metricRight = E;
unicode = 198;
},
{
color = 6;
glyphname = B;
kernLeft = H;
kernRight = B;
lastChange = "2023-03-03 15:00:28 +0000";
layers = (
{
anchors = (
{
name = bottom;
pos = (789,0);
},
{
name = top;
pos = (1028,1350);
}
);
layerId = "5997A0D0-E78E-41EC-9011-DECBEAD8517D";
shapes = (
{
closed = 1;
nodes = (
(269,1350,l),
(1408,1350,ls),
(1613,1350,o),
(1790,1200,o),
(1763,1047,qs),
(1735,886,o),
(1479,722,o),
(1360,716,q),
(1498,710,o),
(1714,555,o),
(1683,373,qs),
(1650,180,o),
(1398,0,o),
(1225,0,qs),
(31,0,l)
);
},
{
closed = 1;
nodes = (
(1220,22,ls),
(1392,22,o),
(1627,193,o),
(1659,373,qs),
(1690,551,o),
(1458,704,o),
(1203,704,qs),
(177,704,l),
(57,22,l)
);
},
{
closed = 1;
nodes = (
(1207,726,ls),
(1446,726,o),
(1712,895,o),
(1739,1047,qs),
(1764,1192,o),
(1601,1328,o),
(1395,1328,qs),
(287,1328,l),
(181,726,l)
);
}
);
width = 1971;
},
{
anchors = (
{
name = bottom;
pos = (275,0);
},
{
name = top;
pos = (514,1350);
}
);
layerId = "55C4185A-9C39-4468-B19C-DE0A3E571700";
shapes = (
{
closed = 1;
nodes = (
(148,1350,l),
(656,1350,ls),
(866,1350,o),
(819,1086,o),
(809,1024,qs),
(797,956,o),
(760,748,o),
(618,746,q),
(758,738,o),
(718,508,o),
(700,408,qs),
(675,266,o),
(628,0,o),
(394,0,qs),
(-90,0,l)
);
},
{
closed = 1;
nodes = (
(313,254,ls),
(327,254,o),
(339,324,o),
(357,424,qs),
(374,524,o),
(391,617,o),
(375,617,qs),
(367,617,l),
(303,254,l)
);
},
{
closed = 1;
nodes = (
(419,869,l),
(435,869,o),
(446,932,o),
(457,992,qs),
(467,1052,o),
(476,1100,o),
(460,1100,qs),
(452,1100,l),
(411,869,l)
);
}
);
width = 742;
},
{
anchors = (
{
name = bottom;
pos = (-12,0);
},
{
name = top;
pos = (227,1350);
}
);
layerId = "4F53612F-C4F8-4368-83AD-8913BEEF8F1D";
shapes = (
{
closed = 1;
nodes = (
(170,1350,l),
(207,1350,ls),
(272,1350,o),
(240,1168,o),
(222,1068,qs),
(202,952,o),
(169,768,o),
(128,762,q),
(167,756,o),
(127,530,o),
(104,396,qs),
(76,236,o),
(34,0,o),
(-29,0,qs),
(-68,0,l)
);
},
{
closed = 1;
nodes = (
(-25,22,ls),
(16,22,o),
(54,236,o),
(82,396,qs),
(111,563,o),
(144,750,o),
(104,750,qs),
(86,750,l),
(-42,22,l)
);
},
{
closed = 1;
nodes = (
(108,772,ls),
(148,772,o),
(183,967,o),
(201,1070,qs),
(223,1193,o),
(246,1328,o),
(203,1328,qs),
(188,1328,l),
(90,772,l)
);
}
);
width = 171;
},
{
anchors = (
{
name = bottom;
pos = (1003,0);
},
{
name = top;
pos = (1242,1350);
}
);
layerId = "E5A4176B-9C10-4B01-BBC9-D7999ECBFAF8";
shapes = (
{
closed = 1;
nodes = (
(280,1350,l),
(1468,1350,ls),
(1825,1350,o),
(2043,1205,o),
(2043,1074,qs),
(2043,877,o),
(1781,696,o),
(1654,690,q),
(1779,684,o),
(2005,569,o),
(2005,416,qs),
(2005,202,o),
(1679,0,o),
(1316,0,qs),
(42,0,l)
);
},
{
closed = 1;
nodes = (
(1276,362,ls),
(1380,362,o),
(1439,402,o),
(1447,448,qs),
(1455,494,o),
(1410,532,o),
(1306,532,qs),
(702,532,l),
(672,362,l)
);
},
{
closed = 1;
nodes = (
(1298,826,ls),
(1382,826,o),
(1441,870,o),
(1448,910,qs),
(1455,950,o),
(1410,988,o),
(1326,988,qs),
(782,988,l),
(754,826,l)
);
}
);
width = 2184;
}
);
metricLeft = H;
unicode = 66;
},
{
color = 6;
glyphname = C;
kernLeft = O;
kernRight = O;
lastChange = "2023-03-03 15:00:28 +0000";
layers = (
{
anchors = (
{
name = bottom;
pos = (733,0);
},
{
name = top;
pos = (972,1350);
}
);
layerId = "5997A0D0-E78E-41EC-9011-DECBEAD8517D";
shapes = (
{
closed = 1;
nodes = (
(457,-10,o),
(73,377,o),
(114,676,qs),
(159,1003,o),
(686,1363,o),
(1075,1363,qs),
(1452,1363,o),
(1810,1074,o),
(1793,877,q),
(1770,877,l),
(1785,1061,o),
(1450,1341,o),
(1076,1341,qs),
(695,1341,o),
(181,991,o),
(138,676,qs),
(99,392,o),
(460,12,o),
(842,12,qs),
(1216,12,o),
(1675,316,o),
(1701,482,q),
(1724,482,l),
(1696,304,o),
(1224,-10,o),
(846,-10,qs)
);
}
);
width = 2016;
},
{
anchors = (
{
name = bottom;
pos = (270,0);
},
{
name = top;
pos = (509,1350);
}
);
layerId = "55C4185A-9C39-4468-B19C-DE0A3E571700";
shapes = (
{
closed = 1;
nodes = (
(-90,-8,o),
(-21,380,o),
(32,680,qs),
(84,980,o),
(152,1362,o),
(506,1362,qs),
(868,1362,o),
(800,980,o),
(764,774,q),
(418,774,l),
(469,1064,o),
(477,1108,o),
(465,1108,qs),
(453,1108,o),
(445,1064,o),
(378,680,qs),
(309,290,o),
(301,246,o),
(313,246,qs),
(325,246,o),
(333,290,o),
(382,572,q),
(728,572,l),
(695,380,o),
(626,-8,o),
(266,-8,qs)
);
}
);
width = 740;
},
{
anchors = (
{
name = bottom;
pos = (-6,0);
},
{
name = top;
pos = (233,1350);
}
);
layerId = "4F53612F-C4F8-4368-83AD-8913BEEF8F1D";
shapes = (
{
closed = 1;
nodes = (
(-67,-8,o),
(-30,206,o),
(54,678,qs),
(137,1150,o),
(171,1356,o),
(229,1356,qs),
(289,1356,o),
(253,1150,o),
(190,794,q),
(168,794,l),
(230,1144,o),
(263,1334,o),
(227,1334,qs),
(189,1334,o),
(158,1144,o),
(76,678,qs),
(-6,212,o),
(-41,14,o),
(-5,14,qs),
(31,14,o),
(66,214,o),
(126,556,q),
(148,556,l),
(86,206,o),
(49,-8,o),
(-8,-8,qs)
);
}
);
width = 184;
},
{
anchors = (
{
name = bottom;
pos = (964,0);
},
{
name = top;
pos = (1203,1350);
}
);
layerId = "E5A4176B-9C10-4B01-BBC9-D7999ECBFAF8";
shapes = (
{
closed = 1;
nodes = (
(522,-8,o),
(20,344,o),
(69,678,qs),
(118,1014,o),
(744,1362,o),
(1212,1362,qs),
(1680,1362,o),
(2129,1038,o),
(2099,814,q),
(1521,814,l),
(1528,874,o),
(1332,1000,o),
(1148,1000,qs),
(960,1000,o),
(665,848,o),
(647,678,qs),
(630,517,o),
(846,354,o),
(1034,354,qs),
(1216,354,o),
(1463,486,o),
(1474,546,q),
(2052,546,l),
(2012,322,o),
(1458,-8,o),
(990,-8,qs)
);
}
);
width = 2167;
}
);
unicode = 67;
},
{
color = 6;
glyphname = D;
kernLeft = H;
kernRight = O;
lastChange = "2023-03-03 15:00:28 +0000";
layers = (
{
anchors = (
{
name = bottom;
pos = (749,0);
},
{
name = center;
pos = (269,675);
},
{
name = top;
pos = (994,1350);
}
);
layerId = "5997A0D0-E78E-41EC-9011-DECBEAD8517D";
shapes = (
{
closed = 1;
nodes = (
(269,1350,l),
(1024,1350,ls),
(1404,1350,o),
(1771,1024,o),
(1722,676,qs),
(1670,306,o),
(1165,0,o),
(786,0,qs),
(31,0,l)
);
},
{
closed = 1;
nodes = (
(784,22,ls),
(1159,22,o),
(1645,317,o),
(1698,676,qs),
(1748,1014,o),
(1389,1328,o),
(1014,1328,qs),
(287,1328,l),
(57,22,l)
);
}
);
width = 1926;
},
{
anchors = (
{
name = bottom;
pos = (272,0);
},
{
name = center;
pos = (392,675);
},
{
name = top;
pos = (511,1350);
}
);
layerId = "55C4185A-9C39-4468-B19C-DE0A3E571700";
shapes = (
{
closed = 1;
nodes = (
(148,1350,l),
(622,1350,ls),
(864,1350,o),
(812,1056,o),
(745,676,qs),
(678,296,o),
(626,0,o),
(384,0,qs),
(-90,0,l)
);
},
{
closed = 1;
nodes = (
(309,254,ls),
(325,254,o),
(334,306,o),
(399,676,qs),
(464,1044,o),
(473,1096,o),
(457,1096,qs),
(449,1096,l),
(301,254,l)
);
}
);
width = 742;
},
{
anchors = (
{
name = bottom;
pos = (-13,0);
},
{
name = center;
pos = (107,675);
},
{
name = top;
pos = (226,1350);
}
);
layerId = "4F53612F-C4F8-4368-83AD-8913BEEF8F1D";
shapes = (
{
closed = 1;
nodes = (
(170,1350,l),
(212,1350,ls),
(274,1350,o),
(231,1106,o),
(155,674,qs),
(79,242,o),
(36,0,o),
(-26,0,qs),
(-68,0,l)
);
},
{
closed = 1;
nodes = (
(-24,22,ls),
(18,22,o),
(58,248,o),
(133,674,qs),
(208,1100,o),
(248,1328,o),
(206,1328,qs),
(188,1328,l),
(-42,22,l)
);
}
);
width = 163;
},
{
anchors = (
{
name = bottom;
pos = (960,0);
},
{
name = center;
pos = (1150,675);
},
{
name = top;
pos = (1199,1350);
}
);
layerId = "E5A4176B-9C10-4B01-BBC9-D7999ECBFAF8";
shapes = (
{
closed = 1;
nodes = (
(280,1350,l),
(1388,1350,ls),
(1752,1350,o),
(2146,1020,o),
(2103,676,qs),
(2059,320,o),
(1554,0,o),
(1190,0,qs),
(42,0,l)
);
},
{
closed = 1;
nodes = (
(1104,362,ls),
(1296,362,o),
(1507,504,o),
(1537,676,qs),
(1567,846,o),
(1406,988,o),
(1214,988,qs),
(782,988,l),
(672,362,l)
);
}
);
width = 2191;
}
);
metricLeft = H;
metricRight = O;
unicode = 68;
},
{
color = 3;
glyphname = Eth;
kernLeft = H;
kernRight = O;
lastChange = "2023-03-03 15:00:28 +0000";
layers = (
{
layerId = "5997A0D0-E78E-41EC-9011-DECBEAD8517D";
shapes = (
{
closed = 1;
nodes = (
(-62,688,l),
(540,688,l),
(538,666,l),
(-64,666,l)
);
},
{
ref = D;
}
);
width = 1926;
},
{
layerId = "55C4185A-9C39-4468-B19C-DE0A3E571700";
shapes = (
{
closed = 1;
nodes = (
(50,788,l),
(465,788,l),
(425,564,l),
(8,564,l)
);
},
{
alignment = -1;
pos = (54,0);
ref = D;
}
);
width = 796;
},
{
layerId = "4F53612F-C4F8-4368-83AD-8913BEEF8F1D";
shapes = (
{
closed = 1;
nodes = (
(54,688,l),
(152,688,l),
(150,666,l),
(50,666,l)
);
},
{
pos = (50,0);
ref = D;
}
);
width = 213;
},
{
layerId = "E5A4176B-9C10-4B01-BBC9-D7999ECBFAF8";
shapes = (
{
closed = 1;
nodes = (
(-64,858,l),
(1108,858,l),
(1052,494,l),
(-120,494,l)
);
},
{
alignment = -1;
pos = (44,0);
ref = D;
}
);
width = 2235;
}
);
metricRight = D;
unicode = 208;
},
{
color = 6;
glyphname = E;
kernLeft = H;
kernRight = E;
lastChange = "2023-03-03 15:00:28 +0000";
layers = (
{
anchors = (
{
name = bottom;
pos = (715,0);
},
{
name = ogonek;
pos = (733,0);
},
{
name = top;
pos = (954,1350);
},
{
name = topleft;
pos = (164,1350);
}
);
layerId = "5997A0D0-E78E-41EC-9011-DECBEAD8517D";
shapes = (
{
closed = 1;
nodes = (
(274,1350,l),
(1735,1350,l),
(1731,1328,l),
(292,1328,l),
(183,710,l),
(1553,710,l),
(1549,688,l),
(179,688,l),
(62,22,l),
(1501,22,l),
(1497,0,l),
(36,0,l)
);
}
);
width = 1842;
},
{
anchors = (
{
name = bottom;
pos = (155,0);
},
{
name = ogonek;
pos = (275,0);
},
{
name = top;
pos = (394,1350);
},
{
name = topleft;
pos = (164,1350);
}
);
layerId = "55C4185A-9C39-4468-B19C-DE0A3E571700";
shapes = (
{
closed = 1;
nodes = (
(148,1350,l),
(626,1350,l),
(581,1096,l),
(451,1096,l),
(400,805,l),
(530,805,l),
(486,555,l),
(356,555,l),
(303,254,l),
(433,254,l),
(388,0,l),
(-90,0,l)
);
}
);
width = 502;
},
{
anchors = (
{
name = bottom;
pos = (-26,0);
},
{
name = ogonek;
pos = (-10,0);
},
{
name = top;
pos = (213,1350);
},
{
name = topleft;
pos = (164,1350);
}
);
layerId = "4F53612F-C4F8-4368-83AD-8913BEEF8F1D";
shapes = (
{
closed = 1;
nodes = (
(173,1350,l),
(249,1350,l),
(245,1328,l),
(191,1328,l),
(82,710,l),
(136,710,l),
(132,688,l),
(78,688,l),
(-39,22,l),
(15,22,l),
(11,0,l),
(-65,0,l)
);
}
);
width = 142;
},
{
anchors = (
{
name = bottom;
pos = (836,0);
},
{
name = ogonek;
pos = (1286,0);
},
{
name = top;
pos = (1075,1350);
},
{
name = topleft;
pos = (164,1350);
}
);
layerId = "E5A4176B-9C10-4B01-BBC9-D7999ECBFAF8";
shapes = (
{
closed = 1;
nodes = (
(239,1350,l),
(1895,1350,l),
(1831,988,l),
(741,988,l),
(716,844,l),
(1706,844,l),
(1647,508,l),
(657,508,l),
(631,362,l),
(1721,362,l),
(1657,0,l),
(1,0,l)
);
}
);
width = 1924;
}
);
unicode = 69;
},
{
color = 6;
glyphname = Schwa;
kernLeft = O;
kernRight = O;
lastChange = "2023-03-03 15:00:28 +0000";
layers = (
{
anchors = (
{
name = bottom;
pos = (2,0);
},
{
name = top;
pos = (232,1350);
}
);
layerId = "4F53612F-C4F8-4368-83AD-8913BEEF8F1D";
shapes = (
{
closed = 1;
nodes = (
(-71,-11,o),
(-18,285,o),
(51,678,q),
(52,682,o),
(53,688,q),
(163,688,l),
(159,665,l),
(63,665,l),
(73,676,l),
(6,299,o),
(-45,11,o),
(-5,11,qs),
(35,11,o),
(86,299,o),
(153,676,qs),
(208,988,o),
(269,1334,o),
(230,1334,q),
(234,1356,l),
(295,1356,o),
(230,992,o),
(175,678,qs),
(107,295,o),
(53,-11,o),
(-9,-11,qs)
);
},
{
closed = 1;
nodes = (
(88,890,l),
(148,1230,o),
(173,1356,o),
(234,1356,c),
(235,1346,l),
(230,1334,l),
(190,1334,o),
(166,1203,o),
(110,890,c)
);
}
);
width = 182;
},
{
anchors = (
{
name = bottom;
pos = (266,0);
},
{
name = top;
pos = (504,1350);
}
);
layerId = "55C4185A-9C39-4468-B19C-DE0A3E571700";
shapes = (
{
closed = 1;
nodes = (
(-94,-9,o),
(-31,347,o),
(26,667,qs),
(37,731,o),
(47,787,q),
(451,787,l),
(411,563,l),
(335,563,l),
(360,591,l),
(315,337,o),
(299,247,o),
(313,247,qs),
(327,247,o),
(343,337,o),
(402,667,qs),
(461,1003,o),
(479,1106,o),
(467,1106,q),
(512,1360,l),
(872,1360,o),
(808,997,o),
(751,677,qs),
(693,347,o),
(630,-9,o),
(268,-9,qs)
);
},
{
closed = 1;
nodes = (
(67,905,l),
(130,1258,o),
(191,1360,o),
(512,1360,c),
(509,1244,l),
(467,1106,l),
(452,1106,o),
(441,1050,o),
(415,905,c)
);
}
);
width = 748;
},
{
anchors = (
{
name = bottom;
pos = (757,0);
},
{
name = top;
pos = (995,1350);
}
);
layerId = "5997A0D0-E78E-41EC-9011-DECBEAD8517D";
shapes = (
{
closed = 1;
nodes = (
(428,-8,o),
(68,311,o),
(128,656,qs),
(130,667,o),
(133,680,q),
(1605,680,l),
(1601,657,l),
(143,657,l),
(156,668,l),
(94,321,o),
(438,14,o),
(751,14,qs),
(1056,14,o),
(1530,327,o),
(1591,668,qs),
(1652,1018,o),
(1315,1339,o),
(985,1339,q),
(983,1361,l),
(1317,1361,o),
(1679,1035,o),
(1614,667,qs),
(1552,312,o),
(1061,-8,o),
(750,-8,qs)
);
},
{
closed = 1;
nodes = (
(197,975,l),
(235,1193,o),
(587,1361,o),
(983,1361,c),
(990,1351,l),
(985,1339,l),
(607,1339,o),
(257,1181,o),
(221,975,c)
);
}
);
width = 1819;
},
{
anchors = (
{
name = bottom;
pos = (932,0);
},
{
name = top;
pos = (1150,1350);
}
);
layerId = "E5A4176B-9C10-4B01-BBC9-D7999ECBFAF8";
shapes = (
{
closed = 1;
nodes = (
(512,-14,o),
(17,331,o),
(79,684,qs),
(96,778,o),
(124,836,q),
(1584,836,l),
(1527,512,l),
(589,512,l),
(603,558,l),
(574,392,o),
(813,306,o),
(987,306,qs),
(1201,306,o),
(1464,424,o),
(1509,684,qs),
(1549,906,o),
(1340,1038,o),
(1096,1038,q),
(1156,1366,l),
(1570,1366,o),
(2102,1074,o),
(2033,684,qs),
(1968,314,o),
(1330,-14,o),
(932,-14,qs)
);
},
{
closed = 1;
nodes = (
(275,1253,l),
(393,1310,o),
(886,1366,o),
(1156,1366,c),
(1170,1244,l),
(1096,1038,l),
(932,1038,o),
(743,1006,o),
(684,980,c)
);
}
);
width = 2118;
}
);
metricLeft = O;
metricRight = O;
unicode = 399;
},
{
color = 6;
glyphname = F;
kernLeft = H;
kernRight = F;
lastChange = "2023-03-03 15:00:28 +0000";
layers = (
{
anchors = (
{
name = bottom;
pos = (687,0);
},
{
name = top;
pos = (926,1350);
}
);
layerId = "5997A0D0-E78E-41EC-9011-DECBEAD8517D";
shapes = (
{
closed = 1;
nodes = (
(268,1350,l),
(1663,1350,l),
(1659,1328,l),
(286,1328,l),
(170,667,l),
(1431,667,l),
(1427,645,l),
(166,645,l),
(52,0,l),
(30,0,l)
);
}
);
width = 1722;
},
{
anchors = (
{
name = bottom;
pos = (150,0);
},
{
name = top;
pos = (389,1350);
}
);
layerId = "55C4185A-9C39-4468-B19C-DE0A3E571700";
shapes = (
{
closed = 1;
nodes = (
(151,1350,l),
(625,1350,l),
(580,1096,l),
(454,1096,l),
(390,730,l),
(518,730,l),
(474,480,l),
(346,480,l),
(261,0,l),
(-87,0,l)
);
}
);
width = 500;
},
{
anchors = (
{
name = bottom;
pos = (-22,0);
},
{
name = top;
pos = (217,1350);
}
);
layerId = "4F53612F-C4F8-4368-83AD-8913BEEF8F1D";
shapes = (
{
closed = 1;
nodes = (
(172,1350,l),
(256,1350,l),
(252,1328,l),
(190,1328,l),
(75,676,l),
(137,676,l),
(133,654,l),
(71,654,l),
(-44,0,l),
(-66,0,l)
);
}
);
width = 146;
},
{
anchors = (
{
name = bottom;
pos = (772,0);
},
{
name = top;
pos = (1011,1350);
}
);
layerId = "E5A4176B-9C10-4B01-BBC9-D7999ECBFAF8";
shapes = (
{
closed = 1;
nodes = (
(194,1350,l),
(1730,1350,l),
(1666,988,l),
(696,988,l),
(654,748,l),
(1528,748,l),
(1469,412,l),
(595,412,l),
(522,0,l),
(-44,0,l)
);
}
);
width = 1754;
}
);
unicode = 70;
},
{
color = 6;
glyphname = G;
kernLeft = O;
kernRight = H;
lastChange = "2023-03-03 15:00:28 +0000";
layers = (
{
anchors = (
{
name = bottom;
pos = (822,0);
},
{
name = top;
pos = (1061,1350);
}
);
layerId = "5997A0D0-E78E-41EC-9011-DECBEAD8517D";
shapes = (
{
closed = 1;
nodes = (
(449,-8,o),
(108,375,o),
(132,662,qs),
(158,968,o),
(680,1363,o),
(1085,1363,qs),
(1480,1363,o),
(1822,1024,o),
(1789,838,q),
(1765,838,l),
(1797,1015,o),
(1474,1341,o),
(1086,1341,qs),
(687,1341,o),
(179,955,o),
(156,662,qs),
(134,387,o),
(454,14,o),
(853,14,qs),
(1243,14,o),
(1666,328,o),
(1711,579,q),
(1711,583,l),
(998,583,l),
(1002,605,l),
(1748,605,l),
(1642,0,l),
(1620,0,l),
(1703,472,l),
(1530,-8,o),
(855,-8,qs)
);
}
);
width = 2033;
},
{
anchors = (
{
name = bottom;
pos = (270,0);
},
{
name = top;
pos = (509,1350);
}
);
layerId = "55C4185A-9C39-4468-B19C-DE0A3E571700";
shapes = (
{
closed = 1;
nodes = (
(-94,-8,o),
(-25,380,o),
(28,680,qs),
(82,990,o),
(148,1362,o),
(508,1362,qs),
(868,1362,o),
(802,990,o),
(777,846,q),
(429,846,l),
(467,1061,o),
(475,1108,o),
(463,1108,qs),
(451,1108,o),
(443,1062,o),
(370,650,qs),
(317,348,o),
(299,246,o),
(317,246,qs),
(330,246,o),
(348,306,o),
(375,461,q),
(376,468,l),
(355,468,l),
(396,702,l),
(751,702,l),
(628,0,l),
(466,0,l),
(430,89,l),
(363,-8,o),
(208,-8,qs)
);
}
);
width = 742;
},
{
anchors = (
{
name = bottom;
pos = (-16,0);
},
{
name = top;
pos = (223,1350);
}
);
layerId = "4F53612F-C4F8-4368-83AD-8913BEEF8F1D";
shapes = (
{
closed = 1;
nodes = (
(-70,-8,o),
(-31,212,o),
(52,684,qs),
(135,1156,o),
(170,1356,o),
(228,1356,qs),
(285,1356,o),
(246,1130,o),
(195,836,q),
(173,836,l),
(223,1120,o),
(260,1334,o),
(224,1334,qs),
(188,1334,o),
(156,1150,o),
(74,684,qs),
(-8,218,o),
(-44,14,o),
(-14,14,qs),
(5,14,o),
(42,94,o),
(65,224,q),
(124,558,l),
(86,558,l),
(90,582,l),
(150,582,l),
(47,0,l),
(28,0,l),
(36,42,l),
(15,-8,o),
(-18,-8,qs)
);
}
);
width = 181;
},
{
anchors = (
{
name = bottom;
pos = (1015,0);
},
{
name = top;
pos = (1254,1350);
}
);
layerId = "E5A4176B-9C10-4B01-BBC9-D7999ECBFAF8";
shapes = (
{
closed = 1;
nodes = (
(510,-8,o),
(42,343,o),
(80,680,qs),
(118,1019,o),
(743,1362,o),
(1198,1362,qs),
(1593,1362,o),
(2125,1099,o),
(2105,872,q),
(1539,872,l),
(1525,927,o),
(1345,1002,o),
(1156,1002,qs),
(956,1002,o),
(674,839,o),
(652,680,qs),
(630,521,o),
(843,352,o),
(1042,352,qs),
(1231,352,o),
(1401,420,o),
(1435,472,q),
(1436,476,l),
(1104,476,l),
(1156,774,l),
(2088,774,l),
(1952,0,l),
(1605,0,l),
(1584,184,l),
(1406,-8,o),
(964,-8,qs)
);
}
);
width = 2247;
}
);
metricLeft = O;
metricRight = H;
note = G;
unicode = 71;
},
{
color = 6;
glyphname = H;
kernLeft = H;
kernRight = H;
lastChange = "2023-03-03 15:00:28 +0000";
layers = (
{
anchors = (
{
name = bottom;
pos = (737,0);
},
{
name = center;
pos = (857,675);
},
{
name = top;
pos = (976,1350);
},
{
name = topleft;
pos = (164,1350);
}
);
layerId = "5997A0D0-E78E-41EC-9011-DECBEAD8517D";
shapes = (
{
closed = 1;
nodes = (
(269,1350,l),
(291,1350,l),
(177,706,l),
(1617,706,l),
(1731,1350,l),
(1753,1350,l),
(1515,0,l),
(1493,0,l),
(1614,684,l),
(174,684,l),
(53,0,l),
(31,0,l)
);
}
);
width = 1906;
},
{
anchors = (
{
name = bottom;
pos = (275,0);
},
{
name = center;
pos = (395,675);
},
{
name = top;
pos = (514,1350);
},
{
name = topleft;
pos = (164,1350);
}
);
layerId = "55C4185A-9C39-4468-B19C-DE0A3E571700";
shapes = (
{
closed = 1;
nodes = (
(148,1350,l),
(496,1350,l),
(399,797,l),
(421,797,l),
(518,1350,l),
(866,1350,l),
(628,0,l),
(280,0,l),
(376,543,l),
(354,543,l),
(258,0,l),
(-90,0,l)
);
}
);
width = 742;
},
{
anchors = (
{
name = bottom;
pos = (-9,0);
},
{
name = center;
pos = (111,675);
},
{
name = top;
pos = (230,1350);
},
{
name = topleft;
pos = (156,1350);
}
);
layerId = "4F53612F-C4F8-4368-83AD-8913BEEF8F1D";
shapes = (
{
closed = 1;
nodes = (
(172,1350,l),
(194,1350,l),
(88,750,l),
(150,750,l),
(256,1350,l),
(278,1350,l),
(40,0,l),
(18,0,l),
(146,728,l),
(84,728,l),
(-46,0,l),
(-68,0,l)
);
}
);
width = 174;
},
{
anchors = (
{
name = bottom;
pos = (1015,0);
},
{
name = center;
pos = (1135,675);
},
{
name = top;
pos = (1254,1350);
},
{
name = topleft;
pos = (164,1350);
}
);
layerId = "E5A4176B-9C10-4B01-BBC9-D7999ECBFAF8";
shapes = (
{
closed = 1;
nodes = (
(280,1350,l),
(846,1350,l),
(754,830,l),
(1540,830,l),
(1632,1350,l),
(2198,1350,l),
(1960,0,l),
(1394,0,l),
(1478,468,l),
(690,468,l),
(608,0,l),
(42,0,l)
);
}
);
width = 2255;
}
);
unicode = 72;
},
{
color = 3;
glyphname = Hbar;
kernLeft = H;
kernRight = H;
lastChange = "2023-03-03 15:00:28 +0000";
layers = (
{
layerId = "5997A0D0-E78E-41EC-9011-DECBEAD8517D";
shapes = (
{
closed = 1;
nodes = (
(115,1070,l),
(1808,1070,l),
(1804,1048,l),
(111,1048,l)
);
},
{
ref = H;
}
);
width = 1753;
},
{
layerId = "55C4185A-9C39-4468-B19C-DE0A3E571700";
shapes = (
{
closed = 1;
nodes = (
(100,1170,l),
(918,1170,l),
(896,1046,l),
(76,1046,l)
);
},
{
pos = (33,0);
ref = H;
}
);
width = 820;
},
{
layerId = "4F53612F-C4F8-4368-83AD-8913BEEF8F1D";
shapes = (
{
closed = 1;
nodes = (
(99,1070,l),
(253,1070,l),
(249,1048,l),
(95,1048,l)
);
},
{
ref = H;
}
);
width = 188;
},
{
layerId = "E5A4176B-9C10-4B01-BBC9-D7999ECBFAF8";
shapes = (
{
closed = 1;
nodes = (
(181,1200,l),
(2241,1200,l),
(2207,1006,l),
(147,1006,l)
);
},
{
ref = H;
}
);
width = 2220;
}
);
unicode = 294;
},
{
color = 6;
glyphname = I;
kernLeft = H;
kernRight = H;
lastChange = "2023-03-03 15:00:28 +0000";
layers = (
{
anchors = (
{
name = bottom;
pos = (199,0);
},
{
name = ogonek;
pos = (210,0);
},
{
name = top;
pos = (445,1350);
},
{
name = topleft;
pos = (154,1350);
}
);
layerId = "5997A0D0-E78E-41EC-9011-DECBEAD8517D";
shapes = (
{
closed = 1;
nodes = (
(428,1350,l),
(450,1350,l),
(210,0,l),
(188,0,l)
);
}
);
width = 698;
},
{
anchors = (
{
name = bottom;
pos = (90,0);
},
{
name = ogonek;
pos = (260,0);
},
{
name = top;
pos = (329,1350);
},
{
name = topleft;
pos = (164,1350);
}
);
layerId = "55C4185A-9C39-4468-B19C-DE0A3E571700";
shapes = (
{
closed = 1;
nodes = (
(150,1350,l),
(498,1350,l),
(260,0,l),
(-90,0,l)
);
}
);
width = 374;
},
{
anchors = (
{
name = bottom;
pos = (-57,0);
},
{
name = ogonek;
pos = (-44,0);
},
{
name = top;
pos = (188,1350);
},
{
name = topleft;
pos = (148,1350);
}
);
layerId = "4F53612F-C4F8-4368-83AD-8913BEEF8F1D";
shapes = (
{
closed = 1;
nodes = (
(172,1350,l),
(194,1350,l),
(-44,0,l),
(-66,0,l)
);
}
);
width = 100;
},
{
anchors = (
{
name = bottom;
pos = (381,0);
},
{
name = ogonek;
pos = (660,0);
},
{
name = top;
pos = (647,1350);
},
{
name = topleft;
pos = (164,1350);
}
);
layerId = "E5A4176B-9C10-4B01-BBC9-D7999ECBFAF8";
shapes = (
{
closed = 1;
nodes = (
(338,1350,l),
(898,1350,l),
(660,0,l),
(100,0,l)
);
}
);
width = 1026;
}
);
unicode = 73;
},
{
color = 6;
glyphname = J;
kernLeft = J;
kernRight = J;
lastChange = "2023-03-03 15:00:28 +0000";
layers = (
{
anchors = (
{
name = bottom;
pos = (707,0);
},
{
name = top;
pos = (1608,1350);
}
);
layerId = "5997A0D0-E78E-41EC-9011-DECBEAD8517D";
shapes = (
{
closed = 1;
nodes = (
(348,-17,o),
(66,267,o),
(115,583,qs),
(119,609,l),
(141,609,l),
(138,590,ls),
(89,281,o),
(356,5,o),
(696,5,qs),
(1035,5,o),
(1410,301,o),
(1468,631,qs),
(1595,1350,l),
(1617,1350,l),
(1489,629,ls),
(1429,291,o),
(1045,-17,o),
(698,-17,qs)
);
}
);
width = 1817;
},
{
anchors = (
{
name = bottom;
pos = (271,0);
},
{
name = top;
pos = (689,1350);
}
);
layerId = "55C4185A-9C39-4468-B19C-DE0A3E571700";
shapes = (
{
closed = 1;
nodes = (
(91,-8,o),
(-71,104,o),
(-47,240,qs),
(12,572,l),
(356,572,l),
(312,324,ls),
(305,282,o),
(297,238,o),
(309,238,qs),
(321,238,o),
(329,282,o),
(336,324,qs),
(517,1350,l),
(861,1350,l),
(665,240,ls),
(640,100,o),
(449,-8,o),
(267,-8,qs)
);
}
);
width = 736;
},
{
anchors = (
{
name = bottom;
pos = (-1,0);
},
{
name = top;
pos = (281,1350);
}
);
layerId = "4F53612F-C4F8-4368-83AD-8913BEEF8F1D";
shapes = (
{
closed = 1;
nodes = (
(-40,-8,o),
(-54,72,o),
(-38,164,qs),
(42,614,l),
(64,614,l),
(-16,164,ls),
(-31,82,o),
(-24,14,o),
(-4,14,qs),
(17,14,o),
(48,84,o),
(62,164,qs),
(270,1350,l),
(292,1350,l),
(84,164,ls),
(68,72,o),
(23,-8,o),
(-6,-8,qs)
);
}
);
width = 186;
},
{
anchors = (
{
name = bottom;
pos = (992,0);
},
{
name = top;
pos = (1828,1350);
}
);
layerId = "E5A4176B-9C10-4B01-BBC9-D7999ECBFAF8";
shapes = (
{
closed = 1;
nodes = (
(454,-16,o),
(3,297,o),
(63,596,qs),
(71,636,l),
(639,636,l),
(635,618,ls),
(606,489,o),
(745,346,o),
(969,346,qs),
(1193,346,o),
(1383,469,o),
(1405,592,qs),
(1538,1350,l),
(2104,1350,l),
(1962,544,ls),
(1917,290,o),
(1402,-16,o),
(926,-16,qs)
);
}
);
width = 2173;
}
);
unicode = 74;
},
{
color = 3;
glyphname = J.ss01;
kernLeft = U;
kernRight = U;
lastChange = "2023-03-03 15:00:28 +0000";
layers = (
{
layerId = "4F53612F-C4F8-4368-83AD-8913BEEF8F1D";
shapes = (
{
closed = 1;
nodes = (
(272,1350,l),
(267,1328,l),
(170,1328,l),
(174,1350,l)
);
},
{
ref = J;
}
);
width = 186;
},
{
layerId = "55C4185A-9C39-4468-B19C-DE0A3E571700";
shapes = (
{
closed = 1;
nodes = (
(545,1350,l),
(498,1096,l),
(125,1096,l),
(169,1350,l)
);
},
{
ref = J;
}
);
width = 736;
},
{
layerId = "5997A0D0-E78E-41EC-9011-DECBEAD8517D";
shapes = (
{
closed = 1;
nodes = (
(1598,1350,l),
(1594,1328,l),
(252,1328,l),
(256,1350,l)
);
},
{
ref = J;
}
);
width = 1817;
},
{
layerId = "E5A4176B-9C10-4B01-BBC9-D7999ECBFAF8";
shapes = (
{
closed = 1;
nodes = (
(1573,1350,l),
(1508,988,l),
(137,988,l),
(201,1350,l)
);
},
{
ref = J;
}
);
width = 2173;
}
);
},
{
color = 6;
glyphname = K;
kernLeft = H;
kernRight = K;
lastChange = "2023-03-03 15:00:28 +0000";
layers = (
{
anchors = (
{
name = bottom;
pos = (596,0);
},
{
name = top;
pos = (835,1350);
}
);
layerId = "5997A0D0-E78E-41EC-9011-DECBEAD8517D";
shapes = (
{
closed = 1;
nodes = (
(269,1350,l),
(291,1350,l),
(174,685,l),
(1545,1350,l),
(1595,1350,l),
(201,674,l),
(1366,0,l),
(1320,0,l),
(170,664,l),
(53,0,l),
(31,0,l)
);
}
);
width = 1631;
},
{
anchors = (
{
name = bottom;
pos = (287,0);
},
{
name = top;
pos = (526,1350);
}
);
layerId = "55C4185A-9C39-4468-B19C-DE0A3E571700";
shapes = (
{
closed = 1;
nodes = (
(148,1350,l),
(492,1350,l),
(394,792,l),
(544,1350,l),
(897,1350,l),
(679,674,l),
(649,0,l),
(306,0,l),
(352,556,l),
(254,0,l),
(-90,0,l)
);
}
);
width = 764;
},
{
anchors = (
{
name = bottom;
pos = (2,0);
},
{
name = top;
pos = (241,1350);
}
);
layerId = "4F53612F-C4F8-4368-83AD-8913BEEF8F1D";
shapes = (
{
closed = 1;
nodes = (
(170,1350,l),
(192,1350,l),
(75,686,l),
(281,1350,l),
(304,1350,l),
(95,676,l),
(66,0,l),
(44,0,l),
(73,672,l),
(-46,0,l),
(-68,0,l)
);
}
);
width = 185;
},
{
anchors = (
{
name = bottom;
pos = (957,0);
},
{
name = top;
pos = (1196,1350);
}
);
layerId = "E5A4176B-9C10-4B01-BBC9-D7999ECBFAF8";
shapes = (
{
closed = 1;
nodes = (
(280,1350,l),
(844,1350,l),
(747,799,l),
(1486,1350,l),
(2164,1350,l),
(1240,664,l),
(1926,0,l),
(1258,0,l),
(703,550,l),
(606,0,l),
(42,0,l)
);
}
);
width = 2082;
}
);
metricLeft = H;
unicode = 75;
},
{
color = 6;
glyphname = L;
kernLeft = H;
kernRight = L;
lastChange = "2023-03-03 15:00:28 +0000";
layers = (
{
anchors = (
{
name = bottom;
pos = (637,0);
},
{
name = center;
pos = (757,675);
},
{
name = top;
pos = (876,1350);
},
{
name = topright;
pos = (1571,1350);
}
);
layerId = "5997A0D0-E78E-41EC-9011-DECBEAD8517D";
shapes = (
{
closed = 1;
nodes = (
(269,1350,l),
(291,1350,l),
(57,22,l),
(1281,22,l),
(1277,0,l),
(31,0,l)
);
}
);
width = 1587;
},
{
anchors = (
{
name = bottom;
pos = (153,0);
},
{
name = center;
pos = (273,675);
},
{
name = top;
pos = (392,1350);
},
{
name = topright;
pos = (621,1350);
}
);
layerId = "55C4185A-9C39-4468-B19C-DE0A3E571700";
shapes = (
{
closed = 1;
nodes = (
(148,1350,l),
(496,1350,l),
(302,250,l),
(436,250,l),
(392,0,l),
(-90,0,l)
);
}
);
width = 505;
},
{
anchors = (
{
name = bottom;
pos = (-15,0);
},
{
name = center;
pos = (105,675);
},
{
name = top;
pos = (224,1350);
},
{
name = topright;
pos = (286,1350);
}
);
layerId = "4F53612F-C4F8-4368-83AD-8913BEEF8F1D";
shapes = (
{
closed = 1;
nodes = (
(172,1350,l),
(194,1350,l),
(-42,22,l),
(34,22,l),
(30,0,l),
(-68,0,l)
);
}
);
width = 138;
},
{
anchors = (
{
name = bottom;
pos = (806,0);
},
{
name = center;
pos = (926,675);
},
{
name = top;
pos = (1045,1350);
},
{
name = topright;
pos = (1868,1350);
}
);
layerId = "E5A4176B-9C10-4B01-BBC9-D7999ECBFAF8";
shapes = (
{
closed = 1;
nodes = (
(280,1350,l),
(846,1350,l),
(670,362,l),
(1558,362,l),
(1494,0,l),
(42,0,l)
);
}
);
width = 1744;
}
);
metricLeft = H;
unicode = 76;
},
{
color = 3;
glyphname = Lcaron;
kernLeft = H;
kernRight = L;
lastChange = "2023-03-03 15:00:28 +0000";
layers = (
{
layerId = "5997A0D0-E78E-41EC-9011-DECBEAD8517D";
shapes = (
{
closed = 1;
nodes = (
(1502,1348,l),
(1530,1348,l),
(1294,1126,l),
(1268,1126,l)
);
},
{
ref = L;
}
);
width = 1370;
},
{
layerId = "55C4185A-9C39-4468-B19C-DE0A3E571700";
shapes = (
{
closed = 1;
nodes = (
(638,1348,l),
(864,1348,l),
(722,1008,l),
(498,1008,l)
);
},
{
ref = L;
}
);
width = 736;
},
{
layerId = "4F53612F-C4F8-4368-83AD-8913BEEF8F1D";
shapes = (
{
closed = 1;
nodes = (
(282,1348,l),
(306,1348,l),
(242,1148,l),
(222,1148,l)
);
},
{
ref = L;
}
);
width = 200;
},
{
layerId = "E5A4176B-9C10-4B01-BBC9-D7999ECBFAF8";
shapes = (
{
closed = 1;
nodes = (
(1592,1348,l),
(1956,1348,l),
(1708,890,l),
(1382,890,l)
);
},
{
ref = L;
}
);
width = 1664;
}
);
unicode = 317;
},
{
color = 3;
glyphname = Lslash;
kernLeft = H;
kernRight = L;
lastChange = "2023-03-03 15:00:28 +0000";
layers = (
{
layerId = "5997A0D0-E78E-41EC-9011-DECBEAD8517D";
shapes = (
{
closed = 1;
nodes = (
(-40,413,l),
(819,951,l),
(829,933,l),
(-30,395,l)
);
},
{
alignment = -1;
pos = (94,0);
ref = L;
}
);
width = 1548;
},
{
layerId = "55C4185A-9C39-4468-B19C-DE0A3E571700";
shapes = (
{
closed = 1;
nodes = (
(-64,590,l),
(544,953,l),
(611,795,l),
(3,430,l)
);
},
{
alignment = -1;
pos = (68,0);
ref = L;
}
);
width = 568;
},
{
layerId = "4F53612F-C4F8-4368-83AD-8913BEEF8F1D";
shapes = (
{
closed = 1;
nodes = (
(10,475,l),
(232,869,l),
(248,856,l),
(26,462,l)
);
},
{
alignment = -1;
pos = (70,0);
ref = L;
}
);
width = 234;
},
{
layerId = "E5A4176B-9C10-4B01-BBC9-D7999ECBFAF8";
shapes = (
{
closed = 1;
nodes = (
(-20,608,l),
(1072,1038,l),
(1133,747,l),
(41,317,l)
);
},
{
alignment = -1;
pos = (106,0);
ref = L;
}
);
width = 1836;
}
);
unicode = 321;
},
{
color = 6;
glyphname = M;
kernLeft = H;
kernRight = H;
lastChange = "2023-03-03 15:00:28 +0000";
layers = (
{
anchors = (
{
name = bottom;
pos = (901,0);
},
{
name = top;
pos = (1140,1350);
}
);
layerId = "5997A0D0-E78E-41EC-9011-DECBEAD8517D";
shapes = (
{
closed = 1;
nodes = (
(269,1350,l),
(305,1350,l),
(995,140,l),
(998,140,l),
(2114,1350,l),
(2156,1350,l),
(1918,0,l),
(1896,0,l),
(2131,1333,l),
(2130,1333,l),
(1013,122,l),
(978,122,l),
(289,1333,l),
(288,1333,l),
(53,0,l),
(31,0,l)
);
}
);
width = 2309;
},
{
anchors = (
{
name = bottom;
pos = (496,0);
},
{
name = top;
pos = (735,1350);
}
);
layerId = "55C4185A-9C39-4468-B19C-DE0A3E571700";
shapes = (
{
closed = 1;
nodes = (
(148,1350,l),
(693,1350,l),
(542,268,l),
(546,268,l),
(777,1350,l),
(1332,1350,l),
(1094,0,l),
(752,0,l),
(946,1098,l),
(942,1098,l),
(688,0,l),
(316,0,l),
(450,1098,l),
(446,1098,l),
(252,0,l),
(-90,0,l)
);
}
);
width = 1208;
},
{
anchors = (
{
name = bottom;
pos = (46,0);
},
{
name = top;
pos = (285,1350);
}
);
layerId = "4F53612F-C4F8-4368-83AD-8913BEEF8F1D";
shapes = (
{
closed = 1;
nodes = (
(170,1350,l),
(220,1350,l),
(62,142,l),
(68,142,l),
(334,1350,l),
(384,1350,l),
(147,0,l),
(125,0,l),
(359,1328,l),
(351,1328,l),
(85,124,l),
(39,124,l),
(197,1328,l),
(189,1328,l),
(-45,0,l),
(-67,0,l)
);
}
);
width = 281;
},
{
anchors = (
{
name = bottom;
pos = (1312,0);
},
{
name = top;
pos = (1551,1350);
}
);
layerId = "E5A4176B-9C10-4B01-BBC9-D7999ECBFAF8";
shapes = (
{
closed = 1;
nodes = (
(280,1350,l),
(1186,1350,l),
(1340,389,l),
(1341,389,l),
(1834,1350,l),
(2760,1350,l),
(2522,0,l),
(1962,0,l),
(2134,974,l),
(2132,974,l),
(1624,10,l),
(944,10,l),
(776,974,l),
(774,974,l),
(602,0,l),
(42,0,l)
);
}
);
width = 2817;
}
);
metricLeft = H;
metricRight = H;
unicode = 77;
},
{
color = 6;
glyphname = N;
kernLeft = H;
kernRight = H;
lastChange = "2023-03-03 15:00:28 +0000";
layers = (
{
anchors = (
{
name = bottom;
pos = (787,0);
},
{
name = top;
pos = (1026,1350);
}
);
layerId = "5997A0D0-E78E-41EC-9011-DECBEAD8517D";
shapes = (
{
closed = 1;
nodes = (
(269,1350,l),
(300,1350,l),
(1608,24,l),
(1609,24,l),
(1843,1350,l),
(1865,1350,l),
(1627,0,l),
(1596,0,l),
(288,1326,l),
(287,1326,l),
(53,0,l),
(31,0,l)
);
}
);
width = 2018;
},
{
anchors = (
{
name = bottom;
pos = (384,0);
},
{
name = top;
pos = (623,1350);
}
);
layerId = "55C4185A-9C39-4468-B19C-DE0A3E571700";
shapes = (
{
closed = 1;
nodes = (
(148,1350,l),
(682,1350,l),
(536,264,l),
(541,264,l),
(740,1350,l),
(1084,1350,l),
(846,0,l),
(302,0,l),
(451,1096,l),
(445,1096,l),
(252,0,l),
(-90,0,l)
);
}
);
width = 960;
},
{
anchors = (
{
name = bottom;
pos = (9,0);
},
{
name = top;
pos = (248,1350);
}
);
layerId = "4F53612F-C4F8-4368-83AD-8913BEEF8F1D";
shapes = (
{
closed = 1;
nodes = (
(170,1350,l),
(218,1350,l),
(52,22,l),
(58,22,l),
(292,1350,l),
(314,1350,l),
(76,0,l),
(28,0,l),
(194,1328,l),
(188,1328,l),
(-46,0,l),
(-68,0,l)
);
}
);
width = 210;
},
{
anchors = (
{
name = bottom;
pos = (1192,0);
},
{
name = top;
pos = (1431,1350);
}
);
layerId = "E5A4176B-9C10-4B01-BBC9-D7999ECBFAF8";
shapes = (
{
closed = 1;
nodes = (
(280,1350,l),
(1174,1350,l),
(1729,426,l),
(1731,426,l),
(1894,1350,l),
(2460,1350,l),
(2222,0,l),
(1352,0,l),
(779,961,l),
(777,961,l),
(608,0,l),
(42,0,l)
);
}
);
width = 2517;
}
);
metricLeft = H;
metricRight = H;
unicode = 78;
},
{
color = 3;
glyphname = Eng;
kernLeft = N;
kernRight = N;
lastChange = "2023-03-03 15:00:28 +0000";
layers = (
{
layerId = "5997A0D0-E78E-41EC-9011-DECBEAD8517D";
shapes = (
{
closed = 1;
nodes = (
(1027,-438,l),
(1441,-438,o),
(1563,-244,o),
(1605,0,c),
(1627,0,l),
(1575,-292,o),
(1419,-460,o),
(1023,-460,c)
);
},
{
ref = N;
}
);
width = 2018;
},
{
layerId = "55C4185A-9C39-4468-B19C-DE0A3E571700";
shapes = (
{
closed = 1;
nodes = (
(256,-198,l),
(396,-198,o),
(466,-158,o),
(492,0,c),
(846,0,l),
(776,-395,o),
(460,-440,o),
(212,-440,c)
);
},
{
ref = N;
}
);
width = 960;
},
{
layerId = "4F53612F-C4F8-4368-83AD-8913BEEF8F1D";
shapes = (
{
closed = 1;
nodes = (
(-90,-378,l),
(-24,-378,o),
(44,-92,o),
(60,0,c),
(82,0,l),
(74,-46,o),
(10,-400,o),
(-94,-400,c)
);
},
{
ref = N;
}
);
width = 216;
},
{
layerId = "E5A4176B-9C10-4B01-BBC9-D7999ECBFAF8";
shapes = (
{
closed = 1;
nodes = (
(1177,-142,l),
(1551,-142,o),
(1621,-76,o),
(1634,0,c),
(2222,0,l),
(2157,-372,o),
(1696,-490,o),
(1116,-490,c)
);
},
{
ref = N;
}
);
width = 2517;
}
);
metricLeft = N;
metricRight = N;
unicode = 330;
},
{
color = 6;
glyphname = O;
kernLeft = O;
kernRight = O;
lastChange = "2023-03-03 15:00:28 +0000";
layers = (
{
anchors = (
{
name = bottom;
pos = (927,0);
},
{
name = center;
pos = (1047,675);
},
{
name = ogonek;
pos = (1549,129);
},
{
name = top;
pos = (1166,1350);
},
{
name = topleft;
pos = (248,1350);
},
{
name = topright;
pos = (1737,1224);
}
);
layerId = "5997A0D0-E78E-41EC-9011-DECBEAD8517D";
shapes = (
{
closed = 1;
nodes = (
(552,-8,o),
(83,331,o),
(132,676,qs),
(182,1025,o),
(793,1363,o),
(1171,1363,qs),
(1549,1363,o),
(2019,1022,o),
(1969,676,qs),
(1919,327,o),
(1307,-8,o),
(929,-8,qs)
);
},
{
closed = 1;
nodes = (
(1305,14,o),
(1897,342,o),
(1945,676,qs),
(1993,1009,o),
(1539,1341,o),
(1167,1341,qs),
(796,1341,o),
(205,1010,o),
(156,676,qs),
(107,344,o),
(562,14,o),
(933,14,qs)
);
}
);
width = 2173;
},
{
anchors = (
{
name = bottom;
pos = (269,0);
},
{
name = center;
pos = (389,675);
},
{
name = ogonek;
pos = (574,63);
},
{
name = top;
pos = (508,1350);
},
{
name = topleft;
pos = (162,1350);
},
{
name = topright;
pos = (820,1180);
}
);
layerId = "55C4185A-9C39-4468-B19C-DE0A3E571700";
shapes = (
{
closed = 1;
nodes = (
(-94,-8,o),
(-28,366,o),
(27,676,qs),
(81,986,o),
(148,1362,o),
(504,1362,qs),
(860,1362,o),
(793,986,o),
(739,676,qs),
(684,366,o),
(618,-8,o),
(262,-8,qs)
);
},
{
closed = 1;
nodes = (
(319,246,o),
(327,294,o),
(395,676,qs),
(464,1068,o),
(471,1108,o),
(459,1108,qs),
(447,1108,o),
(440,1068,o),
(371,676,qs),
(303,294,o),
(295,246,o),
(307,246,qs)
);
}
);
width = 736;
},
{
anchors = (
{
name = bottom;
pos = (-6,0);
},
{
name = center;
pos = (114,675);
},
{
name = ogonek;
pos = (44,38);
},
{
name = top;
pos = (233,1350);
},
{
name = topleft;
pos = (161,1350);
},
{
name = topright;
pos = (259,1216);
}
);
layerId = "4F53612F-C4F8-4368-83AD-8913BEEF8F1D";
shapes = (
{
closed = 1;
nodes = (
(-70,-8,o),
(-23,260,o),
(50,674,qs),
(123,1086,o),
(170,1356,o),
(228,1356,qs),
(286,1356,o),
(238,1084,o),
(166,674,qs),
(93,260,o),
(46,-8,o),
(-12,-8,qs)
);
},
{
closed = 1;
nodes = (
(28,14,o),
(72,266,o),
(144,674,qs),
(216,1080,o),
(260,1334,o),
(224,1334,qs),
(188,1334,o),
(144,1080,o),
(72,674,qs),
(0,266,o),
(-44,14,o),
(-8,14,qs)
);
}
);
width = 174;
},
{
anchors = (
{
name = bottom;
pos = (995,0);
},
{
name = center;
pos = (1115,675);
},
{
name = ogonek;
pos = (1687,102);
},
{
name = top;
pos = (1234,1350);
},
{
name = topleft;
pos = (164,1350);
},
{
name = topright;
pos = (1853,1232);
}
);
layerId = "E5A4176B-9C10-4B01-BBC9-D7999ECBFAF8";
shapes = (
{
closed = 1;
nodes = (
(540,-16,o),
(39,334,o),
(79,674,qs),
(119,1017,o),
(782,1362,o),
(1246,1362,qs),
(1710,1362,o),
(2211,1015,o),
(2171,674,qs),
(2131,332,o),
(1468,-16,o),
(1004,-16,qs)
);
},
{
closed = 1;
nodes = (
(1283,346,o),
(1586,511,o),
(1605,674,qs),
(1624,836,o),
(1399,1000,o),
(1183,1000,qs),
(967,1000,o),
(663,838,o),
(645,674,qs),
(627,512,o),
(851,346,o),
(1067,346,qs)
);
}
);
width = 2259;
}
);
unicode = 79;
},
{
color = 3;
glyphname = Oslash;
kernLeft = O;
kernRight = O;
lastChange = "2023-03-03 15:00:28 +0000";
layers = (
{
anchors = (
{
name = bottom;
pos = (790,0);
},
{
name = top;
pos = (1029,1350);
}
);
layerId = "5997A0D0-E78E-41EC-9011-DECBEAD8517D";
shapes = (
{
closed = 1;
nodes = (
(1620,1348,l),
(1652,1348,l),
(58,0,l),
(18,0,l)
);
},
{
ref = O;
}
);
width = 1770;
},
{
anchors = (
{
name = bottom;
pos = (271,0);
},
{
name = top;
pos = (510,1350);
}
);
layerId = "55C4185A-9C39-4468-B19C-DE0A3E571700";
shapes = (
{
closed = 1;
nodes = (
(806,1348,l),
(884,1348,l),
(-24,0,l),
(-104,0,l)
);
},
{
ref = O;
}
);
width = 732;
},
{
anchors = (
{
name = bottom;
pos = (-3,0);
},
{
name = top;
pos = (236,1350);
}
);
layerId = "4F53612F-C4F8-4368-83AD-8913BEEF8F1D";
shapes = (
{
closed = 1;
nodes = (
(274,1348,l),
(296,1348,l),
(-62,0,l),
(-84,0,l)
);
},
{
ref = O;
}
);
width = 184;
},
{
anchors = (
{
name = bottom;
pos = (1004,0);
},
{
name = top;
pos = (1243,1350);
}
);
layerId = "E5A4176B-9C10-4B01-BBC9-D7999ECBFAF8";
shapes = (
{
closed = 1;
nodes = (
(1898,1348,l),
(2276,1348,l),
(300,0,l),
(-80,0,l)
);
},
{
ref = O;
}
);
width = 2198;
}
);
unicode = 216;
},
{
color = 6;
glyphname = P;
kernLeft = H;
kernRight = P;
lastChange = "2023-03-03 15:00:28 +0000";
layers = (
{
anchors = (
{
name = bottom;
pos = (657,0);
},
{
name = top;
pos = (896,1350);
}
);
layerId = "5997A0D0-E78E-41EC-9011-DECBEAD8517D";
shapes = (
{
closed = 1;
nodes = (
(269,1350,l),
(1075,1350,ls),
(1383,1350,o),
(1651,1135,o),
(1613,921,qs),
(1576,707,o),
(1243,492,o),
(934,492,qs),
(140,492,l),
(53,0,l),
(31,0,l)
);
},
{
closed = 1;
nodes = (
(922,514,ls),
(1237,514,o),
(1554,721,o),
(1589,921,qs),
(1624,1120,o),
(1381,1328,o),
(1065,1328,qs),
(287,1328,l),
(144,514,l)
);
}
);
width = 1750;
},
{
anchors = (
{
name = bottom;
pos = (275,0);
},
{
name = top;
pos = (514,1350);
}
);
layerId = "55C4185A-9C39-4468-B19C-DE0A3E571700";
shapes = (
{
closed = 1;
nodes = (
(148,1350,l),
(636,1350,ls),
(868,1350,o),
(803,980,o),
(780,852,qs),
(757,722,o),
(692,352,o),
(460,352,qs),
(320,352,l),
(258,0,l),
(-90,0,l)
);
},
{
closed = 1;
nodes = (
(371,606,ls),
(389,606,o),
(405,696,o),
(432,852,qs),
(459,1006,o),
(475,1096,o),
(457,1096,qs),
(451,1096,l),
(365,606,l)
);
}
);
width = 743;
},
{
anchors = (
{
name = bottom;
pos = (-12,0);
},
{
name = top;
pos = (227,1350);
}
);
layerId = "4F53612F-C4F8-4368-83AD-8913BEEF8F1D";
shapes = (
{
closed = 1;
nodes = (
(170,1350,l),
(212,1350,ls),
(274,1350,o),
(222,1056,o),
(189,868,qs),
(156,680,o),
(104,388,o),
(46,388,qs),
(22,388,l),
(-46,0,l),
(-68,0,l)
);
},
{
closed = 1;
nodes = (
(44,410,ls),
(86,410,o),
(134,680,o),
(167,868,qs),
(200,1056,o),
(248,1328,o),
(206,1328,qs),
(188,1328,l),
(26,410,l)
);
}
);
width = 166;
},
{
anchors = (
{
name = bottom;
pos = (963,0);
},
{
name = top;
pos = (1202,1350);
}
);
layerId = "E5A4176B-9C10-4B01-BBC9-D7999ECBFAF8";
shapes = (
{
closed = 1;
nodes = (
(282,1350,l),
(1450,1350,ls),
(1776,1350,o),
(2028,1096,o),
(2028,906,qs),
(2028,636,o),
(1630,310,o),
(1304,310,qs),
(664,310,l),
(608,0,l),
(42,0,l)
);
},
{
closed = 1;
nodes = (
(1210,672,ls),
(1324,672,o),
(1470,758,o),
(1470,850,qs),
(1470,918,o),
(1380,988,o),
(1266,988,qs),
(784,988,l),
(728,672,l)
);
}
);
width = 2069;
}
);
metricLeft = H;
unicode = 80;
},
{
color = 6;
glyphname = Thorn;
kernLeft = H;
kernRight = Thorn;
lastChange = "2023-03-03 15:00:28 +0000";
layers = (
{
anchors = (
{
name = bottom;
pos = (645,0);
},
{
name = top;
pos = (884,1350);
}
);
layerId = "5997A0D0-E78E-41EC-9011-DECBEAD8517D";
shapes = (
{
closed = 1;
nodes = (
(272,1350,l),
(294,1350,l),
(256,1132,l),
(1048,1132,l),
(1399,1132,o),
(1470,950,o),
(1433,746,cs),
(1408,607,ls),
(1373,412,o),
(1245,228,o),
(898,228,c),
(96,228,l),
(56,0,l),
(34,0,l)
);
},
{
closed = 1;
nodes = (
(898,250,l),
(1217,250,o),
(1352,422,o),
(1387,615,cs),
(1409,738,ls),
(1445,941,o),
(1378,1108,o),
(1049,1108,c),
(251,1108,l),
(100,250,l)
);
}
);
width = 1672;
},
{
anchors = (
{
name = bottom;
pos = (276,0);
},
{
name = top;
pos = (515,1350);
}
);
layerId = "55C4185A-9C39-4468-B19C-DE0A3E571700";
shapes = (
{
closed = 1;
nodes = (
(148,1350,l),
(494,1350,l),
(456,1132,l),
(612,1132,l),
(764,1132,o),
(817,1050,o),
(784,862,cs),
(720,498,ls),
(686,304,o),
(610,228,o),
(452,228,c),
(296,228,l),
(256,0,l),
(-90,0,l)
);
},
{
closed = 1;
nodes = (
(345,450,l),
(365,450,o),
(369,468,o),
(381,538,cs),
(434,838,ls),
(444,892,o),
(445,908,o),
(425,908,c),
(416,908,l),
(335,450,l)
);
}
);
width = 746;
},
{
anchors = (
{
name = bottom;
pos = (11,0);
},
{
name = top;
pos = (250,1350);
}
);
layerId = "4F53612F-C4F8-4368-83AD-8913BEEF8F1D";
shapes = (
{
closed = 1;
nodes = (
(172,1350,l),
(194,1350,l),
(156,1132,l),
(198,1132,l),
(248,1132,o),
(261,1042,o),
(233,882,cs),
(162,478,ls),
(132,310,o),
(93,228,o),
(41,228,c),
(-4,228,l),
(-44,0,l),
(-66,0,l)
);
},
{
closed = 1;
nodes = (
(30,250,l),
(82,250,o),
(112,314,o),
(144,498,cs),
(208,862,ls),
(239,1038,o),
(231,1108,o),
(181,1108,c),
(151,1108,l),
(0,250,l)
);
}
);
width = 210;
},
{
anchors = (
{
name = bottom;
pos = (928,0);
},
{
name = top;
pos = (1167,1350);
}
);
layerId = "E5A4176B-9C10-4B01-BBC9-D7999ECBFAF8";
shapes = (
{
closed = 1;
nodes = (
(217,1350,l),
(775,1350,l),
(737,1132,l),
(1569,1132,l),
(1853,1132,o),
(1969,1012,o),
(1930,786,cs),
(1893,578,ls),
(1848,322,o),
(1715,228,o),
(1409,228,cs),
(577,228,l),
(537,0,l),
(-21,0,l)
);
},
{
closed = 1;
nodes = (
(1271,588,l),
(1325,588,o),
(1341,624,o),
(1345,646,cs),
(1357,712,ls),
(1361,736,o),
(1355,772,o),
(1303,772,c),
(673,772,l),
(641,588,l)
);
}
);
width = 2045;
}
);
unicode = 222;
},
{
color = 6;
glyphname = Q;
kernLeft = O;
kernRight = O;
lastChange = "2023-03-03 15:00:28 +0000";
layers = (
{
anchors = (
{
name = bottom;
pos = (810,0);
},
{
name = center;
pos = (1047,675);
},
{
name = ogonek;
pos = (938,0);
},
{
name = top;
pos = (1049,1350);
},
{
name = topleft;
pos = (248,1350);
},
{
name = topright;
pos = (1737,1224);
}
);
layerId = "5997A0D0-E78E-41EC-9011-DECBEAD8517D";
shapes = (
{
closed = 1;
nodes = (
(1519,124,l),
(1539,140,l),
(1715,-140,l),
(1693,-156,l)
);
},
{
closed = 1;
nodes = (
(536,-8,o),
(73,341,o),
(132,676,qs),
(191,1011,o),
(769,1363,o),
(1167,1363,qs),
(1565,1363,o),
(2028,1012,o),
(1969,676,qs),
(1910,341,o),
(1331,-8,o),
(933,-8,qs)
);
},
{
closed = 1;
nodes = (
(1325,14,o),
(1888,354,o),
(1945,676,qs),
(2002,999,o),
(1559,1341,o),
(1167,1341,qs),
(776,1341,o),
(213,999,o),
(156,676,qs),
(99,354,o),
(542,14,o),
(933,14,qs)
);
}
);
width = 2172;
},
{
anchors = (
{
name = bottom;
pos = (276,0);
},
{
name = center;
pos = (389,675);
},
{
name = ogonek;
pos = (285,0);
},
{
name = top;
pos = (515,1350);
},
{
name = topleft;
pos = (162,1350);
},
{
name = topright;
pos = (820,1180);
}
);
layerId = "55C4185A-9C39-4468-B19C-DE0A3E571700";
shapes = (
{
closed = 1;
nodes = (
(249,142,l),
(513,222,l),
(598,-124,l),
(337,-208,l)
);
},
{
closed = 1;
nodes = (
(-94,-8,o),
(-37,316,o),
(27,676,qs),
(90,1036,o),
(148,1362,o),
(504,1362,qs),
(860,1362,o),
(802,1036,o),
(739,676,qs),
(675,316,o),
(618,-8,o),
(262,-8,qs)
);
},
{
closed = 1;
nodes = (
(319,246,o),
(327,294,o),
(395,676,qs),
(464,1068,o),
(471,1108,o),
(459,1108,qs),
(447,1108,o),
(440,1068,o),
(371,676,qs),
(303,294,o),
(295,246,o),
(307,246,qs)
);
}
);
width = 736;
},
{
anchors = (
{
name = bottom;
pos = (2,0);
},
{
name = center;
pos = (114,675);
},
{
name = ogonek;
pos = (-9,0);
},
{
name = top;
pos = (241,1350);
},
{
name = topleft;
pos = (161,1350);
},
{
name = topright;
pos = (259,1216);
}
);
layerId = "4F53612F-C4F8-4368-83AD-8913BEEF8F1D";
shapes = (
{
closed = 1;
nodes = (
(-6,8,l),
(14,22,l),
(72,-84,l),
(54,-96,l)
);
},
{
closed = 1;
nodes = (
(-70,-8,o),
(-27,240,o),
(50,674,qs),
(126,1106,o),
(170,1356,o),
(228,1356,qs),
(286,1356,o),
(242,1104,o),
(166,674,qs),
(89,240,o),
(46,-8,o),
(-12,-8,qs)
);
},
{
closed = 1;
nodes = (
(28,14,o),
(69,246,o),
(144,674,qs),
(219,1100,o),
(260,1334,o),
(224,1334,qs),
(188,1334,o),
(147,1100,o),
(72,674,qs),
(-3,246,o),
(-44,14,o),
(-8,14,qs)
);
}
);
width = 214;
},
{
anchors = (
{
name = bottom;
pos = (1013,0);
},
{
name = center;
pos = (1114,675);
},
{
name = ogonek;
pos = (1020,0);
},
{
name = top;
pos = (1252,1350);
},
{
name = topleft;
pos = (163,1350);
},
{
name = topright;
pos = (1852,1232);
}
);
layerId = "E5A4176B-9C10-4B01-BBC9-D7999ECBFAF8";
shapes = (
{
closed = 1;
nodes = (
(1169,114,l),
(1631,322,l),
(1959,-150,l),
(1517,-390,l)
);
},
{
closed = 1;
nodes = (
(560,-16,o),
(39,344,o),
(79,674,qs),
(121,1017,o),
(762,1362,o),
(1226,1362,qs),
(1690,1362,o),
(2211,1004,o),
(2171,674,qs),
(2129,331,o),
(1488,-16,o),
(1024,-16,qs)
);
},
{
closed = 1;
nodes = (
(1283,346,o),
(1577,512,o),
(1605,674,qs),
(1634,836,o),
(1399,1000,o),
(1183,1000,qs),
(967,1000,o),
(674,836,o),
(645,674,qs),
(617,512,o),
(851,346,o),
(1067,346,qs)
);
}
);
width = 2259;
}
);
metricLeft = O;
metricRight = O;
unicode = 81;
},
{
color = 6;
glyphname = R;
kernLeft = H;
kernRight = R;
lastChange = "2023-03-03 15:00:28 +0000";
layers = (
{
anchors = (
{
name = bottom;
pos = (636,0);
},
{
name = top;
pos = (875,1350);
}
);
layerId = "5997A0D0-E78E-41EC-9011-DECBEAD8517D";
shapes = (
{
closed = 1;
nodes = (
(269,1350,l),
(1233,1350,ls),
(1485,1350,o),
(1691,1166,o),
(1661,1000,qs),
(1632,834,o),
(1366,647,o),
(1114,647,qs),
(167,647,l),
(53,0,l),
(31,0,l)
);
},
{
closed = 1;
nodes = (
(1105,657,l),
(1130,657,l),
(1470,0,l),
(1445,0,l)
);
},
{
closed = 1;
nodes = (
(1114,669,ls),
(1358,669,o),
(1610,843,o),
(1637,1000,qs),
(1665,1157,o),
(1481,1328,o),
(1232,1328,qs),
(287,1328,l),
(171,669,l)
);
}
);
width = 1804;
},
{
anchors = (
{
name = bottom;
pos = (265,0);
},
{
name = top;
pos = (504,1350);
}
);
layerId = "55C4185A-9C39-4468-B19C-DE0A3E571700";
shapes = (
{
closed = 1;
nodes = (
(148,1350,l),
(646,1350,ls),
(872,1350,o),
(820,1056,o),
(800,944,qs),
(781,836,o),
(736,580,o),
(512,580,qs),
(362,580,l),
(260,0,l),
(-90,0,l)
);
},
{
closed = 1;
nodes = (
(375,612,l),
(708,642,l),
(649,0,l),
(299,0,l)
);
},
{
closed = 1;
nodes = (
(404,794,ls),
(424,794,o),
(437,868,o),
(450,944,qs),
(464,1020,o),
(477,1096,o),
(457,1096,qs),
(453,1096,l),
(400,794,l)
);
}
);
width = 751;
},
{
anchors = (
{
name = bottom;
pos = (-10,0);
},
{
name = top;
pos = (229,1350);
}
);
layerId = "4F53612F-C4F8-4368-83AD-8913BEEF8F1D";
shapes = (
{
closed = 1;
nodes = (
(170,1350,l),
(210,1350,ls),
(276,1350,o),
(236,1124,o),
(213,990,qs),
(189,856,o),
(149,632,o),
(83,632,qs),
(65,632,l),
(-46,0,l),
(-68,0,l)
);
},
{
closed = 1;
nodes = (
(102,638,l),
(128,660,l),
(44,0,l),
(22,0,l)
);
},
{
closed = 1;
nodes = (
(87,654,ls),
(131,654,o),
(167,856,o),
(191,990,qs),
(214,1124,o),
(250,1328,o),
(206,1328,qs),
(188,1328,l),
(69,654,l)
);
}
);
width = 167;
},
{
anchors = (
{
name = bottom;
pos = (946,0);
},
{
name = top;
pos = (1185,1350);
}
);
layerId = "E5A4176B-9C10-4B01-BBC9-D7999ECBFAF8";
shapes = (
{
closed = 1;
nodes = (
(280,1350,l),
(1532,1350,ls),
(1804,1350,o),
(2086,1122,o),
(2053,888,qs),
(2019,644,o),
(1621,424,o),
(1329,424,qs),
(683,424,l),
(608,0,l),
(42,0,l)
);
},
{
closed = 1;
nodes = (
(847,630,l),
(1423,630,l),
(1948,0,l),
(1308,0,l)
);
},
{
closed = 1;
nodes = (
(1267,764,ls),
(1371,764,o),
(1474,816,o),
(1484,876,qs),
(1495,934,o),
(1410,988,o),
(1306,988,qs),
(782,988,l),
(743,764,l)
);
}
);
width = 2147;
}
);
metricLeft = H;
unicode = 82;
},
{
color = 6;
glyphname = S;
kernLeft = S;
kernRight = S;
lastChange = "2023-03-03 15:00:28 +0000";
layers = (
{
anchors = (
{
name = bottom;
pos = (782,0);
},
{
name = top;
pos = (1012,1341);
}
);
layerId = "5997A0D0-E78E-41EC-9011-DECBEAD8517D";
shapes = (
{
closed = 1;
nodes = (
(388,-7,o),
(43,215,o),
(81,483,q),
(106,483,l),
(71,229,o),
(400,15,o),
(776,15,qs),
(1146,15,o),
(1574,174,o),
(1591,332,qs),
(1607,481,o),
(1222,600,o),
(883,675,qs),
(543,750,o),
(163,885,o),
(180,1049,qs),
(197,1217,o),
(643,1363,o),
(1012,1363,q),
(1404,1363,o),
(1750,1152,o),
(1714,893,q),
(1690,893,l),
(1724,1145,o),
(1384,1341,o),
(1012,1341,qs),
(647,1341,o),
(220,1199,o),
(204,1049,qs),
(188,899,o),
(567,768,o),
(902,695,qs),
(1246,620,o),
(1630,495,o),
(1615,332,qs),
(1599,157,o),
(1153,-7,o),
(777,-7,qs)
);
}
);
width = 1891;
},
{
anchors = (
{
name = bottom;
pos = (273,0);
},
{
name = top;
pos = (512,1350);
}
);
layerId = "55C4185A-9C39-4468-B19C-DE0A3E571700";
shapes = (
{
closed = 1;
nodes = (
(-89,-8,o),
(-33,308,o),
(-5,468,q),
(343,468,l),
(310,280,o),
(304,244,o),
(316,244,qs),
(328,244,o),
(334,280,o),
(347,356,qs),
(362,440,o),
(352,496,o),
(282,532,qs),
(105,624,o),
(47,762,o),
(76,924,qs),
(97,1046,o),
(153,1362,o),
(515,1362,q),
(873,1362,o),
(814,1030,o),
(790,890,q),
(442,890,l),
(474,1074,o),
(480,1110,o),
(468,1110,qs),
(456,1110,o),
(450,1074,o),
(438,1006,qs),
(419,896,o),
(435,852,o),
(515,810,qs),
(680,724,o),
(743,604,o),
(715,442,qs),
(693,320,o),
(635,-8,o),
(271,-8,qs)
);
}
);
width = 748;
},
{
anchors = (
{
name = bottom;
pos = (-9,0);
},
{
name = top;
pos = (230,1350);
}
);
layerId = "4F53612F-C4F8-4368-83AD-8913BEEF8F1D";
shapes = (
{
closed = 1;
nodes = (
(-76,-12,o),
(-40,194,o),
(26,554,q),
(48,554,l),
(-18,194,o),
(-50,10,o),
(-14,10,qs),
(26,10,o),
(56,194,o),
(76,300,qs),
(108,468,o),
(132,624,o),
(98,670,qs),
(58,724,o),
(82,880,o),
(112,1040,qs),
(130,1138,o),
(168,1356,o),
(226,1356,qs),
(284,1356,o),
(246,1136,o),
(186,796,q),
(164,796,l),
(224,1136,o),
(258,1334,o),
(222,1334,qs),
(186,1334,o),
(150,1136,o),
(134,1040,qs),
(110,892,o),
(80,734,o),
(112,690,qs),
(156,632,o),
(133,487,o),
(98,300,qs),
(78,194,o),
(44,-12,o),
(-18,-12,qs)
);
}
);
width = 176;
},
{
anchors = (
{
name = bottom;
pos = (965,0);
},
{
name = top;
pos = (1204,1350);
}
);
layerId = "E5A4176B-9C10-4B01-BBC9-D7999ECBFAF8";
shapes = (
{
closed = 1;
nodes = (
(518,-8,o),
(14,226,o),
(60,482,q),
(626,482,l),
(614,410,o),
(864,352,o),
(1032,352,qs),
(1198,352,o),
(1464,390,o),
(1470,426,qs),
(1477,468,o),
(1106,492,o),
(846,508,qs),
(412,534,o),
(134,754,o),
(134,896,qs),
(134,1142,o),
(768,1362,o),
(1196,1362,qs),
(1626,1362,o),
(2140,1126,o),
(2096,874,q),
(1530,874,l),
(1542,944,o),
(1286,994,o),
(1132,994,qs),
(956,994,o),
(680,962,o),
(674,926,qs),
(668,889,o),
(1018,860,o),
(1290,840,qs),
(1760,806,o),
(2036,630,o),
(2024,470,qs),
(2004,208,o),
(1406,-8,o),
(974,-8,qs)
);
}
);
width = 2198;
}
);
unicode = 83;
},
{
color = 6;
glyphname = Germandbls;
kernLeft = H;
kernRight = S;
lastChange = "2023-03-03 15:00:28 +0000";
layers = (
{
anchors = (
{
name = bottom;
pos = (19,0);
},
{
name = top;
pos = (258,1350);
}
);
layerId = "4F53612F-C4F8-4368-83AD-8913BEEF8F1D";
shapes = (
{
closed = 1;
nodes = (
(172,1350,l),
(318,1350,l),
(314,1330,l),
(138,776,l),
(174,698,o),
(172,536,o),
(138,338,cs),
(94,86,o),
(40,0,o),
(-20,0,c),
(-16,22,l),
(32,22,o),
(76,106,o),
(116,334,cs),
(152,542,o),
(152,680,o),
(116,762,c),
(118,782,l),
(292,1330,l),
(190,1330,l),
(-46,0,l),
(-68,0,l)
);
}
);
width = 210;
},
{
anchors = (
{
name = bottom;
pos = (298,0);
},
{
name = top;
pos = (537,1350);
}
);
layerId = "55C4185A-9C39-4468-B19C-DE0A3E571700";
shapes = (
{
closed = 1;
nodes = (
(148,1350,l),
(922,1350,l),
(883,1128,l),
(718,726,l),
(786,668,o),
(780,545,o),
(758,418,cs),
(713,163,o),
(644,0,o),
(286,0,c),
(331,254,l),
(347,254,o),
(378,286,o),
(399,402,cs),
(417,506,o),
(401,560,o),
(386,576,c),
(430,830,l),
(531,1096,l),
(453,1096,l),
(260,0,l),
(-90,0,l)
);
}
);
width = 795;
},
{
anchors = (
{
name = bottom;
pos = (931,0);
},
{
name = top;
pos = (1170,1350);
}
);
layerId = "E5A4176B-9C10-4B01-BBC9-D7999ECBFAF8";
shapes = (
{
closed = 1;
nodes = (
(280,1350,l),
(1926,1350,l),
(1862,988,l),
(1397,756,l),
(1747,756,o),
(1927,676,o),
(1882,418,cs),
(1832,136,o),
(1640,0,o),
(790,0,c),
(851,344,l),
(1197,344,o),
(1297,356,o),
(1315,462,cs),
(1333,564,o),
(1110,566,o),
(890,566,c),
(940,850,l),
(1178,966,l),
(772,966,l),
(602,0,l),
(42,0,l)
);
}
);
width = 2063;
},
{
anchors = (
{
name = bottom;
pos = (672,0);
},
{
name = top;
pos = (911,1350);
}
);
layerId = "5997A0D0-E78E-41EC-9011-DECBEAD8517D";
shapes = (
{
closed = 1;
nodes = (
(269,1350,l),
(1535,1350,l),
(1531,1330,l),
(541,781,l),
(1319,792,o),
(1468,730,o),
(1466,483,cs),
(1463,91,o),
(1150,-46,o),
(371,0,c),
(375,22,l),
(1142,-24,o),
(1444,110,o),
(1444,483,cs),
(1444,715,o),
(1303,774,o),
(505,762,c),
(510,787,l),
(1490,1330,l),
(287,1330,l),
(53,0,l),
(31,0,l)
);
}
);
width = 1723;
}
);
metricLeft = H;
metricRight = S;
unicode = 7838;
},
{
color = 6;
glyphname = T;
kernLeft = T;
kernRight = T;
lastChange = "2023-03-03 15:00:28 +0000";
layers = (
{
anchors = (
{
name = bottom;
pos = (768,0);
},
{
name = center;
pos = (888,675);
},
{
name = top;
pos = (1007,1350);
}
);
layerId = "5997A0D0-E78E-41EC-9011-DECBEAD8517D";
shapes = (
{
closed = 1;
nodes = (
(995,1328,l),
(181,1328,l),
(185,1350,l),
(1831,1350,l),
(1827,1328,l),
(1017,1328,l),
(783,0,l),
(761,0,l)
);
}
);
width = 1902;
},
{
anchors = (
{
name = bottom;
pos = (212,0);
},
{
name = center;
pos = (332,675);
},
{
name = top;
pos = (451,1350);
}
);
layerId = "55C4185A-9C39-4468-B19C-DE0A3E571700";
shapes = (
{
closed = 1;
nodes = (
(227,1096,l),
(103,1096,l),
(148,1350,l),
(744,1350,l),
(699,1096,l),
(575,1096,l),
(382,0,l),
(34,0,l)
);
}
);
width = 620;
},
{
anchors = (
{
name = bottom;
pos = (-20,0);
},
{
name = center;
pos = (100,675);
},
{
name = top;
pos = (219,1350);
}
);
layerId = "4F53612F-C4F8-4368-83AD-8913BEEF8F1D";
shapes = (
{
closed = 1;
nodes = (
(200,1328,l),
(154,1328,l),
(156,1350,l),
(272,1350,l),
(268,1328,l),
(222,1328,l),
(-12,0,l),
(-34,0,l)
);
}
);
width = 148;
},
{
anchors = (
{
name = bottom;
pos = (959,0);
},
{
name = center;
pos = (1079,675);
},
{
name = top;
pos = (1198,1350);
}
);
layerId = "E5A4176B-9C10-4B01-BBC9-D7999ECBFAF8";
shapes = (
{
closed = 1;
nodes = (
(840,988,l),
(180,988,l),
(244,1350,l),
(2128,1350,l),
(2064,988,l),
(1406,988,l),
(1232,0,l),
(666,0,l)
);
}
);
width = 2137;
}
);
unicode = 84;
},
{
color = 3;
glyphname = Tbar;
kernLeft = T;
kernRight = T;
lastChange = "2023-03-03 15:00:28 +0000";
layers = (
{
layerId = "5997A0D0-E78E-41EC-9011-DECBEAD8517D";
shapes = (
{
closed = 1;
nodes = (
(306,850,l),
(1528,850,l),
(1524,828,l),
(302,828,l)
);
},
{
ref = T;
}
);
width = 1902;
},
{
layerId = "55C4185A-9C39-4468-B19C-DE0A3E571700";
shapes = (
{
closed = 1;
nodes = (
(103,920,l),
(651,920,l),
(609,696,l),
(59,696,l)
);
},
{
ref = T;
}
);
width = 620;
},
{
layerId = "4F53612F-C4F8-4368-83AD-8913BEEF8F1D";
shapes = (
{
closed = 1;
nodes = (
(102,988,l),
(212,988,l),
(208,966,l),
(98,966,l)
);
},
{
ref = T;
}
);
width = 152;
},
{
layerId = "E5A4176B-9C10-4B01-BBC9-D7999ECBFAF8";
shapes = (
{
closed = 1;
nodes = (
(338,804,l),
(1906,804,l),
(1854,500,l),
(286,500,l)
);
},
{
ref = T;
}
);
width = 2137;
}
);
metricLeft = T;
metricRight = T;
unicode = 358;
},
{
color = 6;
glyphname = U;
kernLeft = U;
kernRight = U;
lastChange = "2023-03-03 15:00:28 +0000";
layers = (
{
anchors = (
{
name = bottom;
pos = (887,0);
},
{
name = ogonek;
pos = (854,0);
},
{
name = top;
pos = (1131,1350);
},
{
name = topright;
pos = (1859,1192);
}
);
layerId = "5997A0D0-E78E-41EC-9011-DECBEAD8517D";
shapes = (
{
closed = 1;
nodes = (
(488,-7,o),
(118,289,o),
(175,612,qs),
(304,1348,l),
(326,1348,l),
(199,627,ls),
(143,309,o),
(491,15,o),
(861,15,qs),
(1231,15,o),
(1683,309,o),
(1739,627,qs),
(1866,1348,l),
(1888,1348,l),
(1759,612,ls),
(1702,289,o),
(1228,-7,o),
(858,-7,qs)
);
}
);
width = 2070;
},
{
anchors = (
{
name = bottom;
pos = (273,0);
},
{
name = ogonek;
pos = (284,0);
},
{
name = top;
pos = (512,1350);
},
{
name = topright;
pos = (842,1252);
}
);
layerId = "55C4185A-9C39-4468-B19C-DE0A3E571700";
shapes = (
{
closed = 1;
nodes = (
(70,-8,o),
(-69,120,o),
(-44,264,qs),
(148,1350,l),
(496,1350,l),
(313,312,ls),
(307,280,o),
(303,246,o),
(313,246,qs),
(323,246,o),
(331,280,o),
(337,312,qs),
(520,1350,l),
(868,1350,l),
(676,264,ls),
(651,120,o),
(466,-8,o),
(268,-8,qs)
);
}
);
width = 744;
},
{
anchors = (
{
name = bottom;
pos = (-10,0);
},
{
name = ogonek;
pos = (1,0);
},
{
name = top;
pos = (236,1350);
},
{
name = topright;
pos = (281,1302);
}
);
layerId = "4F53612F-C4F8-4368-83AD-8913BEEF8F1D";
shapes = (
{
closed = 1;
nodes = (
(-40,-12,o),
(-56,52,o),
(-38,156,qs),
(174,1350,l),
(196,1350,l),
(-16,160,ls),
(-34,60,o),
(-24,10,o),
(-6,10,qs),
(14,10,o),
(40,60,o),
(58,160,qs),
(268,1350,l),
(290,1350,l),
(80,156,ls),
(62,52,o),
(21,-12,o),
(-10,-12,qs)
);
}
);
width = 190;
},
{
anchors = (
{
name = bottom;
pos = (1042,0);
},
{
name = ogonek;
pos = (1022,0);
},
{
name = top;
pos = (1271,1350);
},
{
name = topright;
pos = (2206,1193);
}
);
layerId = "E5A4176B-9C10-4B01-BBC9-D7999ECBFAF8";
shapes = (
{
closed = 1;
nodes = (
(518,-8,o),
(74,306,o),
(140,682,qs),
(258,1350,l),
(824,1350,l),
(714,726,ls),
(677,518,o),
(823,354,o),
(1074,354,qs),
(1326,354,o),
(1529,516,o),
(1566,726,qs),
(1676,1350,l),
(2242,1350,l),
(2124,682,ls),
(2058,306,o),
(1502,-8,o),
(1010,-8,qs)
);
}
);
width = 2273;
}
);
unicode = 85;
},
{
color = 6;
glyphname = V;
kernLeft = V;
kernRight = V;
lastChange = "2023-03-03 15:00:28 +0000";
layers = (
{
anchors = (
{
name = bottom;
pos = (799,0);
},
{
name = top;
pos = (998,1350);
}
);
layerId = "5997A0D0-E78E-41EC-9011-DECBEAD8517D";
shapes = (
{
closed = 1;
nodes = (
(218,1350,l),
(244,1350,l),
(808,22,l),
(809,22,l),
(1844,1350,l),
(1872,1350,l),
(821,0,l),
(789,0,l)
);
}
);
width = 1934;
},
{
anchors = (
{
name = bottom;
pos = (291,0);
},
{
name = top;
pos = (530,1350);
}
);
layerId = "55C4185A-9C39-4468-B19C-DE0A3E571700";
shapes = (
{
closed = 1;
nodes = (
(149,1350,l),
(500,1350,l),
(324,250,l),
(328,250,l),
(542,1350,l),
(901,1350,l),
(563,0,l),
(11,0,l)
);
}
);
width = 772;
},
{
anchors = (
{
name = bottom;
pos = (-16,0);
},
{
name = top;
pos = (226,1350);
}
);
layerId = "4F53612F-C4F8-4368-83AD-8913BEEF8F1D";
shapes = (
{
closed = 1;
nodes = (
(150,1350,l),
(172,1350,l),
(-15,22,l),
(-13,22,l),
(272,1350,l),
(294,1350,l),
(1,0,l),
(-37,0,l)
);
}
);
width = 174;
},
{
anchors = (
{
name = bottom;
pos = (1011,0);
},
{
name = top;
pos = (1250,1350);
}
);
layerId = "E5A4176B-9C10-4B01-BBC9-D7999ECBFAF8";
shapes = (
{
closed = 1;
nodes = (
(189,1350,l),
(751,1350,l),
(1040,388,l),
(1042,388,l),
(1667,1350,l),
(2249,1350,l),
(1327,0,l),
(637,0,l)
);
}
);
width = 2232;
}
);
unicode = 86;
},
{
color = 6;
glyphname = V.ss01;
kernLeft = V;
kernRight = V;
lastChange = "2023-03-03 15:00:28 +0000";
layers = (
{
anchors = (
{
name = bottom;
pos = (-19,0);
},
{
name = top;
pos = (219,1350);
}
);
layerId = "4F53612F-C4F8-4368-83AD-8913BEEF8F1D";
shapes = (
{
closed = 1;
nodes = (
(76,924,l),
(151,1350,l),
(173,1350,l),
(98,924,l),
(-15,22,l),
(-7,22,l),
(198,924,l),
(273,1350,l),
(295,1350,l),
(220,924,l),
(7,0,l),
(-37,0,l)
);
}
);
width = 174;
},
{
anchors = (
{
name = bottom;
pos = (282,0);
},
{
name = top;
pos = (520,1350);
}
);
layerId = "55C4185A-9C39-4468-B19C-DE0A3E571700";
shapes = (
{
closed = 1;
nodes = (
(42,751,l),
(148,1350,l),
(504,1350,l),
(417,857,l),
(322,250,l),
(330,250,l),
(459,857,l),
(546,1350,l),
(900,1350,l),
(794,751,l),
(572,0,l),
(0,0,l)
);
}
);
width = 776;
},
{
anchors = (
{
name = bottom;
pos = (817,0);
},
{
name = top;
pos = (1053,1350);
}
);
layerId = "5997A0D0-E78E-41EC-9011-DECBEAD8517D";
shapes = (
{
closed = 1;
nodes = (
(116,727,l),
(226,1350,l),
(248,1350,l),
(140,737,l),
(816,22,l),
(817,22,l),
(1749,741,l),
(1857,1350,l),
(1879,1350,l),
(1769,727,l),
(827,0,l),
(798,0,l)
);
}
);
width = 1934;
},
{
anchors = (
{
name = bottom;
pos = (1013,0);
},
{
name = top;
pos = (1251,1350);
}
);
layerId = "E5A4176B-9C10-4B01-BBC9-D7999ECBFAF8";
shapes = (
{
closed = 1;
nodes = (
(93,743,l),
(200,1350,l),
(766,1350,l),
(672,815,l),
(1051,324,l),
(1053,324,l),
(1605,836,l),
(1694,1350,l),
(2260,1350,l),
(2150,725,l),
(1348,0,l),
(658,0,l)
);
}
);
width = 2232;
}
);
},
{
color = 6;
glyphname = W;
kernLeft = W;
kernRight = W;
lastChange = "2023-03-03 15:00:28 +0000";
layers = (
{
anchors = (
{
name = bottom;
pos = (1232,0);
},
{
name = top;
pos = (1471,1350);
}
);
layerId = "5997A0D0-E78E-41EC-9011-DECBEAD8517D";
shapes = (
{
closed = 1;
nodes = (
(248,1350,l),
(274,1350,l),
(570,25,l),
(571,25,l),
(1452,1350,l),
(1485,1350,l),
(1902,25,l),
(1903,25,l),
(2664,1350,l),
(2692,1350,l),
(1915,0,l),
(1884,0,l),
(1467,1328,l),
(1465,1328,l),
(582,0,l),
(551,0,l)
);
}
);
width = 2750;
},
{
anchors = (
{
name = bottom;
pos = (494,0);
},
{
name = top;
pos = (733,1350);
}
);
layerId = "55C4185A-9C39-4468-B19C-DE0A3E571700";
shapes = (
{
closed = 1;
nodes = (
(140,1350,l),
(493,1350,l),
(300,254,l),
(304,254,l),
(557,1350,l),
(915,1350,l),
(782,254,l),
(786,254,l),
(979,1350,l),
(1342,1350,l),
(1038,0,l),
(532,0,l),
(697,1086,l),
(693,1086,l),
(474,0,l),
(-32,0,l)
);
}
);
width = 1218;
},
{
anchors = (
{
name = bottom;
pos = (69,0);
},
{
name = top;
pos = (308,1350);
}
);
layerId = "4F53612F-C4F8-4368-83AD-8913BEEF8F1D";
shapes = (
{
closed = 1;
nodes = (
(172,1350,l),
(194,1350,l),
(-8,20,l),
(-4,20,l),
(278,1350,l),
(324,1350,l),
(134,20,l),
(138,20,l),
(410,1350,l),
(432,1350,l),
(154,0,l),
(110,0,l),
(300,1328,l),
(296,1328,l),
(12,0,l),
(-32,0,l)
);
}
);
width = 326;
},
{
anchors = (
{
name = bottom;
pos = (1494,0);
},
{
name = top;
pos = (1733,1350);
}
);
layerId = "E5A4176B-9C10-4B01-BBC9-D7999ECBFAF8";
shapes = (
{
closed = 1;
nodes = (
(171,1350,l),
(787,1350,l),
(843,407,l),
(845,407,l),
(1281,1350,l),
(2111,1350,l),
(2215,404,l),
(2217,404,l),
(2623,1350,l),
(3259,1350,l),
(2611,0,l),
(1725,0,l),
(1645,997,l),
(1643,997,l),
(1207,0,l),
(325,0,l)
);
}
);
width = 3220;
}
);
unicode = 87;
},
{
color = 6;
glyphname = X;
kernLeft = X;
kernRight = X;
lastChange = "2023-03-03 15:00:28 +0000";
layers = (
{
anchors = (
{
name = bottom;
pos = (747,0);
},
{
name = top;
pos = (986,1350);
}
);
layerId = "5997A0D0-E78E-41EC-9011-DECBEAD8517D";
shapes = (
{
closed = 1;
nodes = (
(904,668,l),
(253,1350,l),
(287,1350,l),
(929,675,l),
(1805,1350,l),
(1843,1350,l),
(952,668,l),
(1625,0,l),
(1591,0,l),
(927,661,l),
(29,0,l),
(-9,0,l)
);
}
);
width = 1908;
},
{
anchors = (
{
name = bottom;
pos = (303,0);
},
{
name = top;
pos = (542,1350);
}
);
layerId = "55C4185A-9C39-4468-B19C-DE0A3E571700";
shapes = (
{
closed = 1;
nodes = (
(118,668,l),
(144,1350,l),
(508,1350,l),
(444,814,l),
(568,1350,l),
(932,1350,l),
(718,668,l),
(700,0,l),
(336,0,l),
(392,522,l),
(264,0,l),
(-100,0,l)
);
}
);
width = 808;
},
{
anchors = (
{
name = bottom;
pos = (1,0);
},
{
name = top;
pos = (240,1350);
}
);
layerId = "4F53612F-C4F8-4368-83AD-8913BEEF8F1D";
shapes = (
{
closed = 1;
nodes = (
(96,668,l),
(164,1350,l),
(186,1350,l),
(118,682,l),
(286,1350,l),
(308,1350,l),
(134,668,l),
(72,0,l),
(50,0,l),
(112,654,l),
(-54,0,l),
(-78,0,l)
);
}
);
width = 190;
},
{
anchors = (
{
name = bottom;
pos = (1007,0);
},
{
name = top;
pos = (1246,1350);
}
);
layerId = "E5A4176B-9C10-4B01-BBC9-D7999ECBFAF8";
shapes = (
{
closed = 1;
nodes = (
(746,668,l),
(166,1350,l),
(850,1350,l),
(1168,906,l),
(1648,1350,l),
(2330,1350,l),
(1502,668,l),
(2110,0,l),
(1428,0,l),
(1084,430,l),
(590,0,l),
(-94,0,l)
);
}
);
width = 2204;
}
);
unicode = 88;
},
{
color = 6;
glyphname = Y;
kernLeft = Y;
kernRight = Y;
lastChange = "2023-03-08 13:54:18 +0000";
layers = (
{
anchors = (
{
name = bottom;
pos = (802,0);
},
{
name = top;
pos = (1067,1350);
},
{
name = topleft;
pos = (184,1350);
}
);
layerId = "5997A0D0-E78E-41EC-9011-DECBEAD8517D";
shapes = (
{
closed = 1;
nodes = (
(903,631,l),
(209,1350,l),
(239,1350,l),
(914,648,l),
(915,648,l),
(1837,1350,l),
(1871,1350,l),
(925,631,l),
(813,0,l),
(791,0,l)
);
}
);
width = 1962;
},
{
anchors = (
{
name = bottom;
pos = (291,0);
},
{
name = top;
pos = (539,1350);
},
{
name = topleft;
pos = (164,1350);
}
);
layerId = "55C4185A-9C39-4468-B19C-DE0A3E571700";
shapes = (
{
closed = 1;
nodes = (
(190,411,l),
(132,1350,l),
(484,1350,l),
(430,802,l),
(434,802,l),
(572,1350,l),
(924,1350,l),
(538,416,l),
(465,0,l),
(117,0,l)
);
}
);
width = 792;
},
{
anchors = (
{
name = bottom;
pos = (-17,0);
},
{
name = top;
pos = (223,1350);
},
{
name = topleft;
pos = (158,1350);
}
);
layerId = "4F53612F-C4F8-4368-83AD-8913BEEF8F1D";
shapes = (
{
closed = 1;
nodes = (
(61,508,l),
(156,1350,l),
(178,1350,l),
(81,568,l),
(83,568,l),
(263,1350,l),
(284,1350,l),
(84,510,l),
(-6,0,l),
(-28,0,l)
);
}
);
width = 160;
},
{
anchors = (
{
name = bottom;
pos = (1015,0);
},
{
name = top;
pos = (1274,1350);
},
{
name = topleft;
pos = (164,1350);
}
);
layerId = "E5A4176B-9C10-4B01-BBC9-D7999ECBFAF8";
shapes = (
{
closed = 1;
nodes = (
(830,541,l),
(111,1350,l),
(737,1350,l),
(1159,857,l),
(1161,857,l),
(1751,1350,l),
(2397,1350,l),
(1394,541,l),
(1299,0,l),
(735,0,l)
);
}
);
width = 2285;
}
);
note = Y;
unicode = 89;
},
{
color = 6;
glyphname = Z;
kernLeft = Z;
kernRight = Z;
lastChange = "2023-03-03 15:00:28 +0000";
layers = (
{
anchors = (
{
name = bottom;
pos = (711,0);
},
{
name = center;
pos = (831,675);
},
{
name = top;
pos = (950,1350);
}
);
layerId = "5997A0D0-E78E-41EC-9011-DECBEAD8517D";
shapes = (
{
closed = 1;
nodes = (
(32,32,l),
(1655,1326,l),
(274,1326,l),
(278,1350,l),
(1693,1350,l),
(1688,1323,l),
(64,24,l),
(1541,24,l),
(1537,0,l),
(26,0,l)
);
}
);
width = 1833;
},
{
anchors = (
{
name = bottom;
pos = (157,0);
},
{
name = center;
pos = (277,675);
},
{
name = top;
pos = (396,1350);
}
);
layerId = "55C4185A-9C39-4468-B19C-DE0A3E571700";
shapes = (
{
closed = 1;
nodes = (
(-44,254,l),
(271,1100,l),
(119,1100,l),
(163,1350,l),
(631,1350,l),
(587,1100,l),
(273,250,l),
(439,250,l),
(395,0,l),
(-89,0,l)
);
}
);
width = 508;
},
{
anchors = (
{
name = bottom;
pos = (-28,0);
},
{
name = center;
pos = (92,675);
},
{
name = top;
pos = (211,1350);
}
);
layerId = "4F53612F-C4F8-4368-83AD-8913BEEF8F1D";
shapes = (
{
closed = 1;
nodes = (
(-72,20,l),
(216,1328,l),
(160,1328,l),
(164,1350,l),
(242,1350,l),
(238,1330,l),
(-50,22,l),
(14,22,l),
(10,0,l),
(-76,0,l)
);
}
);
width = 148;
},
{
anchors = (
{
name = bottom;
pos = (903,0);
},
{
name = center;
pos = (1023,675);
},
{
name = top;
pos = (1142,1350);
}
);
layerId = "E5A4176B-9C10-4B01-BBC9-D7999ECBFAF8";
shapes = (
{
closed = 1;
nodes = (
(46,380,l),
(1184,990,l),
(170,990,l),
(233,1350,l),
(1943,1350,l),
(1878,984,l),
(739,364,l),
(1787,364,l),
(1723,0,l),
(-21,0,l)
);
}
);
width = 1995;
}
);
unicode = 90;
},
{
color = 6;
glyphname = a;
kernLeft = a;
kernRight = n;
lastChange = "2023-03-03 15:00:28 +0000";
layers = (
{
anchors = (
{
name = bottom;
pos = (697,0);
},
{
name = ogonek;
pos = (1425,0);
},
{
name = top;
pos = (950,1172);
}
);
layerId = "5997A0D0-E78E-41EC-9011-DECBEAD8517D";
shapes = (
{
closed = 1;
nodes = (
(328,-11,o),
(77,55,o),
(77,307,cs),
(77,602,o),
(448,665,o),
(738,665,cs),
(1520,665,l),
(1540,773,ls),
(1584,1013,o),
(1334,1155,o),
(931,1155,cs),
(561,1155,o),
(293,1033,o),
(208,830,c),
(183,830,l),
(271,1048,o),
(558,1177,o),
(935,1177,cs),
(1349,1177,o),
(1606,1026,o),
(1562,777,cs),
(1425,0,l),
(1403,0,l),
(1456,301,l),
(1402,198,o),
(1149,-11,o),
(646,-11,cs)
);
},
{
closed = 1;
nodes = (
(1109,11,o),
(1375,187,o),
(1464,346,c),
(1517,643,l),
(736,643,ls),
(459,643,o),
(101,584,o),
(101,312,cs),
(101,73,o),
(344,11,o),
(650,11,cs)
);
}
);
width = 1771;
},
{
anchors = (
{
name = bottom;
pos = (280,0);
},
{
name = ogonek;
pos = (643,0);
},
{
name = top;
pos = (501,1200);
}
);
layerId = "55C4185A-9C39-4468-B19C-DE0A3E571700";
shapes = (
{
closed = 1;
nodes = (
(-18,-10,o),
(-89,35,o),
(-31,360,cs),
(20,651,o),
(75,722,o),
(235,722,cs),
(420,722,l),
(430,774,ls),
(461,934,o),
(461,955,o),
(449,955,cs),
(437,955,o),
(430,935,o),
(402,774,c),
(42,774,l),
(106,1139,o),
(247,1211,o),
(495,1211,cs),
(743,1211,o),
(845,1141,o),
(781,780,cs),
(643,0,l),
(389,0,l),
(362,81,l),
(342,41,o),
(257,-10,o),
(163,-10,cs)
);
},
{
closed = 1;
nodes = (
(327,244,o),
(334,249,o),
(339,259,c),
(384,513,l),
(377,513,ls),
(363,513,o),
(350,508,o),
(327,380,cs),
(306,258,o),
(309,244,o),
(322,244,cs)
);
}
);
width = 762;
},
{
anchors = (
{
name = bottom;
pos = (6,0);
},
{
name = ogonek;
pos = (59,0);
},
{
name = top;
pos = (214,1200);
}
);
layerId = "4F53612F-C4F8-4368-83AD-8913BEEF8F1D";
shapes = (
{
closed = 1;
nodes = (
(-57,-6,o),
(-54,44,o),
(-1,340,cs),
(50,632,o),
(65,686,o),
(130,686,cs),
(158,686,l),
(172,770,ls),
(229,1092,o),
(245,1190,o),
(210,1190,cs),
(175,1190,o),
(153,1092,o),
(96,769,c),
(74,769,l),
(136,1121,o),
(156,1212,o),
(213,1212,cs),
(270,1212,o),
(256,1121,o),
(194,770,cs),
(59,0,l),
(39,0,l),
(45,39,l),
(33,16,o),
(16,-6,o),
(-8,-6,cs)
);
},
{
closed = 1;
nodes = (
(20,16,o),
(42,60,o),
(51,81,c),
(154,664,l),
(130,664,ls),
(86,664,o),
(69,613,o),
(21,340,cs),
(-27,68,o),
(-29,16,o),
(-3,16,cs)
);
}
);
width = 200;
},
{
anchors = (
{
name = bottom;
pos = (980,0);
},
{
name = ogonek;
pos = (1870,0);
},
{
name = top;
pos = (1149,1172);
}
);
layerId = "E5A4176B-9C10-4B01-BBC9-D7999ECBFAF8";
shapes = (
{
closed = 1;
nodes = (
(268,-20,o),
(40,109,o),
(40,330,cs),
(40,667,o),
(546,726,o),
(899,726,cs),
(1439,726,l),
(1439,729,ls),
(1439,799,o),
(1314,840,o),
(1078,840,cs),
(917,840,o),
(733,804,o),
(663,758,c),
(185,1009,l),
(339,1102,o),
(766,1184,o),
(1114,1184,cs),
(1724,1184,o),
(2046,1003,o),
(1988,673,cs),
(1869,0,l),
(1373,0,l),
(1363,165,l),
(1254,55,o),
(989,-20,o),
(711,-20,cs)
);
},
{
closed = 1;
nodes = (
(1046,298,o),
(1278,364,o),
(1377,452,c),
(1377,454,l),
(887,454,ls),
(697,454,o),
(604,432,o),
(604,377,cs),
(604,327,o),
(680,298,o),
(850,298,cs)
);
}
);
width = 2150;
}
);
unicode = 97;
},
{
color = 6;
glyphname = a.ss01;
kernLeft = o;
kernRight = l;
lastChange = "2023-03-03 15:00:28 +0000";
layers = (
{
anchors = (
{
name = bottom;
pos = (784,0);
},
{
name = ogonek;
pos = (1429,0);
},
{
name = top;
pos = (959,1172);
}
);
layerId = "5997A0D0-E78E-41EC-9011-DECBEAD8517D";
shapes = (
{
closed = 1;
nodes = (
(1546,792,l),
(1613,1168,l),
(1635,1168,l),
(1429,0,l),
(1407,0,l)
);
},
{
closed = 1;
nodes = (
(408,-10,o),
(48,286,o),
(101,586,qs),
(154,886,o),
(618,1182,o),
(922,1182,qs),
(1228,1182,o),
(1572,902,o),
(1550,780,q),
(1531,703,l),
(1562,879,o),
(1212,1160,o),
(918,1160,qs),
(624,1160,o),
(176,876,o),
(125,586,qs),
(74,296,o),
(422,12,o),
(716,12,qs),
(1010,12,o),
(1458,293,o),
(1489,469,q),
(1482,392,l),
(1460,270,o),
(1018,-10,o),
(712,-10,qs)
);
}
);
width = 1752;
},
{
anchors = (
{
name = bottom;
pos = (270,0);
},
{
name = ogonek;
pos = (431,0);
},
{
name = top;
pos = (464,1200);
}
);
layerId = "55C4185A-9C39-4468-B19C-DE0A3E571700";
shapes = (
{
closed = 1;
nodes = (
(463,1043,l),
(582,1200,l),
(835,1200,l),
(623,0,l),
(279,0,l)
);
},
{
closed = 1;
nodes = (
(-92,-5,o),
(-23,386,o),
(15,602,qs),
(53,818,o),
(122,1207,o),
(328,1207,qs),
(446,1207,o),
(635,1057,o),
(600,857,q),
(409,739,l),
(432,865,o),
(447,955,o),
(433,955,qs),
(419,955,o),
(404,865,o),
(357,602,qs),
(310,334,o),
(294,244,o),
(308,244,qs),
(322,244,o),
(338,334,o),
(361,464,q),
(471,352,l),
(436,152,o),
(232,-5,o),
(114,-5,qs)
);
}
);
width = 733;
},
{
anchors = (
{
name = bottom;
pos = (-5,0);
},
{
name = ogonek;
pos = (58,0);
},
{
name = top;
pos = (216,1200);
}
);
layerId = "4F53612F-C4F8-4368-83AD-8913BEEF8F1D";
shapes = (
{
closed = 1;
nodes = (
(238,1095,l),
(256,1200,l),
(278,1200,l),
(67,0,l),
(45,0,l)
);
},
{
closed = 1;
nodes = (
(-62,-6,o),
(-19,238,o),
(45,602,qs),
(109,968,o),
(152,1212,o),
(200,1212,qs),
(233,1212,o),
(248,1106,o),
(239,1056,q),
(225,1024,l),
(233,1068,o),
(220,1190,o),
(199,1190,qs),
(171,1190,o),
(130,960,o),
(67,602,qs),
(4,246,o),
(-37,16,o),
(-9,16,qs),
(12,16,o),
(69,138,o),
(77,182,q),
(78,140,l),
(70,90,o),
(19,-6,o),
(-14,-6,qs)
);
}
);
width = 205;
},
{
anchors = (
{
name = bottom;
pos = (1002,0);
},
{
name = ogonek;
pos = (1437,0);
},
{
name = top;
pos = (1192,1072);
}
);
layerId = "E5A4176B-9C10-4B01-BBC9-D7999ECBFAF8";
shapes = (
{
closed = 1;
nodes = (
(1496,1029,l),
(1643,1172,l),
(2087,1172,l),
(1881,0,l),
(1315,0,l)
);
},
{
closed = 1;
nodes = (
(407,-10,o),
(14,280,o),
(69,590,qs),
(123,900,o),
(617,1182,o),
(941,1182,qs),
(1280,1182,o),
(1716,935,o),
(1704,870,q),
(1430,630,l),
(1440,690,o),
(1204,820,o),
(1047,820,qs),
(871,820,o),
(657,693,o),
(638,586,qs),
(619,479,o),
(789,352,o),
(965,352,qs),
(1122,352,o),
(1404,482,o),
(1414,542,q),
(1591,342,l),
(1580,277,o),
(1070,-10,o),
(731,-10,qs)
);
}
);
width = 2182;
}
);
metricLeft = d;
metricRight = d;
},
{
color = 3;
glyphname = ae;
kernLeft = a;
kernRight = e;
lastChange = "2023-03-03 15:00:28 +0000";
layers = (
{
anchors = (
{
name = bottom;
pos = (1403,0);
},
{
name = top;
pos = (1571,1172);
}
);
layerId = "5997A0D0-E78E-41EC-9011-DECBEAD8517D";
shapes = (
{
closed = 1;
nodes = (
(1438,595,l),
(1441,610,l),
(1449,656,ls),
(1492,906,o),
(1201,1156,o),
(919,1156,qs),
(605,1156,o),
(213,929,o),
(189,791,q),
(163,791,l),
(189,942,o),
(593,1178,o),
(918,1178,qs),
(1209,1178,o),
(1517,917,o),
(1473,669,qs),
(1460,596,l)
);
},
{
closed = 1;
nodes = (
(316,-11,o),
(58,160,o),
(73,311,qs),
(87,456,o),
(417,603,o),
(768,603,qs),
(1051,603,o),
(1444,603,q),
(1441,581,l),
(1038,581,o),
(767,581,qs),
(437,581,o),
(111,450,o),
(97,311,qs),
(83,174,o),
(324,11,o),
(620,11,qs),
(938,11,o),
(1379,263,o),
(1436,582,q),
(1458,582,l),
(1399,248,o),
(945,-11,o),
(619,-11,qs)
);
},
{
alignment = -1;
pos = (1308,0);
ref = e;
}
);
width = 3139;
},
{
anchors = (
{
name = bottom;
pos = (462,0);
},
{
name = top;
pos = (668,1200);
}
);
layerId = "55C4185A-9C39-4468-B19C-DE0A3E571700";
shapes = (
{
closed = 1;
nodes = (
(393,182,l),
(327,182,l),
(434,789,ls),
(457,921,o),
(469,985,o),
(455,985,qs),
(441,985,o),
(429,919,o),
(394,720,q),
(44,720,l),
(79,919,o),
(131,1211,o),
(495,1211,qs),
(858,1211,o),
(805,917,o),
(780,775,qs),
(669,148,l)
);
},
{
closed = 1;
nodes = (
(37,-10,o),
(-72,130,o),
(-35,339,qs),
(2,552,o),
(147,672,o),
(270,672,qs),
(346,672,o),
(422,672,q),
(381,442,l),
(379,442,o),
(367,442,qs),
(345,442,o),
(336,390,o),
(324,324,qs),
(316,281,o),
(305,214,o),
(319,214,qs),
(333,214,o),
(344,278,o),
(374,450,q),
(556,314,l),
(529,148,o),
(427,-10,o),
(193,-10,qs)
);
},
{
alignment = -1;
pos = (381,0);
ref = e;
}
);
width = 1129;
},
{
anchors = (
{
name = bottom;
pos = (56,0);
},
{
name = top;
pos = (254,1200);
}
);
layerId = "4F53612F-C4F8-4368-83AD-8913BEEF8F1D";
shapes = (
{
closed = 1;
nodes = (
(57,104,l),
(62,140,l),
(178,800,ls),
(210,983,o),
(246,1188,o),
(208,1188,qs),
(170,1188,o),
(135,986,o),
(91,740,q),
(69,740,l),
(114,992,o),
(152,1210,o),
(212,1210,qs),
(272,1210,o),
(234,991,o),
(201,806,qs),
(76,96,l)
);
},
{
closed = 1;
nodes = (
(-62,-6,o),
(-34,151,o),
(-12,277,qs),
(21,468,o),
(47,616,o),
(123,616,qs),
(143,616,o),
(157,616,q),
(154,594,l),
(127,594,o),
(111,594,qs),
(67,594,o),
(45,476,o),
(10,276,qs),
(-12,149,o),
(-34,16,o),
(-8,16,qs),
(14,16,o),
(51,78,o),
(71,192,q),
(91,192,l),
(70,76,o),
(28,-6,o),
(-12,-6,qs)
);
},
{
alignment = -1;
pos = (98,0);
ref = e;
}
);
width = 298;
},
{
anchors = (
{
name = bottom;
pos = (1588,0);
},
{
name = top;
pos = (1808,1172);
}
);
layerId = "E5A4176B-9C10-4B01-BBC9-D7999ECBFAF8";
shapes = (
{
closed = 1;
nodes = (
(1442,286,l),
(1381,336,l),
(1443,688,ls),
(1455,757,o),
(1263,838,o),
(1101,838,qs),
(959,838,o),
(770,802,o),
(697,760,q),
(229,1014,l),
(357,1073,o),
(827,1182,o),
(1156,1182,qs),
(1490,1182,o),
(1968,940,o),
(1913,624,qs),
(1854,286,l)
);
},
{
closed = 1;
nodes = (
(396,-19,o),
(11,188,o),
(41,362,qs),
(78,568,o),
(551,716,o),
(860,716,qs),
(1092,716,o),
(1472,716,q),
(1423,442,l),
(1161,442,o),
(985,442,qs),
(785,442,o),
(625,406,o),
(619,374,qs),
(614,344,o),
(731,298,o),
(940,298,qs),
(1148,298,o),
(1398,408,o),
(1410,475,q),
(1676,340,l),
(1611,162,o),
(1062,-19,o),
(716,-19,qs)
);
},
{
alignment = -1;
pos = (1344,0);
ref = e;
}
);
width = 3490;
}
);
metricLeft = a;
metricRight = e;
unicode = 230;
},
{
color = 6;
glyphname = b;
kernLeft = h;
kernRight = o;
lastChange = "2023-03-03 15:00:28 +0000";
layers = (
{
anchors = (
{
name = bottom;
pos = (720,0);
},
{
name = top;
pos = (981,1570);
}
);
layerId = "5997A0D0-E78E-41EC-9011-DECBEAD8517D";
shapes = (
{
closed = 1;
nodes = (
(335,1570,l),
(357,1570,l),
(139,328,l),
(81,0,l),
(59,0,l)
);
},
{
closed = 1;
nodes = (
(478,-10,o),
(122,270,o),
(144,392,q),
(162,469,l),
(131,293,o),
(489,12,o),
(785,12,qs),
(1077,12,o),
(1519,306,o),
(1568,586,qs),
(1617,866,o),
(1283,1160,o),
(987,1160,qs),
(695,1160,o),
(235,879,o),
(204,703,q),
(212,780,l),
(234,902,o),
(682,1182,o),
(988,1182,qs),
(1292,1182,o),
(1643,876,o),
(1592,586,qs),
(1541,296,o),
(1088,-10,o),
(784,-10,qs)
);
}
);
width = 1811;
},
{
anchors = (
{
name = bottom;
pos = (272,0);
},
{
name = top;
pos = (544,1570);
}
);
layerId = "55C4185A-9C39-4468-B19C-DE0A3E571700";
shapes = (
{
closed = 1;
nodes = (
(186,1570,l),
(530,1570,l),
(284,168,l),
(194,0,l),
(-90,0,l)
);
},
{
closed = 1;
nodes = (
(299,-5,o),
(109,142,o),
(144,342,q),
(336,464,l),
(312,330,o),
(297,244,o),
(311,244,qs),
(325,244,o),
(340,330,o),
(388,602,qs),
(435,865,o),
(450,955,o),
(436,955,qs),
(422,955,o),
(407,865,o),
(384,739,q),
(235,857,l),
(270,1057,o),
(513,1207,o),
(631,1207,qs),
(837,1207,o),
(768,818,o),
(730,602,qs),
(692,386,o),
(623,-5,o),
(417,-5,qs)
);
}
);
width = 739;
},
{
anchors = (
{
name = bottom;
pos = (-3,0);
},
{
name = top;
pos = (258,1570);
}
);
layerId = "4F53612F-C4F8-4368-83AD-8913BEEF8F1D";
shapes = (
{
closed = 1;
nodes = (
(206,1570,l),
(228,1570,l),
(-38,72,l),
(-52,0,l),
(-72,0,l)
);
},
{
closed = 1;
nodes = (
(-25,-6,o),
(-40,100,o),
(-31,150,q),
(-19,182,l),
(-27,138,o),
(-12,16,o),
(9,16,qs),
(37,16,o),
(78,246,o),
(141,602,qs),
(204,960,o),
(245,1190,o),
(217,1190,qs),
(196,1190,o),
(139,1068,o),
(131,1024,q),
(131,1056,l),
(140,1106,o),
(189,1212,o),
(220,1212,qs),
(270,1212,o),
(227,968,o),
(163,602,qs),
(99,238,o),
(56,-6,o),
(8,-6,qs)
);
}
);
width = 192;
},
{
anchors = (
{
name = bottom;
pos = (1016,0);
},
{
name = top;
pos = (1277,1570);
}
);
layerId = "E5A4176B-9C10-4B01-BBC9-D7999ECBFAF8";
shapes = (
{
closed = 1;
nodes = (
(314,1570,l),
(874,1570,l),
(626,156,l),
(578,0,l),
(38,0,l)
);
},
{
closed = 1;
nodes = (
(843,-10,o),
(407,237,o),
(419,302,q),
(693,542,l),
(683,482,o),
(919,352,o),
(1076,352,qs),
(1252,352,o),
(1475,487,o),
(1485,595,qs),
(1494,692,o),
(1334,820,o),
(1158,820,qs),
(1001,820,o),
(719,690,o),
(709,630,q),
(519,870,l),
(531,935,o),
(1053,1182,o),
(1392,1182,qs),
(1716,1182,o),
(2081,890,o),
(2056,610,qs),
(2028,296,o),
(1506,-10,o),
(1182,-10,qs)
);
}
);
width = 2175;
}
);
metricLeft = h;
metricRight = o;
unicode = 98;
},
{
color = 6;
glyphname = c;
kernLeft = o;
kernRight = c;
lastChange = "2023-03-03 15:00:28 +0000";
layers = (
{
anchors = (
{
name = bottom;
pos = (762,0);
},
{
name = top;
pos = (969,1172);
}
);
layerId = "5997A0D0-E78E-41EC-9011-DECBEAD8517D";
shapes = (
{
closed = 1;
nodes = (
(462,-11,o),
(104,261,o),
(104,504,qs),
(104,850,o),
(598,1177,o),
(959,1177,qs),
(1277,1177,o),
(1605,935,o),
(1599,789,q),
(1575,789,l),
(1578,920,o),
(1272,1155,o),
(961,1155,qs),
(605,1155,o),
(128,835,o),
(128,504,qs),
(128,279,o),
(468,11,o),
(769,11,qs),
(1079,11,o),
(1478,236,o),
(1503,379,q),
(1527,379,l),
(1500,223,o),
(1089,-11,o),
(771,-11,qs)
);
}
);
width = 1783;
},
{
anchors = (
{
name = bottom;
pos = (275,0);
},
{
name = top;
pos = (486,1200);
}
);
layerId = "55C4185A-9C39-4468-B19C-DE0A3E571700";
shapes = (
{
closed = 1;
nodes = (
(-90,-10,o),
(-29,336,o),
(17,596,qs),
(63,856,o),
(126,1211,o),
(486,1211,qs),
(850,1211,o),
(786,852,o),
(749,642,q),
(399,642,l),
(439,865,o),
(455,955,o),
(441,955,qs),
(427,955,o),
(411,865,o),
(363,596,qs),
(317,334,o),
(301,244,o),
(315,244,qs),
(329,244,o),
(345,334,o),
(383,550,q),
(733,550,l),
(698,350,o),
(634,-10,o),
(270,-10,qs)
);
}
);
width = 750;
},
{
anchors = (
{
name = bottom;
pos = (4,0);
},
{
name = top;
pos = (212,1200);
}
);
layerId = "4F53612F-C4F8-4368-83AD-8913BEEF8F1D";
shapes = (
{
closed = 1;
nodes = (
(-61,-6,o),
(-3,323,o),
(46,601,qs),
(106,943,o),
(153,1212,o),
(213,1212,qs),
(273,1212,o),
(226,943,o),
(190,737,q),
(168,737,l),
(203,937,o),
(248,1190,o),
(210,1190,qs),
(172,1190,o),
(127,937,o),
(68,601,qs),
(20,329,o),
(-36,16,o),
(2,16,qs),
(40,16,o),
(96,329,o),
(120,465,q),
(142,465,l),
(117,323,o),
(59,-6,o),
(-1,-6,qs)
);
}
);
width = 198;
},
{
anchors = (
{
name = bottom;
pos = (894,0);
},
{
name = top;
pos = (1100,1172);
}
);
layerId = "E5A4176B-9C10-4B01-BBC9-D7999ECBFAF8";
shapes = (
{
closed = 1;
nodes = (
(519,-16,o),
(57,248,o),
(57,512,qs),
(57,863,o),
(711,1182,o),
(1117,1182,qs),
(1419,1182,o),
(1892,1030,o),
(1933,982,q),
(1433,698,l),
(1418,725,o),
(1217,820,o),
(1063,820,qs),
(913,820,o),
(631,694,o),
(631,554,qs),
(631,458,o),
(829,344,o),
(979,344,qs),
(1133,344,o),
(1368,439,o),
(1392,466,q),
(1790,170,l),
(1732,122,o),
(1227,-16,o),
(925,-16,qs)
);
}
);
width = 1978;
}
);
unicode = 99;
},
{
color = 6;
glyphname = d;
kernLeft = o;
kernRight = l;
lastChange = "2023-03-03 15:00:28 +0000";
layers = (
{
anchors = (
{
name = bottom;
pos = (917,0);
},
{
name = center;
pos = (1433,1381);
},
{
name = top;
pos = (952,1167);
},
{
name = topright;
pos = (1911,1570);
}
);
layerId = "5997A0D0-E78E-41EC-9011-DECBEAD8517D";
shapes = (
{
closed = 1;
nodes = (
(1477,328,l),
(1695,1570,l),
(1717,1570,l),
(1441,0,l),
(1419,0,l)
);
},
{
closed = 1;
nodes = (
(444,-10,o),
(97,260,o),
(97,484,qs),
(97,836,o),
(575,1182,o),
(928,1182,qs),
(1231,1182,o),
(1583,902,o),
(1561,780,q),
(1544,703,l),
(1575,879,o),
(1225,1160,o),
(931,1160,qs),
(591,1160,o),
(121,826,o),
(121,484,qs),
(121,270,o),
(455,12,o),
(729,12,qs),
(1023,12,o),
(1471,293,o),
(1502,469,q),
(1497,392,l),
(1475,270,o),
(1034,-10,o),
(728,-10,qs)
);
}
);
width = 1764;
},
{
anchors = (
{
name = bottom;
pos = (270,0);
},
{
name = center;
pos = (365,536);
},
{
name = top;
pos = (531,1480);
},
{
name = topright;
pos = (808,1072);
}
);
layerId = "55C4185A-9C39-4468-B19C-DE0A3E571700";
shapes = (
{
closed = 1;
nodes = (
(309,168,l),
(555,1570,l),
(899,1570,l),
(623,0,l),
(339,0,l)
);
},
{
closed = 1;
nodes = (
(-92,-5,o),
(-23,386,o),
(15,602,qs),
(53,818,o),
(122,1207,o),
(328,1207,qs),
(446,1207,o),
(635,1057,o),
(600,857,q),
(409,739,l),
(432,865,o),
(447,955,o),
(433,955,qs),
(419,955,o),
(404,865,o),
(357,602,qs),
(310,334,o),
(294,244,o),
(308,244,qs),
(322,244,o),
(338,334,o),
(361,464,q),
(509,342,l),
(474,142,o),
(232,-5,o),
(114,-5,qs)
);
}
);
width = 733;
},
{
anchors = (
{
name = bottom;
pos = (6,0);
},
{
name = center;
pos = (101,536);
},
{
name = top;
pos = (267,1480);
},
{
name = topright;
pos = (280,1072);
}
);
layerId = "4F53612F-C4F8-4368-83AD-8913BEEF8F1D";
shapes = (
{
closed = 1;
nodes = (
(57,72,l),
(321,1570,l),
(343,1570,l),
(67,0,l),
(47,0,l)
);
},
{
closed = 1;
nodes = (
(-62,-6,o),
(-19,238,o),
(45,602,qs),
(109,968,o),
(152,1212,o),
(200,1212,qs),
(233,1212,o),
(246,1106,o),
(237,1056,q),
(225,1024,l),
(233,1068,o),
(220,1190,o),
(199,1190,qs),
(171,1190,o),
(130,960,o),
(67,602,qs),
(4,246,o),
(-37,16,o),
(-9,16,qs),
(12,16,o),
(69,138,o),
(77,182,q),
(78,150,l),
(69,100,o),
(19,-6,o),
(-14,-6,qs)
);
}
);
width = 205;
},
{
anchors = (
{
name = bottom;
pos = (1008,0);
},
{
name = center;
pos = (1800,1326);
},
{
name = top;
pos = (980,1172);
},
{
name = topright;
pos = (2320,1570);
}
);
layerId = "E5A4176B-9C10-4B01-BBC9-D7999ECBFAF8";
shapes = (
{
closed = 1;
nodes = (
(1345,156,l),
(1593,1570,l),
(2149,1570,l),
(1873,0,l),
(1317,0,l)
);
},
{
closed = 1;
nodes = (
(436,-10,o),
(64,257,o),
(64,494,qs),
(64,835,o),
(596,1182,o),
(940,1182,qs),
(1279,1182,o),
(1715,935,o),
(1703,870,q),
(1429,630,l),
(1439,690,o),
(1203,820,o),
(1046,820,qs),
(870,820,o),
(646,693,o),
(637,586,qs),
(628,478,o),
(788,352,o),
(964,352,qs),
(1121,352,o),
(1403,482,o),
(1413,542,q),
(1603,302,l),
(1591,237,o),
(1079,-10,o),
(740,-10,qs)
);
}
);
width = 2174;
}
);
metricLeft = o;
unicode = 100;
},
{
color = 6;
glyphname = eth;
kernLeft = o;
kernRight = o;
lastChange = "2023-03-03 15:00:28 +0000";
layers = (
{
layerId = "5997A0D0-E78E-41EC-9011-DECBEAD8517D";
shapes = (
{
closed = 1;
nodes = (
(396,-11,o),
(84,313,o),
(121,584,qs),
(158,853,o),
(591,1177,o),
(925,1177,qs),
(1251,1177,o),
(1580,863,o),
(1531,584,qs),
(1482,305,o),
(1056,-11,o),
(726,-11,qs)
);
},
{
closed = 1;
nodes = (
(1047,11,o),
(1460,320,o),
(1507,584,qs),
(1554,848,o),
(1249,1155,o),
(927,1155,qs),
(605,1155,o),
(180,845,o),
(145,584,qs),
(111,328,o),
(401,11,o),
(725,11,qs)
);
},
{
closed = 1;
nodes = (
(1509,584,l),
(1626,1247,o),
(1208,1492,o),
(680,1498,c),
(687,1518,l),
(1173,1510,o),
(1380,1319,o),
(1476,1142,cs),
(1559,989,o),
(1565,776,o),
(1531,584,c)
);
},
{
closed = 1;
nodes = (
(864,1361,l),
(998,1576,l),
(1018,1569,l),
(883,1351,l)
);
}
);
width = 1835;
},
{
layerId = "55C4185A-9C39-4468-B19C-DE0A3E571700";
shapes = (
{
closed = 1;
nodes = (
(-94,-10,o),
(-26,375,o),
(14,601,qs),
(54,827,o),
(122,1211,o),
(480,1211,qs),
(838,1211,o),
(770,827,o),
(730,601,qs),
(690,375,o),
(622,-10,o),
(264,-10,qs)
);
},
{
closed = 1;
nodes = (
(323,244,o),
(340,339,o),
(386,601,qs),
(432,863,o),
(449,957,o),
(435,957,qs),
(421,957,o),
(404,863,o),
(358,601,qs),
(312,339,o),
(295,244,o),
(309,244,qs)
);
},
{
closed = 1;
nodes = (
(467,856,l),
(532,1222,o),
(510,1361,o),
(264,1361,c),
(366,1585,l),
(615,1569,o),
(871,1401,o),
(798,988,cs),
(786,920,o),
(761,774,o),
(745,686,c)
);
},
{
closed = 1;
nodes = (
(313,1289,l),
(546,1619,l),
(682,1575,l),
(443,1241,l)
);
}
);
width = 738;
},
{
layerId = "4F53612F-C4F8-4368-83AD-8913BEEF8F1D";
shapes = (
{
closed = 1;
nodes = (
(-63,-6,o),
(-19,248,o),
(43,596,qs),
(104,944,o),
(150,1205,o),
(204,1205,qs),
(258,1205,o),
(212,944,o),
(151,596,qs),
(89,248,o),
(45,-6,o),
(-9,-6,qs)
);
},
{
closed = 1;
nodes = (
(27,16,o),
(68,254,o),
(129,596,qs),
(189,938,o),
(232,1183,o),
(200,1183,qs),
(168,1183,o),
(125,938,o),
(65,596,qs),
(4,254,o),
(-37,16,o),
(-5,16,qs)
);
},
{
closed = 1;
nodes = (
(181,868,l),
(288,1479,o),
(271,1494,o),
(222,1532,c),
(235,1552,l),
(285,1518,o),
(309,1492,o),
(232,1056,cs),
(221,992,o),
(211,938,o),
(199,868,c)
);
},
{
closed = 1;
nodes = (
(199,1404,l),
(312,1546,l),
(327,1536,l),
(213,1390,l)
);
}
);
width = 192;
},
{
layerId = "E5A4176B-9C10-4B01-BBC9-D7999ECBFAF8";
shapes = (
{
closed = 1;
nodes = (
(563,-10,o),
(63,286,o),
(97,592,qs),
(131,901,o),
(713,1181,o),
(1139,1181,qs),
(1453,1181,o),
(2108,799,o),
(2073,602,qs),
(2017,286,o),
(1415,-10,o),
(989,-10,qs)
);
},
{
closed = 1;
nodes = (
(1243,352,o),
(1495,488,o),
(1513,592,qs),
(1532,696,o),
(1329,839,o),
(1129,839,qs),
(929,839,o),
(674,696,o),
(655,592,qs),
(637,488,o),
(843,352,o),
(1043,352,qs)
);
},
{
closed = 1;
nodes = (
(1601,788,l),
(1673,1196,o),
(1352,1303,o),
(579,1303,c),
(749,1597,l),
(1311,1597,o),
(1594,1523,o),
(1830,1352,cs),
(2059,1186,o),
(2126,902,o),
(2073,602,c)
);
},
{
closed = 1;
nodes = (
(839,1213,l),
(1165,1677,l),
(1481,1633,l),
(1182,1185,l)
);
}
);
width = 2164;
}
);
unicode = 240;
},
{
color = 3;
glyphname = dcaron;
kernLeft = o;
kernRight = l;
lastChange = "2023-03-03 15:00:28 +0000";
layers = (
{
layerId = "5997A0D0-E78E-41EC-9011-DECBEAD8517D";
shapes = (
{
closed = 1;
nodes = (
(1856,1570,l),
(1890,1570,l),
(1795,1307,l),
(1767,1307,l)
);
},
{
ref = d;
}
);
width = 1715;
},
{
layerId = "55C4185A-9C39-4468-B19C-DE0A3E571700";
shapes = (
{
closed = 1;
nodes = (
(996,1570,l),
(1224,1570,l),
(1108,1230,l),
(884,1230,l)
);
},
{
ref = d;
}
);
width = 1072;
},
{
layerId = "4F53612F-C4F8-4368-83AD-8913BEEF8F1D";
shapes = (
{
closed = 1;
nodes = (
(394,1570,l),
(416,1570,l),
(377,1400,l),
(359,1400,l)
);
},
{
ref = d;
}
);
width = 240;
},
{
layerId = "E5A4176B-9C10-4B01-BBC9-D7999ECBFAF8";
shapes = (
{
closed = 1;
nodes = (
(2328,1570,l),
(2688,1570,l),
(2482,1100,l),
(2158,1100,l)
);
},
{
ref = d;
}
);
width = 2505;
}
);
metricLeft = d;
unicode = 271;
},
{
color = 3;
glyphname = dcroat;
kernLeft = o;
kernRight = l;
lastChange = "2023-03-03 15:00:28 +0000";
layers = (
{
layerId = "5997A0D0-E78E-41EC-9011-DECBEAD8517D";
shapes = (
{
closed = 1;
nodes = (
(1170,1399,l),
(1907,1399,l),
(1903,1377,l),
(1166,1377,l)
);
},
{
ref = d;
}
);
width = 1764;
},
{
layerId = "55C4185A-9C39-4468-B19C-DE0A3E571700";
shapes = (
{
closed = 1;
nodes = (
(399,1487,l),
(919,1487,l),
(887,1303,l),
(367,1303,l)
);
},
{
ref = d;
}
);
width = 733;
},
{
layerId = "4F53612F-C4F8-4368-83AD-8913BEEF8F1D";
shapes = (
{
closed = 1;
nodes = (
(187,1441,l),
(353,1441,l),
(349,1419,l),
(183,1419,l)
);
},
{
ref = d;
}
);
width = 205;
},
{
layerId = "E5A4176B-9C10-4B01-BBC9-D7999ECBFAF8";
shapes = (
{
closed = 1;
nodes = (
(1004,1470,l),
(2346,1470,l),
(2304,1232,l),
(962,1232,l)
);
},
{
ref = d;
}
);
width = 2190;
}
);
unicode = 273;
},
{
color = 6;
glyphname = e;
kernLeft = o;
kernRight = o;
lastChange = "2023-03-03 15:00:28 +0000";
layers = (
{
anchors = (
{
name = bottom;
pos = (660,0);
},
{
name = ogonek;
pos = (1253,80);
},
{
name = top;
pos = (983,1172);
}
);
layerId = "5997A0D0-E78E-41EC-9011-DECBEAD8517D";
shapes = (
{
closed = 1;
nodes = (
(437,-11,o),
(85,285,o),
(130,593,qs),
(173,889,o),
(670,1178,o),
(981,1178,qs),
(1303,1178,o),
(1666,889,o),
(1616,604,qs),
(1614,593,o),
(1611,580,q),
(139,580,l),
(143,603,l),
(1601,603,l),
(1588,592,l),
(1639,879,o),
(1290,1156,o),
(977,1156,qs),
(672,1156,o),
(193,875,o),
(153,592,qs),
(112,302,o),
(445,11,o),
(775,11,q),
(771,-11,l)
);
},
{
closed = 1;
nodes = (
(962,11,o),
(1301,107,o),
(1501,274,o),
(1539,375,q),
(1563,375,l),
(1524,268,o),
(1317,91,o),
(967,-11,o),
(771,-11,q),
(775,11,l)
);
}
);
width = 1831;
},
{
anchors = (
{
name = bottom;
pos = (276,0);
},
{
name = ogonek;
pos = (565,69);
},
{
name = top;
pos = (487,1200);
}
);
layerId = "55C4185A-9C39-4468-B19C-DE0A3E571700";
shapes = (
{
closed = 1;
nodes = (
(-92,-10,o),
(-27,356,o),
(17,606,qs),
(61,856,o),
(124,1212,o),
(486,1212,qs),
(848,1212,o),
(785,856,o),
(741,606,qs),
(730,542,o),
(720,486,q),
(316,486,l),
(355,710,l),
(431,710,l),
(406,682,l),
(439,866,o),
(455,956,o),
(441,956,qs),
(427,956,o),
(411,866,o),
(365,606,qs),
(316,330,o),
(301,244,o),
(313,244,q),
(268,-10,l)
);
},
{
closed = 1;
nodes = (
(321,244,o),
(332,274,o),
(350,361,o),
(361,425,q),
(709,425,l),
(676,237,o),
(598,78,o),
(432,-10,o),
(268,-10,q),
(313,244,l)
);
}
);
width = 748;
},
{
anchors = (
{
name = bottom;
pos = (-3,0);
},
{
name = ogonek;
pos = (42,25);
},
{
name = top;
pos = (212,1200);
}
);
layerId = "4F53612F-C4F8-4368-83AD-8913BEEF8F1D";
shapes = (
{
closed = 1;
nodes = (
(-63,-6,o),
(-4,328,o),
(44,602,qs),
(104,945,o),
(151,1211,o),
(213,1211,qs),
(275,1211,o),
(230,955,o),
(168,602,q),
(167,598,o),
(166,592,q),
(56,592,l),
(60,615,l),
(156,615,l),
(146,604,l),
(206,941,o),
(249,1189,o),
(209,1189,qs),
(169,1189,o),
(126,941,o),
(66,604,qs),
(18,332,o),
(-37,16,o),
(-1,16,q),
(-5,-6,l)
);
},
{
closed = 1;
nodes = (
(18,16,o),
(51,86,o),
(97,323,o),
(121,460,q),
(143,460,l),
(116,310,o),
(67,72,o),
(27,-6,o),
(-5,-6,q),
(-1,16,l)
);
}
);
width = 200;
},
{
anchors = (
{
name = bottom;
pos = (978,0);
},
{
name = ogonek;
pos = (1602,45);
},
{
name = top;
pos = (1174,1172);
}
);
layerId = "E5A4176B-9C10-4B01-BBC9-D7999ECBFAF8";
shapes = (
{
closed = 1;
nodes = (
(566,-16,o),
(34,276,o),
(87,576,qs),
(139,876,o),
(774,1184,o),
(1172,1184,qs),
(1592,1184,o),
(2090,859,o),
(2041,576,qs),
(2026,492,o),
(1998,434,q),
(538,434,l),
(593,748,l),
(1531,748,l),
(1517,702,l),
(1527,758,o),
(1311,864,o),
(1117,864,qs),
(923,864,o),
(637,726,o),
(611,576,qs),
(586,434,o),
(833,307,o),
(1037,307,q),
(980,-16,l)
);
},
{
closed = 1;
nodes = (
(1159,307,o),
(1300,325,o),
(1398,347,o),
(1452,370,q),
(1868,137,l),
(1810,100,o),
(1509,19,o),
(1220,-16,o),
(980,-16,q),
(1037,307,l)
);
}
);
width = 2146;
}
);
unicode = 101;
},
{
color = 6;
glyphname = schwa;
kernLeft = schwa;
kernRight = schwa;
lastChange = "2023-03-03 15:00:28 +0000";
layers = (
{
anchors = (
{
name = bottom;
pos = (-12,0);
},
{
name = ogonek;
pos = (158,1175);
},
{
name = top;
pos = (203,1200);
}
);
layerId = "4F53612F-C4F8-4368-83AD-8913BEEF8F1D";
shapes = (
{
closed = 1;
nodes = (
(263,1206,o),
(204,872,o),
(156,598,qs),
(96,255,o),
(49,-11,o),
(-13,-11,qs),
(-75,-11,o),
(-30,245,o),
(32,598,q),
(33,602,o),
(34,608,q),
(144,608,l),
(140,585,l),
(44,585,l),
(54,596,l),
(-6,259,o),
(-49,11,o),
(-9,11,qs),
(31,11,o),
(74,259,o),
(134,596,qs),
(182,868,o),
(237,1184,o),
(201,1184,q),
(205,1206,l)
);
},
{
closed = 1;
nodes = (
(182,1184,o),
(149,1114,o),
(103,877,o),
(79,740,q),
(57,740,l),
(84,890,o),
(133,1128,o),
(173,1206,o),
(205,1206,q),
(201,1184,l)
);
}
);
width = 200;
},
{
anchors = (
{
name = bottom;
pos = (261,0);
},
{
name = ogonek;
pos = (183,1131);
},
{
name = top;
pos = (472,1200);
}
);
layerId = "55C4185A-9C39-4468-B19C-DE0A3E571700";
shapes = (
{
closed = 1;
nodes = (
(840,1210,o),
(775,844,o),
(731,594,qs),
(687,344,o),
(624,-12,o),
(262,-12,qs),
(-100,-12,o),
(-37,344,o),
(7,594,qs),
(18,658,o),
(28,714,q),
(432,714,l),
(393,490,l),
(317,490,l),
(342,518,l),
(309,334,o),
(293,244,o),
(307,244,qs),
(321,244,o),
(337,334,o),
(383,594,qs),
(432,870,o),
(447,956,o),
(435,956,q),
(480,1210,l)
);
},
{
closed = 1;
nodes = (
(427,956,o),
(416,926,o),
(398,839,o),
(387,775,q),
(39,775,l),
(72,963,o),
(150,1122,o),
(316,1210,o),
(480,1210,q),
(435,956,l)
);
}
);
width = 748;
},
{
anchors = (
{
name = bottom;
pos = (848,0);
},
{
name = ogonek;
pos = (578,1092);
},
{
name = top;
pos = (1171,1172);
}
);
layerId = "5997A0D0-E78E-41EC-9011-DECBEAD8517D";
shapes = (
{
closed = 1;
nodes = (
(1394,1183,o),
(1746,887,o),
(1701,579,qs),
(1658,283,o),
(1161,-6,o),
(850,-6,qs),
(528,-6,o),
(165,283,o),
(215,568,qs),
(217,579,o),
(220,592,q),
(1692,592,l),
(1688,569,l),
(230,569,l),
(243,580,l),
(192,293,o),
(541,16,o),
(854,16,qs),
(1159,16,o),
(1638,297,o),
(1678,580,qs),
(1719,870,o),
(1386,1161,o),
(1056,1161,q),
(1060,1183,l)
);
},
{
closed = 1;
nodes = (
(869,1161,o),
(530,1065,o),
(330,898,o),
(292,797,q),
(268,797,l),
(307,904,o),
(514,1081,o),
(864,1183,o),
(1060,1183,q),
(1056,1161,l)
);
}
);
width = 1831;
},
{
anchors = (
{
name = bottom;
pos = (972,0);
},
{
name = ogonek;
pos = (542,1128);
},
{
name = top;
pos = (1168,1172);
}
);
layerId = "E5A4176B-9C10-4B01-BBC9-D7999ECBFAF8";
shapes = (
{
closed = 1;
nodes = (
(1580,1188,o),
(2112,896,o),
(2059,596,qs),
(2007,296,o),
(1372,-12,o),
(974,-12,qs),
(554,-12,o),
(56,313,o),
(105,596,qs),
(120,680,o),
(148,738,q),
(1608,738,l),
(1553,424,l),
(615,424,l),
(629,470,l),
(619,414,o),
(835,308,o),
(1029,308,qs),
(1223,308,o),
(1509,446,o),
(1535,596,qs),
(1560,738,o),
(1313,865,o),
(1109,865,q),
(1166,1188,l)
);
},
{
closed = 1;
nodes = (
(987,865,o),
(846,847,o),
(748,825,o),
(694,802,q),
(278,1035,l),
(336,1072,o),
(637,1153,o),
(926,1188,o),
(1166,1188,q),
(1109,865,l)
);
}
);
width = 2146;
}
);
unicode = 601;
},
{
color = 6;
glyphname = f;
kernLeft = f;
kernRight = f;
lastChange = "2023-03-03 15:00:28 +0000";
layers = (
{
anchors = (
{
name = bottom;
pos = (600,0);
},
{
name = top;
pos = (861,1570);
}
);
layerId = "5997A0D0-E78E-41EC-9011-DECBEAD8517D";
shapes = (
{
closed = 1;
nodes = (
(575,1146,l),
(140,1146,l),
(143,1168,l),
(578,1168,l),
(579,1170,l),
(624,1424,o),
(1071,1582,o),
(1341,1582,qs),
(1389,1582,l),
(1386,1560,l),
(1333,1560,ls),
(1072,1560,o),
(644,1414,o),
(601,1170,q),
(600,1168,l),
(1267,1168,l),
(1264,1146,l),
(597,1146,l),
(395,0,l),
(373,0,l)
);
}
);
width = 1430;
},
{
anchors = (
{
name = bottom;
pos = (196,0);
},
{
name = top;
pos = (457,1480);
}
);
layerId = "55C4185A-9C39-4468-B19C-DE0A3E571700";
shapes = (
{
closed = 1;
nodes = (
(173,950,l),
(79,950,l),
(123,1200,l),
(217,1200,l),
(221,1224,ls),
(249,1378,o),
(476,1570,o),
(660,1570,qs),
(742,1570,l),
(698,1320,l),
(676,1320,ls),
(628,1320,o),
(574,1274,o),
(565,1222,qs),
(561,1200,l),
(677,1200,l),
(633,950,l),
(517,950,l),
(350,0,l),
(6,0,l)
);
}
);
width = 578;
},
{
anchors = (
{
name = bottom;
pos = (-9,0);
},
{
name = top;
pos = (252,1570);
}
);
layerId = "4F53612F-C4F8-4368-83AD-8913BEEF8F1D";
shapes = (
{
closed = 1;
nodes = (
(164,1178,l),
(116,1178,l),
(120,1200,l),
(168,1200,l),
(210,1437,ls),
(221,1499,o),
(273,1570,o),
(311,1570,qs),
(315,1570,l),
(312,1548,l),
(308,1548,ls),
(282,1548,o),
(243,1498,o),
(232,1435,qs),
(190,1200,l),
(250,1200,l),
(246,1178,l),
(186,1178,l),
(-21,0,l),
(-43,0,l)
);
}
);
width = 156;
},
{
anchors = (
{
name = bottom;
pos = (651,0);
},
{
name = top;
pos = (972,1570);
}
);
layerId = "E5A4176B-9C10-4B01-BBC9-D7999ECBFAF8";
shapes = (
{
closed = 1;
nodes = (
(463,810,l),
(71,810,l),
(134,1172,l),
(527,1172,l),
(527,1173,l),
(571,1425,o),
(1117,1590,o),
(1636,1590,qs),
(1648,1590,l),
(1589,1252,l),
(1541,1252,ls),
(1265,1252,o),
(1094,1227,o),
(1085,1173,q),
(1085,1172,l),
(1574,1172,l),
(1511,810,l),
(1021,810,l),
(878,0,l),
(320,0,l)
);
}
);
width = 1598;
}
);
unicode = 102;
},
{
color = 6;
glyphname = g;
kernLeft = o;
kernRight = u;
lastChange = "2023-03-03 15:00:28 +0000";
layers = (
{
anchors = (
{
name = bottom;
pos = (651,-458);
},
{
name = top;
pos = (959,1172);
}
);
layerId = "5997A0D0-E78E-41EC-9011-DECBEAD8517D";
shapes = (
{
closed = 1;
nodes = (
(356,-458,o),
(31,-247,o),
(36,-68,q),
(59,-68,l),
(64,-191,o),
(195,-344,o),
(467,-438,o),
(652,-438,qs),
(961,-438,o),
(1380,-151,o),
(1428,118,qs),
(1544,774,l),
(1613,1168,l),
(1635,1168,l),
(1450,116,ls),
(1416,-76,o),
(1189,-334,o),
(859,-458,o),
(656,-458,qs)
);
},
{
closed = 1;
nodes = (
(409,-10,o),
(60,286,o),
(102,586,qs),
(144,888,o),
(620,1182,o),
(924,1182,qs),
(1230,1182,o),
(1573,898,o),
(1552,776,q),
(1532,703,l),
(1563,879,o),
(1214,1160,o),
(920,1160,qs),
(626,1160,o),
(167,878,o),
(126,586,qs),
(85,296,o),
(423,12,o),
(717,12,qs),
(1011,12,o),
(1460,293,o),
(1491,469,q),
(1483,388,l),
(1462,266,o),
(1019,-10,o),
(713,-10,qs)
);
}
);
width = 1825;
},
{
anchors = (
{
name = bottom;
pos = (182,-460);
},
{
name = top;
pos = (471,1200);
}
);
layerId = "55C4185A-9C39-4468-B19C-DE0A3E571700";
shapes = (
{
closed = 1;
nodes = (
(22,-460,o),
(-132,-279,o),
(-93,-56,q),
(241,-56,l),
(232,-111,o),
(219,-189,o),
(220,-216,o),
(227,-216,qs),
(235,-216,o),
(246,-187,o),
(284,26,qs),
(460,1024,l),
(582,1200,l),
(837,1200,l),
(630,28,ls),
(595,-170,o),
(478,-382,o),
(309,-460,o),
(182,-460,qs)
);
},
{
closed = 1;
nodes = (
(-92,-5,o),
(-23,386,o),
(15,602,qs),
(53,818,o),
(122,1207,o),
(328,1207,qs),
(446,1207,o),
(632,1037,o),
(597,837,q),
(409,739,l),
(432,865,o),
(448,955,o),
(434,955,qs),
(420,955,o),
(404,865,o),
(357,602,qs),
(310,334,o),
(294,244,o),
(308,244,qs),
(322,244,o),
(338,334,o),
(361,464,q),
(509,342,l),
(474,142,o),
(232,-5,o),
(114,-5,qs)
);
}
);
width = 740;
},
{
anchors = (
{
name = bottom;
pos = (-78,-458);
},
{
name = top;
pos = (213,1200);
}
);
layerId = "4F53612F-C4F8-4368-83AD-8913BEEF8F1D";
shapes = (
{
closed = 1;
nodes = (
(-114,-458,o),
(-122,-346,o),
(-84,-127,q),
(-62,-127,l),
(-85,-260,o),
(-102,-391,o),
(-91,-438,o),
(-75,-438,qs),
(-52,-438,o),
(-13,-327,o),
(22,-126,qs),
(236,1086,l),
(256,1200,l),
(278,1200,l),
(44,-128,ls),
(18,-273,o),
(-22,-415,o),
(-55,-458,o),
(-78,-458,qs)
);
},
{
closed = 1;
nodes = (
(-63,-6,o),
(-20,238,o),
(45,602,qs),
(109,968,o),
(152,1212,o),
(200,1212,qs),
(233,1212,o),
(246,1106,o),
(237,1056,q),
(225,1024,l),
(233,1068,o),
(219,1190,o),
(198,1190,qs),
(170,1190,o),
(130,960,o),
(67,602,qs),
(4,246,o),
(-37,16,o),
(-9,16,qs),
(12,16,o),
(69,138,o),
(77,182,q),
(80,150,l),
(69,88,o),
(18,-6,o),
(-15,-6,qs)
);
}
);
width = 195;
},
{
anchors = (
{
name = bottom;
pos = (815,-480);
},
{
name = top;
pos = (1182,1171);
}
);
layerId = "E5A4176B-9C10-4B01-BBC9-D7999ECBFAF8";
shapes = (
{
closed = 1;
nodes = (
(513,-487,o),
(15,-280,o),
(8,-30,q),
(554,-30,l),
(557,-71,o),
(649,-132,o),
(807,-163,o),
(903,-163,qs),
(1072,-163,o),
(1310,-59,o),
(1330,57,qs),
(1478,896,l),
(1684,1172,l),
(2086,1172,l),
(1906,151,ls),
(1863,-92,o),
(1512,-371,o),
(1113,-487,o),
(818,-487,q)
);
},
{
closed = 1;
nodes = (
(418,-10,o),
(35,280,o),
(70,590,qs),
(105,902,o),
(618,1182,o),
(942,1182,qs),
(1281,1182,o),
(1717,935,o),
(1705,870,q),
(1431,630,l),
(1441,690,o),
(1205,820,o),
(1048,820,qs),
(872,820,o),
(658,693,o),
(639,586,qs),
(620,479,o),
(790,352,o),
(966,352,qs),
(1123,352,o),
(1405,482,o),
(1415,542,q),
(1605,302,l),
(1594,237,o),
(1081,-10,o),
(742,-10,qs)
);
}
);
width = 2196;
}
);
metricLeft = o;
unicode = 103;
},
{
color = 6;
glyphname = gcommaaccent;
kernLeft = g;
kernRight = g;
lastChange = "2023-03-03 15:00:28 +0000";
layers = (
{
anchors = (
{
name = bottom;
pos = (651,-458);
},
{
name = top;
pos = (1005.849,1434.92);
}
);
layerId = "5997A0D0-E78E-41EC-9011-DECBEAD8517D";
shapes = (
{
closed = 1;
nodes = (
(356,-458,o),
(31,-247,o),
(36,-68,q),
(59,-68,l),
(64,-191,o),
(195,-344,o),
(467,-438,o),
(652,-438,qs),
(961,-438,o),
(1380,-151,o),
(1428,118,qs),
(1544,774,l),
(1613,1168,l),
(1635,1168,l),
(1450,116,ls),
(1416,-76,o),
(1189,-334,o),
(859,-458,o),
(656,-458,qs)
);
},
{
closed = 1;
nodes = (
(409,-10,o),
(60,286,o),
(102,586,qs),
(144,888,o),
(620,1182,o),
(924,1182,qs),
(1230,1182,o),
(1573,898,o),
(1552,776,q),
(1532,703,l),
(1563,879,o),
(1214,1160,o),
(920,1160,qs),
(626,1160,o),
(167,878,o),
(126,586,qs),
(85,296,o),
(423,12,o),
(717,12,qs),
(1011,12,o),
(1460,293,o),
(1491,469,q),
(1483,388,l),
(1462,266,o),
(1019,-10,o),
(713,-10,qs)
);
},
{
closed = 1;
nodes = (
(1066,1435,l),
(1091,1435,l),
(934,1212,l),
(892,1212,l)
);
}
);
width = 1825;
},
{
anchors = (
{
name = bottom;
pos = (182,-460);
},
{
name = top;
pos = (518.312,1468.969);
}
);
layerId = "55C4185A-9C39-4468-B19C-DE0A3E571700";
shapes = (
{
closed = 1;
nodes = (
(22,-460,o),
(-132,-279,o),
(-93,-56,q),
(241,-56,l),
(232,-111,o),
(219,-189,o),
(220,-216,o),
(227,-216,qs),
(235,-216,o),
(246,-187,o),
(284,26,qs),
(460,1024,l),
(582,1200,l),
(837,1200,l),
(630,28,ls),
(595,-170,o),
(478,-382,o),
(309,-460,o),
(182,-460,qs)
);
},
{
closed = 1;
nodes = (
(-92,-5,o),
(-23,386,o),
(15,602,qs),
(53,818,o),
(122,1207,o),
(328,1207,qs),
(446,1207,o),
(632,1037,o),
(597,837,q),
(409,739,l),
(432,865,o),
(448,955,o),
(434,955,qs),
(420,955,o),
(404,865,o),
(357,602,qs),
(310,334,o),
(294,244,o),
(308,244,qs),
(322,244,o),
(338,334,o),
(361,464,q),
(509,342,l),
(474,142,o),
(232,-5,o),
(114,-5,qs)
);
},
{
closed = 1;
nodes = (
(517,1469,l),
(607,1469,l),
(556,1266,l),
(399,1266,l)
);
}
);
width = 740;
},
{
anchors = (
{
name = bottom;
pos = (-78,-458);
},
{
name = top;
pos = (252.326,1422.29);
}
);
layerId = "4F53612F-C4F8-4368-83AD-8913BEEF8F1D";
shapes = (
{
closed = 1;
nodes = (
(-114,-458,o),
(-122,-346,o),
(-84,-127,q),
(-62,-127,l),
(-85,-260,o),
(-102,-391,o),
(-91,-438,o),
(-75,-438,qs),
(-52,-438,o),
(-13,-327,o),
(22,-126,qs),
(236,1086,l),
(256,1200,l),
(278,1200,l),
(44,-128,ls),
(18,-273,o),
(-22,-415,o),
(-55,-458,o),
(-78,-458,qs)
);
},
{
closed = 1;
nodes = (
(-63,-6,o),
(-20,238,o),
(45,602,qs),
(109,968,o),
(152,1212,o),
(200,1212,qs),
(233,1212,o),
(246,1106,o),
(237,1056,q),
(225,1024,l),
(233,1068,o),
(219,1190,o),
(198,1190,qs),
(170,1190,o),
(130,960,o),
(67,602,qs),
(4,246,o),
(-37,16,o),
(-9,16,qs),
(12,16,o),
(69,138,o),
(77,182,q),
(80,150,l),
(69,88,o),
(18,-6,o),
(-15,-6,qs)
);
},
{
closed = 1;
nodes = (
(277,1422,l),
(298,1422,l),
(205,1250,l),
(165,1250,l)
);
}
);
width = 195;
},
{
anchors = (
{
name = bottom;
pos = (815,-480);
},
{
name = top;
pos = (1248.419,1549.996);
}
);
layerId = "E5A4176B-9C10-4B01-BBC9-D7999ECBFAF8";
shapes = (
{
closed = 1;
nodes = (
(513,-487,o),
(15,-280,o),
(8,-30,q),
(554,-30,l),
(557,-71,o),
(649,-132,o),
(807,-163,o),
(903,-163,qs),
(1072,-163,o),
(1310,-59,o),
(1330,57,qs),
(1478,896,l),
(1684,1172,l),
(2086,1172,l),
(1906,151,ls),
(1863,-92,o),
(1512,-371,o),
(1113,-487,o),
(818,-487,q)
);
},
{
closed = 1;
nodes = (
(418,-10,o),
(35,280,o),
(70,590,qs),
(105,902,o),
(618,1182,o),
(942,1182,qs),
(1281,1182,o),
(1717,935,o),
(1705,870,q),
(1431,630,l),
(1441,690,o),
(1205,820,o),
(1048,820,qs),
(872,820,o),
(658,693,o),
(639,586,qs),
(620,479,o),
(790,352,o),
(966,352,qs),
(1123,352,o),
(1405,482,o),
(1415,542,q),
(1605,302,l),
(1594,237,o),
(1081,-10,o),
(742,-10,qs)
);
},
{
closed = 1;
nodes = (
(1264,1559,l),
(1413,1559,l),
(1296,1279,l),
(1068,1279,l)
);
}
);
width = 2196;
}
);
unicode = 291;
},
{
color = 6;
glyphname = h;
kernLeft = h;
kernRight = n;
lastChange = "2023-03-03 15:00:28 +0000";
layers = (
{
anchors = (
{
name = bottom;
pos = (698,0);
},
{
name = center;
pos = (569,1381);
},
{
name = top;
pos = (959,1480);
}
);
layerId = "5997A0D0-E78E-41EC-9011-DECBEAD8517D";
shapes = (
{
closed = 1;
nodes = (
(336,1570,l),
(358,1570,l),
(80,0,l),
(58,0,l)
);
},
{
closed = 1;
nodes = (
(1471,642,ls),
(1518,909,o),
(1225,1162,o),
(935,1162,qs),
(649,1162,o),
(234,875,o),
(191,629,q),
(187,690,l),
(224,899,o),
(644,1184,o),
(933,1184,qs),
(1235,1184,o),
(1541,918,o),
(1493,644,qs),
(1380,0,l),
(1358,0,l)
);
}
);
width = 1754;
},
{
anchors = (
{
name = bottom;
pos = (273,0);
},
{
name = center;
pos = (325,1382);
},
{
name = top;
pos = (571,1556);
}
);
layerId = "55C4185A-9C39-4468-B19C-DE0A3E571700";
shapes = (
{
closed = 1;
nodes = (
(187,1570,l),
(531,1570,l),
(253,0,l),
(-91,0,l)
);
},
{
closed = 1;
nodes = (
(394,637,ls),
(434,863,o),
(450,953,o),
(436,953,qs),
(422,953,o),
(406,863,o),
(386,753,q),
(218,761,l),
(255,972,o),
(494,1207,o),
(642,1207,q),
(836,1207,o),
(772,841,o),
(737,641,qs),
(624,0,l),
(282,0,l)
);
}
);
width = 738;
},
{
anchors = (
{
name = bottom;
pos = (-4,0);
},
{
name = center;
pos = (203,1462);
},
{
name = top;
pos = (257,1570);
}
);
layerId = "4F53612F-C4F8-4368-83AD-8913BEEF8F1D";
shapes = (
{
closed = 1;
nodes = (
(206,1570,l),
(228,1570,l),
(-50,0,l),
(-72,0,l)
);
},
{
closed = 1;
nodes = (
(183,842,ls),
(213,1011,o),
(244,1190,o),
(216,1190,qs),
(195,1190,o),
(138,1068,o),
(131,1024,q),
(128,1056,l),
(137,1106,o),
(189,1212,o),
(222,1212,qs),
(270,1212,o),
(235,1015,o),
(203,832,qs),
(56,0,l),
(34,0,l)
);
}
);
width = 192;
},
{
anchors = (
{
name = bottom;
pos = (980,0);
},
{
name = center;
pos = (791,1356);
},
{
name = top;
pos = (1207,1570);
}
);
layerId = "E5A4176B-9C10-4B01-BBC9-D7999ECBFAF8";
shapes = (
{
closed = 1;
nodes = (
(315,1570,l),
(875,1570,l),
(597,0,l),
(37,0,l)
);
},
{
closed = 1;
nodes = (
(1387,534,ls),
(1414,689,o),
(1291,821,o),
(1149,821,qs),
(989,821,o),
(702,596,o),
(674,439,q),
(433,605,l),
(455,727,o),
(1003,1183,o),
(1397,1183,qs),
(1700,1183,o),
(2011,900,o),
(1954,577,qs),
(1853,0,l),
(1293,0,l)
);
}
);
width = 2151;
}
);
metricRight = n;
unicode = 104;
},
{
color = 3;
glyphname = hbar;
kernLeft = h;
kernRight = n;
lastChange = "2023-03-03 15:00:28 +0000";
layers = (
{
layerId = "5997A0D0-E78E-41EC-9011-DECBEAD8517D";
shapes = (
{
closed = 1;
nodes = (
(143,1399,l),
(880,1399,l),
(876,1377,l),
(139,1377,l)
);
},
{
ref = h;
}
);
width = 1734;
},
{
layerId = "55C4185A-9C39-4468-B19C-DE0A3E571700";
shapes = (
{
closed = 1;
nodes = (
(126,1487,l),
(646,1487,l),
(614,1303,l),
(94,1303,l)
);
},
{
ref = h;
}
);
width = 738;
},
{
layerId = "4F53612F-C4F8-4368-83AD-8913BEEF8F1D";
shapes = (
{
closed = 1;
nodes = (
(148,1441,l),
(314,1441,l),
(310,1419,l),
(144,1419,l)
);
},
{
ref = h;
}
);
width = 194;
},
{
layerId = "E5A4176B-9C10-4B01-BBC9-D7999ECBFAF8";
shapes = (
{
closed = 1;
nodes = (
(156,1470,l),
(1498,1470,l),
(1456,1232,l),
(114,1232,l)
);
},
{
ref = h;
}
);
width = 2088;
}
);
unicode = 295;
},
{
color = 6;
glyphname = i;
kernLeft = i;
kernRight = i;
lastChange = "2023-03-03 15:00:28 +0000";
layers = (
{
anchors = (
{
name = bottom;
pos = (193,0);
}
);
layerId = "5997A0D0-E78E-41EC-9011-DECBEAD8517D";
shapes = (
{
closed = 1;
nodes = (
(371,1172,l),
(393,1172,l),
(186,0,l),
(164,0,l)
);
},
{
closed = 1;
nodes = (
(450,1492,l),
(429,1377,l),
(407,1377,l),
(428,1492,l)
);
}
);
width = 606;
},
{
anchors = (
{
name = bottom;
pos = (88,0);
}
);
layerId = "55C4185A-9C39-4468-B19C-DE0A3E571700";
shapes = (
{
closed = 1;
nodes = (
(126,1200,l),
(472,1200,l),
(261,0,l),
(-85,0,l)
);
},
{
closed = 1;
nodes = (
(537,1570,l),
(493,1320,l),
(147,1320,l),
(191,1570,l)
);
}
);
width = 378;
},
{
anchors = (
{
name = bottom;
pos = (-35,0);
}
);
layerId = "4F53612F-C4F8-4368-83AD-8913BEEF8F1D";
shapes = (
{
closed = 1;
nodes = (
(159,1200,l),
(181,1200,l),
(-31,0,l),
(-53,0,l)
);
},
{
closed = 1;
nodes = (
(223,1440,l),
(207,1348,l),
(185,1348,l),
(201,1440,l)
);
}
);
width = 120;
},
{
anchors = (
{
name = bottom;
pos = (396,0);
}
);
layerId = "E5A4176B-9C10-4B01-BBC9-D7999ECBFAF8";
shapes = (
{
closed = 1;
nodes = (
(284,1172,l),
(842,1172,l),
(636,0,l),
(78,0,l)
);
},
{
closed = 1;
nodes = (
(912,1570,l),
(856,1252,l),
(298,1252,l),
(354,1570,l)
);
}
);
width = 947;
}
);
unicode = 105;
},
{
color = 6;
glyphname = idotless;
kernLeft = idotless;
kernRight = idotless;
lastChange = "2023-03-03 15:00:28 +0000";
layers = (
{
anchors = (
{
name = bottom;
pos = (132,0);
},
{
name = ogonek;
pos = (143,0);
},
{
name = top;
pos = (340,1172);
}
);
layerId = "5997A0D0-E78E-41EC-9011-DECBEAD8517D";
shapes = (
{
closed = 1;
nodes = (
(327,1168,l),
(349,1168,l),
(143,0,l),
(121,0,l)
);
}
);
width = 521;
},
{
anchors = (
{
name = bottom;
pos = (88,0);
},
{
name = ogonek;
pos = (261,0);
},
{
name = top;
pos = (298,1200);
}
);
layerId = "55C4185A-9C39-4468-B19C-DE0A3E571700";
shapes = (
{
closed = 1;
nodes = (
(123,1200,l),
(473,1200,l),
(261,0,l),
(-87,0,l)
);
}
);
width = 374;
},
{
anchors = (
{
name = bottom;
pos = (-56,0);
},
{
name = ogonek;
pos = (-14,10);
},
{
name = top;
pos = (156,1200);
}
);
layerId = "4F53612F-C4F8-4368-83AD-8913BEEF8F1D";
shapes = (
{
closed = 1;
nodes = (
(140,1200,l),
(162,1200,l),
(-50,0,l),
(-72,0,l)
);
}
);
width = 100;
},
{
anchors = (
{
name = bottom;
pos = (296,0);
},
{
name = ogonek;
pos = (578,0);
},
{
name = top;
pos = (506,1172);
}
);
layerId = "E5A4176B-9C10-4B01-BBC9-D7999ECBFAF8";
shapes = (
{
closed = 1;
nodes = (
(226,1172,l),
(784,1172,l),
(578,0,l),
(18,0,l)
);
}
);
width = 920;
}
);
unicode = 305;
},
{
color = 3;
glyphname = imacron;
kernLeft = idotless;
kernRight = idotless;
lastChange = "2023-03-03 15:00:28 +0000";
layers = (
{
layerId = "5997A0D0-E78E-41EC-9011-DECBEAD8517D";
shapes = (
{
closed = 1;
nodes = (
(174,1334,l),
(560,1334,l),
(556,1314,l),
(170,1314,l)
);
},
{
ref = idotless;
}
);
width = 521;
},
{
layerId = "55C4185A-9C39-4468-B19C-DE0A3E571700";
shapes = (
{
closed = 1;
nodes = (
(142,1377,l),
(518,1377,l),
(496,1253,l),
(120,1253,l)
);
},
{
ref = idotless;
}
);
width = 374;
},
{
layerId = "4F53612F-C4F8-4368-83AD-8913BEEF8F1D";
shapes = (
{
closed = 1;
nodes = (
(120,1289,l),
(214,1289,l),
(210,1269,l),
(116,1269,l)
);
},
{
ref = idotless;
}
);
width = 100;
},
{
layerId = "E5A4176B-9C10-4B01-BBC9-D7999ECBFAF8";
shapes = (
{
closed = 1;
nodes = (
(160,1490,l),
(964,1490,l),
(930,1292,l),
(126,1292,l)
);
},
{
ref = idotless;
}
);
width = 920;
}
);
unicode = 299;
},
{
color = 3;
glyphname = iogonek;
kernLeft = i;
kernRight = i;
lastChange = "2023-03-03 15:00:28 +0000";
layers = (
{
layerId = "5997A0D0-E78E-41EC-9011-DECBEAD8517D";
shapes = (
{
closed = 1;
nodes = (
(406,1492,l),
(385,1377,l),
(363,1377,l),
(384,1492,l)
);
},
{
ref = idotless;
},
{
pos = (-280,0);
ref = ogonekcomb;
}
);
width = 521;
},
{
layerId = "55C4185A-9C39-4468-B19C-DE0A3E571700";
shapes = (
{
closed = 1;
nodes = (
(538,1570,l),
(494,1320,l),
(148,1320,l),
(192,1570,l)
);
},
{
ref = idotless;
},
{
pos = (92,0);
ref = ogonekcomb;
}
);
width = 374;
},
{
layerId = "4F53612F-C4F8-4368-83AD-8913BEEF8F1D";
shapes = (
{
closed = 1;
nodes = (
(218,1440,l),
(202,1348,l),
(180,1348,l),
(196,1440,l)
);
},
{
ref = idotless;
},
{
pos = (-25,0);
ref = ogonekcomb;
}
);
width = 100;
},
{
layerId = "E5A4176B-9C10-4B01-BBC9-D7999ECBFAF8";
shapes = (
{
closed = 1;
nodes = (
(858,1570,l),
(802,1252,l),
(244,1252,l),
(300,1570,l)
);
},
{
ref = idotless;
},
{
pos = (-51,0);
ref = ogonekcomb;
}
);
width = 920;
}
);
unicode = 303;
},
{
color = 6;
glyphname = j;
kernLeft = j;
kernRight = i;
lastChange = "2023-03-03 15:00:28 +0000";
layers = (
{
layerId = "5997A0D0-E78E-41EC-9011-DECBEAD8517D";
shapes = (
{
closed = 1;
nodes = (
(-435,-441,l),
(-195,-441,o),
(112,-227,o),
(150,-15,qs),
(360,1172,l),
(382,1172,l),
(173,-13,ls),
(133,-238,o),
(-186,-460,o),
(-438,-460,q)
);
},
{
closed = 1;
nodes = (
(438,1492,l),
(418,1377,l),
(396,1377,l),
(416,1492,l)
);
}
);
width = 595;
},
{
layerId = "55C4185A-9C39-4468-B19C-DE0A3E571700";
shapes = (
{
closed = 1;
nodes = (
(-188,-202,l),
(-150,-202,o),
(-95,-136,o),
(-76,-28,qs),
(141,1200,l),
(485,1200,l),
(273,2,ls),
(223,-286,o),
(-30,-460,o),
(-234,-460,q)
);
},
{
closed = 1;
nodes = (
(552,1570,l),
(508,1320,l),
(162,1320,l),
(206,1570,l)
);
}
);
width = 392;
},
{
layerId = "4F53612F-C4F8-4368-83AD-8913BEEF8F1D";
shapes = (
{
closed = 1;
nodes = (
(-184,-436,l),
(-148,-436,o),
(-105,-350,o),
(-79,-200,qs),
(168,1200,l),
(190,1200,l),
(-57,-202,ls),
(-85,-362,o),
(-138,-458,o),
(-188,-458,q)
);
},
{
closed = 1;
nodes = (
(232,1440,l),
(216,1348,l),
(194,1348,l),
(210,1440,l)
);
}
);
width = 129;
},
{
layerId = "E5A4176B-9C10-4B01-BBC9-D7999ECBFAF8";
shapes = (
{
closed = 1;
nodes = (
(-346,-100,l),
(-132,-100,o),
(117,8,o),
(150,200,qs),
(322,1172,l),
(880,1172,l),
(709,206,ls),
(640,-187,o),
(86,-460,o),
(-410,-460,q)
);
},
{
closed = 1;
nodes = (
(950,1570,l),
(894,1252,l),
(336,1252,l),
(392,1570,l)
);
}
);
width = 985;
}
);
metricRight = i;
unicode = 106;
},
{
color = 6;
glyphname = jdotless;
kernLeft = j;
kernRight = j;
lastChange = "2023-03-03 15:00:28 +0000";
layers = (
{
anchors = (
{
name = bottom;
pos = (-119,-460);
},
{
name = top;
pos = (174,1200);
}
);
layerId = "4F53612F-C4F8-4368-83AD-8913BEEF8F1D";
shapes = (
{
closed = 1;
nodes = (
(-184,-436,l),
(-148,-436,o),
(-105,-350,o),
(-78,-200,qs),
(169,1200,l),
(191,1200,l),
(-57,-202,ls),
(-85,-362,o),
(-138,-458,o),
(-188,-458,q)
);
}
);
width = 130;
},
{
anchors = (
{
name = bottom;
pos = (10,-460);
},
{
name = top;
pos = (303,1200);
}
);
layerId = "55C4185A-9C39-4468-B19C-DE0A3E571700";
shapes = (
{
closed = 1;
nodes = (
(-188,-202,l),
(-150,-202,o),
(-95,-136,o),
(-76,-28,qs),
(141,1200,l),
(485,1200,l),
(273,2,ls),
(223,-286,o),
(-30,-460,o),
(-234,-460,q)
);
}
);
width = 390;
},
{
anchors = (
{
name = bottom;
pos = (99,-460);
},
{
name = top;
pos = (386,1172);
}
);
layerId = "5997A0D0-E78E-41EC-9011-DECBEAD8517D";
shapes = (
{
closed = 1;
nodes = (
(-435,-441,l),
(-195,-441,o),
(112,-227,o),
(150,-15,qs),
(360,1172,l),
(382,1172,l),
(173,-13,ls),
(133,-238,o),
(-186,-460,o),
(-438,-460,q)
);
}
);
width = 595;
},
{
anchors = (
{
name = bottom;
pos = (318,-460);
},
{
name = top;
pos = (605,1172);
}
);
layerId = "E5A4176B-9C10-4B01-BBC9-D7999ECBFAF8";
shapes = (
{
closed = 1;
nodes = (
(-346,-100,l),
(-132,-100,o),
(117,8,o),
(150,200,qs),
(322,1172,l),
(880,1172,l),
(709,206,ls),
(640,-187,o),
(86,-460,o),
(-410,-460,q)
);
}
);
width = 985;
}
);
metricLeft = j;
metricRight = j;
unicode = 567;
},
{
color = 6;
glyphname = k;
kernLeft = h;
kernRight = k;
lastChange = "2023-03-03 16:22:40 +0000";
layers = (
{
anchors = (
{
name = bottom;
pos = (583,0);
},
{
name = top;
pos = (844,1570);
}
);
layerId = "5997A0D0-E78E-41EC-9011-DECBEAD8517D";
shapes = (
{
closed = 1;
nodes = (
(335,1570,l),
(357,1570,l),
(163,465,l),
(146,475,l),
(1470,1172,l),
(1513,1172,l),
(653,718,l),
(657,723,l),
(1343,0,l),
(1311,0,l),
(637,713,l),
(643,713,l),
(151,453,l),
(163,470,l),
(81,0,l),
(59,0,l)
);
}
);
width = 1651;
},
{
anchors = (
{
name = bottom;
pos = (283,0);
},
{
name = top;
pos = (566,1570);
}
);
layerId = "55C4185A-9C39-4468-B19C-DE0A3E571700";
shapes = (
{
closed = 1;
nodes = (
(186,1570,l),
(532,1570,l),
(392,771,l),
(399,846,l),
(536,1200,l),
(887,1200,l),
(622,692,l),
(646,763,l),
(660,0,l),
(308,0,l),
(348,502,l),
(440,529,l),
(311,325,l),
(343,498,l),
(256,0,l),
(-90,0,l)
);
}
);
width = 782;
},
{
anchors = (
{
name = bottom;
pos = (2,0);
},
{
name = top;
pos = (263,1480);
}
);
layerId = "4F53612F-C4F8-4368-83AD-8913BEEF8F1D";
shapes = (
{
closed = 1;
nodes = (
(205,1570,l),
(227,1570,l),
(46,543,l),
(23,527,l),
(261,1200,l),
(283,1200,l),
(135,774,l),
(144,801,l),
(82,0,l),
(60,0,l),
(122,772,l),
(128,762,l),
(34,496,l),
(45,533,l),
(-49,0,l),
(-71,0,l)
);
}
);
width = 194;
},
{
anchors = (
{
name = bottom;
pos = (902,0);
},
{
name = top;
pos = (1163,1570);
}
);
layerId = "E5A4176B-9C10-4B01-BBC9-D7999ECBFAF8";
shapes = (
{
closed = 1;
nodes = (
(314,1570,l),
(871,1570,l),
(704,618,l),
(532,670,l),
(1302,1172,l),
(2008,1172,l),
(1314,716,l),
(1367,780,l),
(1836,0,l),
(1232,0,l),
(938,536,l),
(1039,540,l),
(591,246,l),
(678,474,l),
(595,0,l),
(38,0,l)
);
}
);
width = 2004;
},
{
anchors = (
{
name = bottom;
pos = (293,0);
},
{
name = top;
pos = (554,1525);
}
);
associatedMasterId = "4F53612F-C4F8-4368-83AD-8913BEEF8F1D";
attr = {
coordinates = (
100,
22
);
};
layerId = "5F3D2E7D-4989-4955-9B88-9F0B41444E02";
name = "3. Mar 23, 17:22";
shapes = (
{
closed = 1;
nodes = (
(270,1570,l),
(292,1570,l),
(105,504,l),
(85,501,l),
(866,1186,l),
(898,1186,l),
(394,746,l),
(401,762,l),
(713,0,l),
(686,0,l),
(380,743,l),
(386,738,l),
(93,475,l),
(104,502,l),
(16,0,l),
(-6,0,l)
);
}
);
width = 923;
}
);
metricLeft = h;
unicode = 107;
},
{
color = 6;
glyphname = kgreenlandic;
kernLeft = H;
kernRight = K;
lastChange = "2023-03-03 15:00:28 +0000";
layers = (
{
anchors = (
{
name = bottom;
pos = (-3,0);
},
{
name = top;
pos = (210,1200);
}
);
layerId = "4F53612F-C4F8-4368-83AD-8913BEEF8F1D";
shapes = (
{
closed = 1;
nodes = (
(145,1200,l),
(167,1200,l),
(-45,0,l),
(-67,0,l)
);
},
{
closed = 1;
nodes = (
(255,1200,l),
(279,1200,l),
(82,601,l),
(60,601,l)
);
},
{
closed = 1;
nodes = (
(62,609,l),
(84,609,l),
(67,0,l),
(43,0,l)
);
}
);
width = 188;
},
{
anchors = (
{
name = bottom;
pos = (278,0);
},
{
name = top;
pos = (490,1200);
}
);
layerId = "55C4185A-9C39-4468-B19C-DE0A3E571700";
shapes = (
{
closed = 1;
nodes = (
(122,1200,l),
(466,1200,l),
(254,0,l),
(-90,0,l)
);
},
{
closed = 1;
nodes = (
(518,1200,l),
(866,1200,l),
(675,594,l),
(344,594,l)
);
},
{
closed = 1;
nodes = (
(345,602,l),
(676,602,l),
(654,0,l),
(306,0,l)
);
}
);
width = 768;
},
{
anchors = (
{
name = bottom;
pos = (739,0);
},
{
name = top;
pos = (945,1172);
}
);
layerId = "5997A0D0-E78E-41EC-9011-DECBEAD8517D";
shapes = (
{
closed = 1;
nodes = (
(320,1172,l),
(342,1172,l),
(136,0,l),
(114,0,l)
);
},
{
closed = 1;
nodes = (
(1596,1172,l),
(1646,1172,l),
(253,577,l),
(223,586,l)
);
},
{
closed = 1;
nodes = (
(226,580,l),
(256,589,l),
(1449,0,l),
(1403,0,l)
);
}
);
width = 1684;
},
{
anchors = (
{
name = bottom;
pos = (917,0);
},
{
name = top;
pos = (1123,1172);
}
);
layerId = "E5A4176B-9C10-4B01-BBC9-D7999ECBFAF8";
shapes = (
{
closed = 1;
nodes = (
(235,1172,l),
(799,1172,l),
(593,0,l),
(29,0,l)
);
},
{
closed = 1;
nodes = (
(1441,1172,l),
(2119,1172,l),
(1215,580,l),
(542,566,l)
);
},
{
closed = 1;
nodes = (
(569,602,l),
(1216,588,l),
(1913,0,l),
(1255,0,l)
);
}
);
width = 2040;
}
);
unicode = 312;
},
{
color = 6;
glyphname = l;
kernLeft = h;
kernRight = l;
lastChange = "2023-03-03 15:00:28 +0000";
layers = (
{
anchors = (
{
name = bottom;
pos = (109,0);
},
{
name = center;
pos = (240,740);
},
{
name = top;
pos = (397,1570);
},
{
name = topright;
pos = (616,1570);
}
);
layerId = "5997A0D0-E78E-41EC-9011-DECBEAD8517D";
shapes = (
{
closed = 1;
nodes = (
(375,1570,l),
(397,1570,l),
(119,0,l),
(97,0,l)
);
}
);
width = 520;
},
{
anchors = (
{
name = bottom;
pos = (88,0);
},
{
name = center;
pos = (219,740);
},
{
name = top;
pos = (359,1570);
},
{
name = topright;
pos = (540,1570);
}
);
layerId = "55C4185A-9C39-4468-B19C-DE0A3E571700";
shapes = (
{
closed = 1;
nodes = (
(188,1570,l),
(532,1570,l),
(256,0,l),
(-90,0,l)
);
}
);
width = 368;
},
{
anchors = (
{
name = bottom;
pos = (-34,0);
},
{
name = center;
pos = (97,740);
},
{
name = top;
pos = (239,1570);
},
{
name = topright;
pos = (281,1570);
}
);
layerId = "4F53612F-C4F8-4368-83AD-8913BEEF8F1D";
shapes = (
{
closed = 1;
nodes = (
(227,1570,l),
(249,1570,l),
(-29,0,l),
(-51,0,l)
);
}
);
width = 117;
},
{
anchors = (
{
name = bottom;
pos = (356,0);
},
{
name = center;
pos = (487,740);
},
{
name = top;
pos = (632,1570);
},
{
name = topright;
pos = (1068,1570);
}
);
layerId = "E5A4176B-9C10-4B01-BBC9-D7999ECBFAF8";
shapes = (
{
closed = 1;
nodes = (
(348,1570,l),
(908,1570,l),
(632,0,l),
(72,0,l)
);
}
);
width = 960;
}
);
unicode = 108;
},
{
color = 3;
glyphname = lslash;
kernLeft = lslash;
kernRight = lslash;
lastChange = "2023-03-03 15:00:28 +0000";
layers = (
{
layerId = "5997A0D0-E78E-41EC-9011-DECBEAD8517D";
shapes = (
{
closed = 1;
nodes = (
(18,550,l),
(436,882,l),
(432,852,l),
(14,520,l)
);
},
{
pos = (16,0);
ref = l;
}
);
width = 480;
},
{
layerId = "55C4185A-9C39-4468-B19C-DE0A3E571700";
shapes = (
{
closed = 1;
nodes = (
(12,620,l),
(612,958,l),
(566,696,l),
(-34,358,l)
);
},
{
pos = (94,0);
ref = l;
}
);
width = 540;
},
{
layerId = "4F53612F-C4F8-4368-83AD-8913BEEF8F1D";
shapes = (
{
closed = 1;
nodes = (
(-2,550,l),
(206,882,l),
(200,834,l),
(-10,502,l)
);
},
{
pos = (20,0);
ref = l;
}
);
width = 162;
},
{
layerId = "E5A4176B-9C10-4B01-BBC9-D7999ECBFAF8";
shapes = (
{
closed = 1;
nodes = (
(-20,668,l),
(942,1010,l),
(872,586,l),
(-90,244,l)
);
},
{
pos = (-14,0);
ref = l;
}
);
width = 842;
}
);
unicode = 322;
},
{
color = 6;
glyphname = m;
kernLeft = n;
kernRight = n;
lastChange = "2023-03-03 15:00:28 +0000";
layers = (
{
anchors = (
{
name = bottom;
pos = (1038,0);
},
{
name = top;
pos = (1383,1172);
}
);
layerId = "5997A0D0-E78E-41EC-9011-DECBEAD8517D";
shapes = (
{
closed = 1;
nodes = (
(264,1168,l),
(286,1168,l),
(223,810,l),
(80,0,l),
(58,0,l)
);
},
{
closed = 1;
nodes = (
(1271,592,ls),
(1322,881,o),
(1124,1158,o),
(861,1158,qs),
(597,1158,o),
(234,872,o),
(180,568,q),
(166,592,l),
(221,901,o),
(597,1180,o),
(860,1180,qs),
(1133,1180,o),
(1347,892,o),
(1294,594,qs),
(1189,0,l),
(1167,0,l)
);
},
{
closed = 1;
nodes = (
(2380,592,ls),
(2431,881,o),
(2233,1158,o),
(1970,1158,qs),
(1706,1158,o),
(1343,872,o),
(1289,568,q),
(1275,592,l),
(1330,901,o),
(1706,1180,o),
(1969,1180,qs),
(2241,1180,o),
(2456,893,o),
(2403,594,qs),
(2298,0,l),
(2276,0,l)
);
}
);
width = 2673;
},
{
anchors = (
{
name = bottom;
pos = (458,0);
},
{
name = top;
pos = (674,1200);
}
);
layerId = "55C4185A-9C39-4468-B19C-DE0A3E571700";
shapes = (
{
closed = 1;
nodes = (
(121,1200,l),
(376,1200,l),
(435,1027,l),
(254,0,l),
(-90,0,l)
);
},
{
closed = 1;
nodes = (
(401,677,ls),
(435,869,o),
(450,953,o),
(436,953,qs),
(422,953,o),
(407,868,o),
(373,677,q),
(260,794,l),
(287,949,o),
(494,1207,o),
(632,1207,q),
(836,1207,o),
(770,831,o),
(745,691,qs),
(624,0,l),
(282,0,l)
);
},
{
closed = 1;
nodes = (
(771,677,ls),
(805,869,o),
(820,953,o),
(806,953,qs),
(792,953,o),
(777,868,o),
(743,677,q),
(630,794,l),
(657,949,o),
(864,1207,o),
(1002,1207,q),
(1206,1207,o),
(1140,831,o),
(1115,691,qs),
(994,0,l),
(652,0,l)
);
}
);
width = 1108;
},
{
anchors = (
{
name = bottom;
pos = (49,0);
},
{
name = top;
pos = (262,1200);
}
);
layerId = "4F53612F-C4F8-4368-83AD-8913BEEF8F1D";
shapes = (
{
closed = 1;
nodes = (
(140,1200,l),
(162,1200,l),
(147,1114,l),
(-50,0,l),
(-72,0,l)
);
},
{
closed = 1;
nodes = (
(202,954,ls),
(217,1039,o),
(244,1190,o),
(216,1190,qs),
(195,1190,o),
(131,1028,o),
(124,984,q),
(117,1016,l),
(126,1066,o),
(187,1212,o),
(222,1212,qs),
(270,1212,o),
(240,1043,o),
(223,944,qs),
(56,0,l),
(34,0,l)
);
},
{
closed = 1;
nodes = (
(308,954,ls),
(323,1039,o),
(350,1190,o),
(322,1190,qs),
(301,1190,o),
(237,1028,o),
(230,984,q),
(223,1016,l),
(232,1066,o),
(293,1212,o),
(328,1212,qs),
(376,1212,o),
(346,1043,o),
(329,944,qs),
(162,0,l),
(140,0,l)
);
}
);
width = 298;
},
{
anchors = (
{
name = bottom;
pos = (1486,0);
},
{
name = top;
pos = (1676,1172);
}
);
layerId = "E5A4176B-9C10-4B01-BBC9-D7999ECBFAF8";
shapes = (
{
closed = 1;
nodes = (
(243,1172,l),
(684,1172,l),
(776,1019,l),
(597,0,l),
(37,0,l)
);
},
{
closed = 1;
nodes = (
(1244,573,ls),
(1265,691,o),
(1165,821,o),
(1049,821,qs),
(919,821,o),
(704,649,o),
(685,543,q),
(351,601,l),
(381,775,o),
(967,1183,o),
(1267,1183,qs),
(1579,1183,o),
(1863,907,o),
(1815,637,qs),
(1703,0,l),
(1143,0,l)
);
},
{
closed = 1;
nodes = (
(2342,573,ls),
(2363,691,o),
(2273,821,o),
(2157,821,qs),
(2027,821,o),
(1812,649,o),
(1793,543,q),
(1459,601,l),
(1487,763,o),
(2075,1183,o),
(2375,1183,qs),
(2687,1183,o),
(2961,907,o),
(2913,637,qs),
(2801,0,l),
(2241,0,l)
);
}
);
width = 3099;
}
);
metricLeft = n;
metricRight = n;
unicode = 109;
},
{
color = 6;
glyphname = n;
kernLeft = n;
kernRight = n;
lastChange = "2023-03-03 15:00:28 +0000";
layers = (
{
anchors = (
{
name = bottom;
pos = (636,0);
},
{
name = top;
pos = (945,1172);
}
);
layerId = "5997A0D0-E78E-41EC-9011-DECBEAD8517D";
shapes = (
{
closed = 1;
nodes = (
(266,1172,l),
(290,1172,l),
(211,741,l),
(80,0,l),
(58,0,l)
);
},
{
closed = 1;
nodes = (
(1469,642,ls),
(1516,909,o),
(1233,1162,o),
(943,1162,qs),
(657,1162,o),
(232,875,o),
(189,629,q),
(185,690,l),
(222,899,o),
(652,1184,o),
(941,1184,qs),
(1243,1184,o),
(1539,918,o),
(1491,644,qs),
(1378,0,l),
(1356,0,l)
);
}
);
width = 1752;
},
{
anchors = (
{
name = bottom;
pos = (273,0);
},
{
name = top;
pos = (486,1200);
}
);
layerId = "55C4185A-9C39-4468-B19C-DE0A3E571700";
shapes = (
{
closed = 1;
nodes = (
(121,1200,l),
(375,1200,l),
(435,1030,l),
(254,0,l),
(-90,0,l)
);
},
{
closed = 1;
nodes = (
(394,637,ls),
(434,863,o),
(450,953,o),
(436,953,qs),
(422,953,o),
(406,863,o),
(386,753,q),
(218,761,l),
(255,972,o),
(494,1207,o),
(642,1207,q),
(836,1207,o),
(767,813,o),
(732,613,qs),
(624,0,l),
(282,0,l)
);
}
);
width = 738;
},
{
anchors = (
{
name = bottom;
pos = (-4,0);
},
{
name = top;
pos = (205,1200);
}
);
layerId = "4F53612F-C4F8-4368-83AD-8913BEEF8F1D";
shapes = (
{
closed = 1;
nodes = (
(141,1200,l),
(163,1200,l),
(147,1112,l),
(-50,0,l),
(-72,0,l)
);
},
{
closed = 1;
nodes = (
(183,842,ls),
(213,1011,o),
(244,1190,o),
(216,1190,qs),
(195,1190,o),
(138,1068,o),
(131,1024,q),
(128,1056,l),
(137,1106,o),
(189,1212,o),
(222,1212,qs),
(270,1212,o),
(235,1015,o),
(203,832,qs),
(56,0,l),
(34,0,l)
);
}
);
width = 192;
},
{
anchors = (
{
name = bottom;
pos = (991,0);
},
{
name = top;
pos = (1160,1172);
}
);
layerId = "E5A4176B-9C10-4B01-BBC9-D7999ECBFAF8";
shapes = (
{
closed = 1;
nodes = (
(243,1172,l),
(683,1172,l),
(769,990,l),
(595,0,l),
(37,0,l)
);
},
{
closed = 1;
nodes = (
(1355,534,ls),
(1382,689,o),
(1259,821,o),
(1117,821,qs),
(957,821,o),
(670,596,o),
(642,439,q),
(401,605,l),
(423,727,o),
(971,1183,o),
(1365,1183,qs),
(1668,1183,o),
(1979,900,o),
(1922,577,qs),
(1821,0,l),
(1261,0,l)
);
}
);
width = 2119;
}
);
metricLeft = h;
unicode = 110;
},
{
color = 3;
glyphname = eng;
kernLeft = n;
kernRight = j;
lastChange = "2023-03-03 15:00:28 +0000";
layers = (
{
layerId = "5997A0D0-E78E-41EC-9011-DECBEAD8517D";
shapes = (
{
closed = 1;
nodes = (
(725,-378,l),
(1089,-378,o),
(1300,-306,o),
(1356,0,c),
(1378,0,l),
(1320,-330,o),
(1097,-400,o),
(723,-400,c)
);
},
{
ref = n;
}
);
width = 1752;
},
{
layerId = "55C4185A-9C39-4468-B19C-DE0A3E571700";
shapes = (
{
closed = 1;
nodes = (
(182,-178,l),
(248,-178,o),
(262,-128,o),
(282,0,c),
(624,0,l),
(572,-298,o),
(426,-400,o),
(142,-400,c)
);
},
{
ref = n;
}
);
width = 738;
},
{
layerId = "4F53612F-C4F8-4368-83AD-8913BEEF8F1D";
shapes = (
{
closed = 1;
nodes = (
(-102,-378,l),
(-36,-378,o),
(2,-182,o),
(34,0,c),
(56,0,l),
(0,-318,o),
(-46,-400,o),
(-104,-400,c)
);
},
{
ref = n;
}
);
width = 192;
},
{
layerId = "E5A4176B-9C10-4B01-BBC9-D7999ECBFAF8";
shapes = (
{
closed = 1;
nodes = (
(846,-154,l),
(1034,-154,o),
(1237,-141,o),
(1261,0,c),
(1821,0,l),
(1767,-308,o),
(1445,-492,o),
(787,-492,c)
);
},
{
ref = n;
}
);
width = 2119;
}
);
metricLeft = n;
metricRight = n;
unicode = 331;
},
{
color = 6;
glyphname = o;
kernLeft = o;
kernRight = o;
lastChange = "2023-03-03 15:00:28 +0000";
layers = (
{
anchors = (
{
name = bottom;
pos = (769,0);
},
{
name = center;
pos = (863,583);
},
{
name = ogonek;
pos = (788,0);
},
{
name = top;
pos = (966,1172);
},
{
name = topright;
pos = (1441,1047);
}
);
layerId = "5997A0D0-E78E-41EC-9011-DECBEAD8517D";
shapes = (
{
closed = 1;
nodes = (
(451,-11,o),
(59,287,o),
(101,585,qs),
(143,886,o),
(661,1180,o),
(969,1180,qs),
(1276,1180,o),
(1669,884,o),
(1626,585,qs),
(1583,286,o),
(1066,-11,o),
(759,-11,qs)
);
},
{
closed = 1;
nodes = (
(1060,11,o),
(1561,303,o),
(1602,585,qs),
(1644,871,o),
(1262,1158,o),
(965,1158,qs),
(667,1158,o),
(165,868,o),
(125,585,qs),
(85,300,o),
(465,11,o),
(763,11,qs)
);
}
);
width = 1846;
},
{
anchors = (
{
name = bottom;
pos = (274,0);
},
{
name = center;
pos = (373,601);
},
{
name = ogonek;
pos = (265,0);
},
{
name = top;
pos = (479,1200);
},
{
name = topright;
pos = (803,1038);
}
);
layerId = "55C4185A-9C39-4468-B19C-DE0A3E571700";
shapes = (
{
closed = 1;
nodes = (
(-93,-10,o),
(-29,350,o),
(15,601,qs),
(59,853,o),
(123,1213,o),
(481,1213,qs),
(839,1213,o),
(775,853,o),
(731,601,qs),
(687,350,o),
(623,-10,o),
(265,-10,qs)
);
},
{
closed = 1;
nodes = (
(324,244,o),
(340,334,o),
(387,601,qs),
(434,869,o),
(450,959,o),
(436,959,qs),
(422,959,o),
(406,869,o),
(359,601,qs),
(312,334,o),
(296,244,o),
(310,244,qs)
);
}
);
width = 740;
},
{
anchors = (
{
name = bottom;
pos = (6,0);
},
{
name = center;
pos = (107,601);
},
{
name = ogonek;
pos = (3,0);
},
{
name = top;
pos = (214,1200);
},
{
name = topright;
pos = (248,1109);
}
);
layerId = "4F53612F-C4F8-4368-83AD-8913BEEF8F1D";
shapes = (
{
closed = 1;
nodes = (
(-62,-6,o),
(-19,238,o),
(45,601,qs),
(109,964,o),
(152,1212,o),
(214,1212,qs),
(276,1212,o),
(233,964,o),
(169,601,qs),
(105,238,o),
(62,-6,o),
(0,-6,qs)
);
},
{
closed = 1;
nodes = (
(43,16,o),
(84,244,o),
(147,601,qs),
(210,958,o),
(251,1190,o),
(211,1190,qs),
(171,1190,o),
(130,958,o),
(67,601,qs),
(4,244,o),
(-37,16,o),
(3,16,qs)
);
}
);
width = 198;
},
{
anchors = (
{
name = bottom;
pos = (987,0);
},
{
name = center;
pos = (1063,587);
},
{
name = ogonek;
pos = (956,0);
},
{
name = top;
pos = (1157,1172);
},
{
name = topright;
pos = (1696,1071);
}
);
layerId = "E5A4176B-9C10-4B01-BBC9-D7999ECBFAF8";
shapes = (
{
closed = 1;
nodes = (
(567,-10,o),
(36,299,o),
(71,596,qs),
(107,904,o),
(757,1186,o),
(1153,1186,qs),
(1549,1186,o),
(2080,893,o),
(2045,596,qs),
(2009,288,o),
(1359,-10,o),
(963,-10,qs)
);
},
{
closed = 1;
nodes = (
(1195,342,o),
(1476,477,o),
(1487,591,qs),
(1498,706,o),
(1282,835,o),
(1102,835,qs),
(922,835,o),
(639,705,o),
(629,591,qs),
(619,476,o),
(835,342,o),
(1015,342,qs)
);
}
);
width = 2164;
}
);
unicode = 111;
},
{
color = 3;
glyphname = oslash;
kernLeft = o;
kernRight = o;
lastChange = "2023-03-03 15:00:28 +0000";
layers = (
{
anchors = (
{
name = top;
pos = (965,1172);
}
);
layerId = "5997A0D0-E78E-41EC-9011-DECBEAD8517D";
shapes = (
{
closed = 1;
nodes = (
(1768,1199,l),
(1781,1182,l),
(-35,-19,l),
(-47,-2,l)
);
},
{
ref = o;
}
);
width = 1846;
},
{
anchors = (
{
name = top;
pos = (478,1200);
}
);
layerId = "55C4185A-9C39-4468-B19C-DE0A3E571700";
shapes = (
{
closed = 1;
nodes = (
(775,1255,l),
(868,1210,l),
(-43,-53,l),
(-128,-3,l)
);
},
{
ref = o;
}
);
width = 740;
},
{
anchors = (
{
name = top;
pos = (205,1200);
}
);
layerId = "4F53612F-C4F8-4368-83AD-8913BEEF8F1D";
shapes = (
{
closed = 1;
nodes = (
(265,1227,l),
(283,1223,l),
(-68,-29,l),
(-88,-25,l)
);
},
{
ref = o;
}
);
width = 182;
},
{
anchors = (
{
name = top;
pos = (1148,1155);
}
);
layerId = "E5A4176B-9C10-4B01-BBC9-D7999ECBFAF8";
shapes = (
{
closed = 1;
nodes = (
(2076,1303,l),
(2238,1138,l),
(26,-125,l),
(-125,55,l)
);
},
{
ref = o;
}
);
width = 2164;
}
);
unicode = 248;
},
{
color = 6;
glyphname = p;
kernLeft = p;
kernRight = o;
lastChange = "2023-03-03 15:00:28 +0000";
layers = (
{
anchors = (
{
name = bottom;
pos = (756,0);
},
{
name = top;
pos = (978,1172);
}
);
layerId = "5997A0D0-E78E-41EC-9011-DECBEAD8517D";
shapes = (
{
closed = 1;
nodes = (
(264,1168,l),
(286,1168,l),
(226,827,l),
(2,-440,l),
(-20,-440,l)
);
},
{
closed = 1;
nodes = (
(478,-10,o),
(122,270,o),
(144,392,q),
(162,469,l),
(131,293,o),
(489,12,o),
(785,12,qs),
(1077,12,o),
(1519,306,o),
(1568,586,qs),
(1617,866,o),
(1283,1160,o),
(987,1160,qs),
(695,1160,o),
(235,879,o),
(204,703,q),
(212,780,l),
(234,902,o),
(682,1182,o),
(988,1182,qs),
(1292,1182,o),
(1643,876,o),
(1592,586,qs),
(1541,296,o),
(1088,-10,o),
(784,-10,qs)
);
}
);
width = 1811;
},
{
anchors = (
{
name = bottom;
pos = (270,0);
},
{
name = top;
pos = (483,1200);
}
);
layerId = "55C4185A-9C39-4468-B19C-DE0A3E571700";
shapes = (
{
closed = 1;
nodes = (
(121,1200,l),
(375,1200,l),
(436,1034,l),
(176,-440,l),
(-168,-440,l)
);
},
{
closed = 1;
nodes = (
(298,-5,o),
(108,142,o),
(144,342,q),
(335,464,l),
(312,330,o),
(296,244,o),
(310,244,qs),
(324,244,o),
(340,330,o),
(388,602,qs),
(434,865,o),
(450,955,o),
(436,955,qs),
(422,955,o),
(406,865,o),
(384,739,q),
(234,857,l),
(270,1057,o),
(512,1207,o),
(630,1207,qs),
(836,1207,o),
(768,818,o),
(730,602,qs),
(691,386,o),
(622,-5,o),
(416,-5,qs)
);
}
);
width = 739;
},
{
anchors = (
{
name = bottom;
pos = (8,0);
},
{
name = top;
pos = (198,1200);
}
);
layerId = "4F53612F-C4F8-4368-83AD-8913BEEF8F1D";
shapes = (
{
closed = 1;
nodes = (
(141,1200,l),
(163,1200,l),
(145,1098,l),
(-127,-440,l),
(-149,-440,l)
);
},
{
closed = 1;
nodes = (
(-25,-6,o),
(-40,100,o),
(-31,150,q),
(-19,182,l),
(-27,138,o),
(-12,16,o),
(9,16,qs),
(37,16,o),
(78,246,o),
(141,602,qs),
(204,960,o),
(245,1190,o),
(217,1190,qs),
(196,1190,o),
(139,1068,o),
(131,1024,q),
(131,1056,l),
(140,1106,o),
(189,1212,o),
(220,1212,qs),
(270,1212,o),
(227,968,o),
(163,602,qs),
(99,238,o),
(56,-6,o),
(8,-6,qs)
);
}
);
width = 192;
},
{
anchors = (
{
name = bottom;
pos = (1084,0);
},
{
name = top;
pos = (1179,1172);
}
);
layerId = "E5A4176B-9C10-4B01-BBC9-D7999ECBFAF8";
shapes = (
{
closed = 1;
nodes = (
(243,1172,l),
(683,1172,l),
(768,986,l),
(515,-450,l),
(-43,-450,l)
);
},
{
closed = 1;
nodes = (
(840,-10,o),
(404,237,o),
(416,302,q),
(690,542,l),
(679,482,o),
(916,352,o),
(1073,352,qs),
(1249,352,o),
(1473,478,o),
(1482,586,qs),
(1491,693,o),
(1331,820,o),
(1155,820,qs),
(998,820,o),
(716,690,o),
(706,630,q),
(516,870,l),
(527,935,o),
(1050,1182,o),
(1389,1182,qs),
(1713,1182,o),
(2087,900,o),
(2052,590,qs),
(2017,278,o),
(1503,-10,o),
(1179,-10,qs)
);
}
);
width = 2173;
}
);
metricLeft = h;
metricRight = o;
unicode = 112;
},
{
color = 3;
glyphname = thorn;
kernLeft = h;
kernRight = o;
lastChange = "2023-03-03 15:00:28 +0000";
layers = (
{
anchors = (
{
name = bottom;
pos = (633,0);
},
{
name = top;
pos = (823,1072);
}
);
layerId = "5997A0D0-E78E-41EC-9011-DECBEAD8517D";
shapes = (
{
closed = 1;
nodes = (
(195,764,l),
(217,764,l),
(11,-400,l),
(-13,-400,l)
);
},
{
pos = (21,0);
ref = b;
}
);
width = 1832;
},
{
anchors = (
{
name = bottom;
pos = (273,0);
},
{
name = top;
pos = (525,1200);
}
);
layerId = "55C4185A-9C39-4468-B19C-DE0A3E571700";
shapes = (
{
closed = 1;
nodes = (
(83,972,l),
(425,972,l),
(183,-400,l),
(-161,-400,l)
);
},
{
ref = b;
}
);
width = 739;
},
{
anchors = (
{
name = bottom;
pos = (11,0);
},
{
name = top;
pos = (229,1200);
}
);
layerId = "4F53612F-C4F8-4368-83AD-8913BEEF8F1D";
shapes = (
{
closed = 1;
nodes = (
(112,1026,l),
(133,1026,l),
(-120,-400,l),
(-142,-400,l)
);
},
{
ref = b;
}
);
width = 192;
},
{
anchors = (
{
name = bottom;
pos = (956,0);
},
{
name = top;
pos = (1146,1072);
}
);
layerId = "E5A4176B-9C10-4B01-BBC9-D7999ECBFAF8";
shapes = (
{
closed = 1;
nodes = (
(182,814,l),
(738,814,l),
(522,-400,l),
(-34,-400,l)
);
},
{
ref = b;
}
);
width = 2175;
}
);
metricLeft = p;
metricRight = p;
unicode = 254;
},
{
color = 6;
glyphname = q;
kernLeft = o;
kernRight = q;
lastChange = "2023-03-03 15:00:28 +0000";
layers = (
{
anchors = (
{
name = bottom;
pos = (870,0);
},
{
name = top;
pos = (1060,1072);
}
);
layerId = "5997A0D0-E78E-41EC-9011-DECBEAD8517D";
shapes = (
{
closed = 1;
nodes = (
(1563,820,l),
(1625,1168,l),
(1647,1168,l),
(1363,-440,l),
(1341,-440,l)
);
},
{
closed = 1;
nodes = (
(444,-10,o),
(97,260,o),
(97,484,qs),
(97,836,o),
(575,1182,o),
(928,1182,qs),
(1231,1182,o),
(1583,902,o),
(1561,780,q),
(1544,703,l),
(1575,879,o),
(1225,1160,o),
(931,1160,qs),
(591,1160,o),
(121,826,o),
(121,484,qs),
(121,270,o),
(455,12,o),
(729,12,qs),
(1023,12,o),
(1471,293,o),
(1502,469,q),
(1497,392,l),
(1475,270,o),
(1034,-10,o),
(728,-10,qs)
);
}
);
width = 1799;
},
{
anchors = (
{
name = bottom;
pos = (269,0);
},
{
name = top;
pos = (459,1072);
}
);
layerId = "55C4185A-9C39-4468-B19C-DE0A3E571700";
shapes = (
{
closed = 1;
nodes = (
(462,1034,l),
(579,1200,l),
(835,1200,l),
(546,-440,l),
(202,-440,l)
);
},
{
closed = 1;
nodes = (
(-92,-5,o),
(-23,386,o),
(16,602,qs),
(54,818,o),
(122,1207,o),
(328,1207,qs),
(446,1207,o),
(636,1057,o),
(600,857,q),
(410,739,l),
(432,865,o),
(448,955,o),
(434,955,qs),
(420,955,o),
(404,865,o),
(358,602,qs),
(310,334,o),
(294,244,o),
(308,244,qs),
(322,244,o),
(338,334,o),
(361,464,q),
(510,342,l),
(474,142,o),
(232,-5,o),
(114,-5,qs)
);
}
);
width = 740;
},
{
anchors = (
{
name = bottom;
pos = (6,0);
},
{
name = top;
pos = (216,1200);
}
);
layerId = "4F53612F-C4F8-4368-83AD-8913BEEF8F1D";
shapes = (
{
closed = 1;
nodes = (
(238,1098,l),
(256,1200,l),
(278,1200,l),
(-12,-440,l),
(-34,-440,l)
);
},
{
closed = 1;
nodes = (
(-62,-6,o),
(-19,238,o),
(45,602,qs),
(109,968,o),
(152,1212,o),
(200,1212,qs),
(233,1212,o),
(246,1106,o),
(237,1056,q),
(225,1024,l),
(233,1068,o),
(220,1190,o),
(199,1190,qs),
(171,1190,o),
(130,960,o),
(67,602,qs),
(4,246,o),
(-37,16,o),
(-9,16,qs),
(12,16,o),
(69,138,o),
(77,182,q),
(78,150,l),
(69,100,o),
(19,-6,o),
(-14,-6,qs)
);
}
);
width = 200;
},
{
anchors = (
{
name = bottom;
pos = (998,0);
},
{
name = top;
pos = (1188,1072);
}
);
layerId = "E5A4176B-9C10-4B01-BBC9-D7999ECBFAF8";
shapes = (
{
closed = 1;
nodes = (
(1476,939,l),
(1635,1172,l),
(2075,1172,l),
(1789,-450,l),
(1231,-450,l)
);
},
{
closed = 1;
nodes = (
(409,-10,o),
(36,280,o),
(70,590,qs),
(104,903,o),
(619,1182,o),
(943,1182,qs),
(1282,1182,o),
(1717,935,o),
(1706,870,q),
(1432,630,l),
(1442,690,o),
(1206,820,o),
(1049,820,qs),
(873,820,o),
(649,694,o),
(640,586,qs),
(631,479,o),
(791,352,o),
(967,352,qs),
(1124,352,o),
(1405,482,o),
(1416,542,q),
(1606,302,l),
(1594,237,o),
(1072,-10,o),
(733,-10,qs)
);
}
);
width = 2193;
}
);
metricLeft = o;
metricRight = u;
unicode = 113;
},
{
color = 6;
glyphname = r;
kernLeft = n;
kernRight = r;
lastChange = "2023-03-03 15:00:28 +0000";
layers = (
{
anchors = (
{
name = bottom;
pos = (588,0);
},
{
name = top;
pos = (871,1172);
}
);
layerId = "5997A0D0-E78E-41EC-9011-DECBEAD8517D";
shapes = (
{
closed = 1;
nodes = (
(1398,927,o),
(1164,1156,o),
(904,1156,qs),
(604,1156,o),
(233,866,o),
(195,653,q),
(183,682,l),
(221,896,o),
(603,1178,o),
(904,1178,qs),
(1173,1178,o),
(1424,941,o),
(1379,685,q),
(1355,685,l)
);
},
{
closed = 1;
nodes = (
(264,1168,l),
(286,1168,l),
(213,755,l),
(80,0,l),
(58,0,l)
);
}
);
width = 1633;
},
{
anchors = (
{
name = bottom;
pos = (274,0);
},
{
name = top;
pos = (478,1200);
}
);
layerId = "55C4185A-9C39-4468-B19C-DE0A3E571700";
shapes = (
{
closed = 1;
nodes = (
(434,866,o),
(450,956,o),
(436,956,qs),
(422,956,o),
(406,866,o),
(398,820,q),
(266,828,l),
(307,1058,o),
(525,1210,o),
(643,1210,qs),
(835,1210,o),
(779,884,o),
(728,592,q),
(386,592,l)
);
},
{
closed = 1;
nodes = (
(121,1200,l),
(375,1200,l),
(436,1034,l),
(253,0,l),
(-91,0,l)
);
}
);
width = 737;
},
{
anchors = (
{
name = bottom;
pos = (-5,0);
},
{
name = top;
pos = (205,1200);
}
);
layerId = "4F53612F-C4F8-4368-83AD-8913BEEF8F1D";
shapes = (
{
closed = 1;
nodes = (
(204,962,o),
(244,1190,o),
(217,1190,qs),
(195,1190,o),
(138,1068,o),
(131,1024,q),
(126,1056,l),
(135,1106,o),
(189,1212,o),
(221,1212,qs),
(270,1212,o),
(226,962,o),
(173,664,q),
(151,664,l)
);
},
{
closed = 1;
nodes = (
(140,1200,l),
(162,1200,l),
(143,1091,l),
(-50,0,l),
(-72,0,l)
);
}
);
width = 192;
},
{
anchors = (
{
name = bottom;
pos = (976,0);
},
{
name = top;
pos = (1166,1172);
}
);
layerId = "E5A4176B-9C10-4B01-BBC9-D7999ECBFAF8";
shapes = (
{
closed = 1;
nodes = (
(1388,696,o),
(1233,820,o),
(1101,820,qs),
(945,820,o),
(707,657,o),
(686,539,q),
(505,718,l),
(529,850,o),
(995,1182,o),
(1349,1182,qs),
(1683,1182,o),
(1983,896,o),
(1923,556,q),
(1363,556,l)
);
},
{
closed = 1;
nodes = (
(243,1172,l),
(684,1172,l),
(765,968,l),
(595,0,l),
(37,0,l)
);
}
);
width = 2123;
}
);
metricLeft = n;
metricRight = n;
unicode = 114;
},
{
color = 6;
glyphname = s;
kernLeft = s;
kernRight = s;
lastChange = "2023-03-03 15:00:28 +0000";
layers = (
{
anchors = (
{
name = bottom;
pos = (684,0);
},
{
name = top;
pos = (896,1172);
}
);
layerId = "5997A0D0-E78E-41EC-9011-DECBEAD8517D";
shapes = (
{
closed = 1;
nodes = (
(387,-11,o),
(57,186,o),
(55,344,q),
(79,344,l),
(83,196,o),
(406,11,o),
(710,11,qs),
(1043,11,o),
(1396,178,o),
(1406,305,qs),
(1415,425,o),
(1094,536,o),
(768,580,qs),
(463,621,o),
(162,745,o),
(173,879,qs),
(185,1021,o),
(556,1177,o),
(874,1177,qs),
(1196,1177,o),
(1527,1008,o),
(1522,869,q),
(1498,869,l),
(1501,998,o),
(1182,1155,o),
(870,1155,qs),
(556,1155,o),
(208,1003,o),
(197,879,qs),
(186,759,o),
(494,640,o),
(805,599,qs),
(1135,555,o),
(1439,436,o),
(1430,305,qs),
(1420,161,o),
(1044,-11,o),
(706,-11,qs)
);
}
);
width = 1722;
},
{
anchors = (
{
name = bottom;
pos = (274,0);
},
{
name = top;
pos = (485,1200);
}
);
layerId = "55C4185A-9C39-4468-B19C-DE0A3E571700";
shapes = (
{
closed = 1;
nodes = (
(73,-10,o),
(-66,157,o),
(-21,411,q),
(333,411,l),
(317,322,o),
(304,244,o),
(318,244,qs),
(332,244,o),
(342,302,o),
(351,354,qs),
(364,430,o),
(304,454,o),
(201,477,qs),
(83,503,o),
(25,669,o),
(56,847,qs),
(90,1042,o),
(283,1206,o),
(485,1206,qs),
(687,1206,o),
(825,1045,o),
(780,788,q),
(426,788,l),
(440,870,o),
(455,954,o),
(441,954,qs),
(427,954,o),
(417,900,o),
(409,852,qs),
(395,776,o),
(459,762,o),
(557,741,qs),
(660,719,o),
(739,556,o),
(710,391,qs),
(669,162,o),
(477,-10,o),
(275,-10,qs)
);
}
);
width = 754;
},
{
anchors = (
{
name = bottom;
pos = (11,0);
},
{
name = top;
pos = (218,1200);
}
);
layerId = "4F53612F-C4F8-4368-83AD-8913BEEF8F1D";
shapes = (
{
closed = 1;
nodes = (
(-43,-6,o),
(-31,144,o),
(23,450,q),
(47,450,l),
(-3,168,o),
(-22,16,o),
(12,16,qs),
(39,16,o),
(71,134,o),
(87,222,qs),
(120,409,o),
(123,534,o),
(99,596,qs),
(78,648,o),
(75,777,o),
(106,952,qs),
(125,1064,o),
(172,1212,o),
(217,1212,qs),
(269,1212,o),
(250,1022,o),
(203,754,q),
(179,754,l),
(222,998,o),
(248,1190,o),
(214,1190,qs),
(188,1190,o),
(148,1056,o),
(128,946,qs),
(100,784,o),
(102,662,o),
(119,620,qs),
(145,553,o),
(144,412,o),
(110,216,qs),
(93,120,o),
(52,-6,o),
(9,-6,qs)
);
}
);
width = 209;
},
{
anchors = (
{
name = bottom;
pos = (917,0);
},
{
name = top;
pos = (1113,1172);
}
);
layerId = "E5A4176B-9C10-4B01-BBC9-D7999ECBFAF8";
shapes = (
{
closed = 1;
nodes = (
(673,-10,o),
(121,83,o),
(8,132,q),
(494,426,l),
(542,396,o),
(820,325,o),
(1030,325,qs),
(1190,325,o),
(1390,349,o),
(1393,368,qs),
(1396,387,o),
(1052,405,o),
(833,419,qs),
(516,439,o),
(121,613,o),
(146,813,qs),
(170,1008,o),
(761,1184,o),
(1077,1184,qs),
(1391,1184,o),
(1906,1096,o),
(2006,1042,q),
(1520,752,l),
(1471,782,o),
(1199,851,o),
(1023,851,qs),
(865,851,o),
(682,827,o),
(681,808,qs),
(680,789,o),
(1003,768,o),
(1211,756,qs),
(1571,736,o),
(1959,587,o),
(1934,384,qs),
(1909,185,o),
(1277,-10,o),
(975,-10,qs)
);
}
);
width = 2118;
}
);
unicode = 115;
},
{
color = 6;
glyphname = germandbls;
kernLeft = h;
kernRight = s;
lastChange = "2023-03-03 15:00:28 +0000";
layers = (
{
anchors = (
{
name = bottom;
pos = (718,0);
},
{
name = top;
pos = (991,1494);
}
);
layerId = "5997A0D0-E78E-41EC-9011-DECBEAD8517D";
shapes = (
{
closed = 1;
nodes = (
(182,853,ls),
(262,1306,o),
(617,1494,o),
(984,1494,cs),
(1303,1494,o),
(1486,1374,o),
(1460,1175,cs),
(1432,958,o),
(1236,946,o),
(1231,862,cs),
(1225,766,o),
(1622,764,o),
(1576,434,cs),
(1526,78,o),
(1062,0,o),
(413,0,c),
(417,22,l),
(1054,22,o),
(1505,105,o),
(1552,433,cs),
(1598,754,o),
(1196,744,o),
(1206,862,cs),
(1215,966,o),
(1410,968,o),
(1436,1175,cs),
(1458,1351,o),
(1310,1472,o),
(987,1472,cs),
(632,1472,o),
(284,1304,o),
(201,837,cs),
(53,0,l),
(31,0,l)
);
}
);
width = 1844;
},
{
anchors = (
{
name = bottom;
pos = (337,0);
},
{
name = top;
pos = (567,1458);
}
);
layerId = "55C4185A-9C39-4468-B19C-DE0A3E571700";
shapes = (
{
closed = 1;
nodes = (
(89,1012,ls),
(139,1292,o),
(279,1458,o),
(567,1458,cs),
(813,1458,o),
(946,1314,o),
(909,1104,cs),
(876,914,o),
(793,866,o),
(775,764,cs),
(757,662,o),
(838,588,o),
(801,380,cs),
(751,94,o),
(610,0,o),
(292,0,c),
(337,250,l),
(375,250,o),
(408,292,o),
(427,398,cs),
(447,516,o),
(393,606,o),
(421,764,cs),
(451,932,o),
(535,1011,o),
(550,1096,cs),
(560,1152,o),
(566,1206,o),
(522,1206,cs),
(482,1206,o),
(463,1157,o),
(446,1061,cs),
(258,0,l),
(-90,0,l)
);
}
);
width = 847;
},
{
anchors = (
{
name = bottom;
pos = (20,0);
},
{
name = top;
pos = (261,1440);
}
);
layerId = "4F53612F-C4F8-4368-83AD-8913BEEF8F1D";
shapes = (
{
closed = 1;
nodes = (
(144,1200,ls),
(182,1418,o),
(216,1460,o),
(265,1460,cs),
(310,1460,o),
(330,1418,o),
(301,1252,cs),
(273,1091,o),
(167,896,o),
(146,774,cs),
(124,645,o),
(167,503,o),
(130,295,cs),
(95,95,o),
(58,0,o),
(-20,0,c),
(-16,22,l),
(42,22,o),
(77,115,o),
(108,291,cs),
(143,494,o),
(100,638,o),
(123,772,cs),
(146,908,o),
(253,1102,o),
(279,1250,cs),
(307,1408,o),
(290,1440,o),
(261,1440,cs),
(232,1440,o),
(203,1407,o),
(167,1204,cs),
(-46,0,l),
(-68,0,l)
);
}
);
width = 217;
},
{
anchors = (
{
name = bottom;
pos = (991,0);
},
{
name = top;
pos = (1226,1474);
}
);
layerId = "E5A4176B-9C10-4B01-BBC9-D7999ECBFAF8";
shapes = (
{
closed = 1;
nodes = (
(184,806,ls),
(241,1132,o),
(532,1474,o),
(1226,1474,cs),
(1896,1474,o),
(2041,1209,o),
(2009,1028,cs),
(1979,856,o),
(1809,798,o),
(1797,734,cs),
(1786,670,o),
(2055,632,o),
(2019,426,cs),
(1968,138,o),
(1588,0,o),
(802,0,c),
(865,356,l),
(1317,356,o),
(1424,422,o),
(1436,490,cs),
(1449,560,o),
(1251,598,o),
(1275,730,cs),
(1297,854,o),
(1438,882,o),
(1454,978,cs),
(1469,1059,o),
(1395,1124,o),
(1176,1124,cs),
(872,1124,o),
(766,944,o),
(744,818,cs),
(600,0,l),
(42,0,l)
);
}
);
width = 2195;
}
);
metricLeft = B;
metricRight = s;
unicode = 223;
},
{
color = 6;
glyphname = t;
kernLeft = t;
kernRight = t;
lastChange = "2023-03-03 15:00:28 +0000";
layers = (
{
anchors = (
{
name = bottom;
pos = (676,0);
},
{
name = center;
pos = (604,719);
},
{
name = top;
pos = (719,1455);
},
{
name = topright;
pos = (1546,1455);
}
);
layerId = "5997A0D0-E78E-41EC-9011-DECBEAD8517D";
shapes = (
{
closed = 1;
nodes = (
(678,-10,o),
(486,129,o),
(520,323,qs),
(665,1146,l),
(131,1146,l),
(135,1168,l),
(669,1168,l),
(719,1455,l),
(741,1455,l),
(691,1168,l),
(1496,1168,l),
(1492,1146,l),
(687,1146,l),
(543,330,ls),
(511,148,o),
(674,12,o),
(847,12,qs),
(981,12,o),
(1112,42,q),
(1109,20,l),
(983,-10,o),
(847,-10,q)
);
}
);
width = 1590;
},
{
anchors = (
{
name = bottom;
pos = (271,0);
},
{
name = center;
pos = (306,714);
},
{
name = top;
pos = (424,1444);
},
{
name = topright;
pos = (703,1444);
}
);
layerId = "55C4185A-9C39-4468-B19C-DE0A3E571700";
shapes = (
{
closed = 1;
nodes = (
(125,-14,o),
(7,110,o),
(39,292,qs),
(155,946,l),
(75,946,l),
(120,1200,l),
(200,1200,l),
(243,1444,l),
(589,1444,l),
(546,1200,l),
(654,1200,l),
(609,946,l),
(501,946,l),
(396,350,ls),
(384,284,o),
(406,248,o),
(432,248,qs),
(468,248,o),
(487,256,q),
(443,4,l),
(347,-14,o),
(251,-14,qs)
);
}
);
width = 558;
},
{
anchors = (
{
name = bottom;
pos = (-2,0);
},
{
name = center;
pos = (73,710);
},
{
name = top;
pos = (219,1443);
},
{
name = topright;
pos = (276,1443);
}
);
layerId = "4F53612F-C4F8-4368-83AD-8913BEEF8F1D";
shapes = (
{
closed = 1;
nodes = (
(-36,-10,o),
(-47,28,o),
(-34,100,qs),
(156,1178,l),
(114,1178,l),
(118,1200,l),
(160,1200,l),
(203,1443,l),
(225,1443,l),
(182,1200,l),
(232,1200,l),
(228,1178,l),
(178,1178,l),
(-9,118,ls),
(-22,46,o),
(-21,12,o),
(-7,12,qs),
(3,12,o),
(17,22,q),
(13,0,l),
(-1,-10,o),
(-15,-10,qs)
);
}
);
width = 134;
},
{
anchors = (
{
name = bottom;
pos = (930,0);
},
{
name = center;
pos = (855,536);
},
{
name = top;
pos = (950,1473);
},
{
name = topright;
pos = (1752,1473);
}
);
layerId = "E5A4176B-9C10-4B01-BBC9-D7999ECBFAF8";
shapes = (
{
closed = 1;
nodes = (
(746,-20,o),
(403,154,o),
(438,350,qs),
(519,810,l),
(71,810,l),
(135,1172,l),
(583,1172,l),
(636,1473,l),
(1194,1473,l),
(1141,1172,l),
(1715,1172,l),
(1651,810,l),
(1077,810,l),
(1019,486,ls),
(1000,381,o),
(1111,318,o),
(1218,318,qs),
(1332,318,o),
(1466,364,q),
(1406,24,l),
(1202,-20,o),
(982,-20,qs)
);
}
);
width = 1709;
}
);
unicode = 116;
},
{
color = 6;
glyphname = t.ss01;
kernLeft = t;
kernRight = t;
lastChange = "2023-03-03 15:00:28 +0000";
layers = (
{
anchors = (
{
name = bottom;
pos = (586,0);
},
{
name = center;
pos = (713,717);
},
{
name = top;
pos = (839,1443);
},
{
name = topright;
pos = (1503,1442);
}
);
layerId = "5997A0D0-E78E-41EC-9011-DECBEAD8517D";
shapes = (
{
closed = 1;
nodes = (
(777,1146,l),
(119,1146,l),
(123,1168,l),
(781,1168,l),
(829,1443,l),
(851,1443,l),
(803,1168,l),
(1459,1168,l),
(1455,1146,l),
(799,1146,l),
(597,0,l),
(575,0,l)
);
}
);
width = 1382;
},
{
anchors = (
{
name = bottom;
pos = (196,0);
},
{
name = center;
pos = (317,722);
},
{
name = top;
pos = (455,1444);
},
{
name = topright;
pos = (739,1444);
}
);
layerId = "55C4185A-9C39-4468-B19C-DE0A3E571700";
shapes = (
{
closed = 1;
nodes = (
(191,946,l),
(71,946,l),
(116,1200,l),
(236,1200,l),
(279,1444,l),
(623,1444,l),
(580,1200,l),
(696,1200,l),
(651,946,l),
(535,946,l),
(369,0,l),
(25,0,l)
);
}
);
width = 604;
},
{
anchors = (
{
name = bottom;
pos = (-48,0);
},
{
name = center;
pos = (82,728);
},
{
name = top;
pos = (210,1458);
},
{
name = topright;
pos = (249,1458);
}
);
layerId = "4F53612F-C4F8-4368-83AD-8913BEEF8F1D";
shapes = (
{
closed = 1;
nodes = (
(148,1178,l),
(112,1178,l),
(116,1200,l),
(152,1200,l),
(198,1458,l),
(220,1458,l),
(174,1200,l),
(210,1200,l),
(206,1178,l),
(170,1178,l),
(-38,0,l),
(-60,0,l)
);
}
);
width = 114;
},
{
anchors = (
{
name = bottom;
pos = (766,0);
},
{
name = center;
pos = (881,536);
},
{
name = top;
pos = (1020,1468);
},
{
name = topright;
pos = (1841,1471);
}
);
layerId = "E5A4176B-9C10-4B01-BBC9-D7999ECBFAF8";
shapes = (
{
closed = 1;
nodes = (
(624,850,l),
(76,850,l),
(133,1172,l),
(681,1172,l),
(734,1470,l),
(1294,1470,l),
(1241,1172,l),
(1789,1172,l),
(1732,850,l),
(1184,850,l),
(1034,0,l),
(474,0,l)
);
}
);
width = 1762;
}
);
},
{
color = 3;
glyphname = tbar;
kernRight = t;
lastChange = "2023-03-03 15:00:28 +0000";
layers = (
{
layerId = "5997A0D0-E78E-41EC-9011-DECBEAD8517D";
shapes = (
{
closed = 1;
nodes = (
(111,686,l),
(1080,686,l),
(1076,664,l),
(107,664,l)
);
},
{
ref = t;
}
);
width = 1590;
},
{
layerId = "55C4185A-9C39-4468-B19C-DE0A3E571700";
shapes = (
{
closed = 1;
nodes = (
(36,708,l),
(562,708,l),
(522,476,l),
(-4,476,l)
);
},
{
ref = t;
}
);
width = 558;
},
{
layerId = "4F53612F-C4F8-4368-83AD-8913BEEF8F1D";
shapes = (
{
closed = 1;
nodes = (
(37,726,l),
(137,726,l),
(133,704,l),
(33,704,l)
);
},
{
ref = t;
}
);
width = 134;
},
{
layerId = "E5A4176B-9C10-4B01-BBC9-D7999ECBFAF8";
shapes = (
{
closed = 1;
nodes = (
(215,698,l),
(1353,698,l),
(1311,456,l),
(173,456,l)
);
},
{
ref = t;
}
);
width = 1709;
}
);
metricLeft = t;
metricRight = t;
unicode = 359;
},
{
color = 3;
glyphname = tcaron;
kernRight = t;
lastChange = "2023-03-03 15:00:28 +0000";
layers = (
{
layerId = "5997A0D0-E78E-41EC-9011-DECBEAD8517D";
shapes = (
{
closed = 1;
nodes = (
(1608,1436,l),
(1633,1436,l),
(1559,1223,l),
(1537,1223,l)
);
},
{
ref = t;
}
);
width = 1513;
},
{
layerId = "55C4185A-9C39-4468-B19C-DE0A3E571700";
shapes = (
{
closed = 1;
nodes = (
(761,1445,l),
(943,1445,l),
(825,1187,l),
(665,1187,l)
);
},
{
ref = t;
}
);
width = 792;
},
{
layerId = "4F53612F-C4F8-4368-83AD-8913BEEF8F1D";
shapes = (
{
closed = 1;
nodes = (
(286,1440,l),
(306,1440,l),
(266,1300,l),
(252,1300,l)
);
},
{
ref = t;
}
);
width = 156;
},
{
layerId = "E5A4176B-9C10-4B01-BBC9-D7999ECBFAF8";
shapes = (
{
closed = 1;
nodes = (
(1841,1477,l),
(2113,1477,l),
(1983,1132,l),
(1731,1132,l)
);
},
{
ref = t;
}
);
width = 1952;
}
);
unicode = 357;
},
{
color = 6;
glyphname = u;
kernLeft = u;
kernRight = u;
lastChange = "2023-03-03 15:00:28 +0000";
layers = (
{
anchors = (
{
name = bottom;
pos = (719,0);
},
{
name = ogonek;
pos = (1399,0);
},
{
name = top;
pos = (953,1172);
},
{
name = topright;
pos = (1602,1172);
}
);
layerId = "5997A0D0-E78E-41EC-9011-DECBEAD8517D";
shapes = (
{
closed = 1;
nodes = (
(1440,360,l),
(1583,1168,l),
(1605,1168,l),
(1399,0,l),
(1377,0,l)
);
},
{
closed = 1;
nodes = (
(192,530,ls),
(145,263,o),
(418,10,o),
(708,10,qs),
(994,10,o),
(1429,297,o),
(1472,543,q),
(1474,482,l),
(1437,273,o),
(998,-12,o),
(709,-12,qs),
(407,-12,o),
(122,254,o),
(170,528,qs),
(283,1172,l),
(305,1172,l)
);
}
);
width = 1757;
},
{
anchors = (
{
name = bottom;
pos = (240,0);
},
{
name = ogonek;
pos = (625,0);
},
{
name = top;
pos = (475,1200);
},
{
name = topright;
pos = (836,1200);
}
);
layerId = "55C4185A-9C39-4468-B19C-DE0A3E571700";
shapes = (
{
closed = 1;
nodes = (
(309,158,l),
(492,1200,l),
(836,1200,l),
(625,0,l),
(369,0,l)
);
},
{
closed = 1;
nodes = (
(352,563,ls),
(312,337,o),
(296,247,o),
(310,247,qs),
(324,247,o),
(340,337,o),
(360,447,q),
(528,439,l),
(491,228,o),
(262,-7,o),
(114,-7,q),
(-90,-7,o),
(-26,359,o),
(9,559,qs),
(122,1200,l),
(464,1200,l)
);
}
);
width = 742;
},
{
anchors = (
{
name = bottom;
pos = (-3,0);
},
{
name = ogonek;
pos = (72,0);
},
{
name = top;
pos = (209,1200);
},
{
name = topright;
pos = (281,1200);
}
);
layerId = "4F53612F-C4F8-4368-83AD-8913BEEF8F1D";
shapes = (
{
closed = 1;
nodes = (
(68,104,l),
(260,1200,l),
(282,1200,l),
(72,0,l),
(50,0,l)
);
},
{
closed = 1;
nodes = (
(29,358,ls),
(-1,189,o),
(-32,10,o),
(-4,10,qs),
(17,10,o),
(74,132,o),
(81,176,q),
(84,144,l),
(75,94,o),
(23,-12,o),
(-10,-12,qs),
(-58,-12,o),
(-23,185,o),
(9,368,qs),
(156,1200,l),
(178,1200,l)
);
}
);
width = 206;
},
{
anchors = (
{
name = bottom;
pos = (880,0);
},
{
name = ogonek;
pos = (1784,0);
},
{
name = top;
pos = (1134,1172);
},
{
name = topright;
pos = (1989,1172);
}
);
layerId = "E5A4176B-9C10-4B01-BBC9-D7999ECBFAF8";
shapes = (
{
closed = 1;
nodes = (
(1261,201,l),
(1432,1172,l),
(1990,1172,l),
(1784,0,l),
(1349,0,l)
);
},
{
closed = 1;
nodes = (
(646,638,ls),
(619,483,o),
(732,351,o),
(874,351,qs),
(1034,351,o),
(1328,556,o),
(1355,713,q),
(1600,567,l),
(1578,445,o),
(1065,-11,o),
(626,-11,qs),
(323,-11,o),
(22,272,o),
(79,595,qs),
(180,1172,l),
(740,1172,l)
);
}
);
width = 2108;
}
);
unicode = 117;
},
{
color = 6;
glyphname = v;
kernLeft = v;
kernRight = v;
lastChange = "2023-03-03 15:00:28 +0000";
layers = (
{
anchors = (
{
name = bottom;
pos = (692,0);
},
{
name = top;
pos = (894,1172);
}
);
layerId = "5997A0D0-E78E-41EC-9011-DECBEAD8517D";
shapes = (
{
closed = 1;
nodes = (
(173,1172,l),
(199,1172,l),
(696,27,l),
(698,27,l),
(1599,1172,l),
(1627,1172,l),
(706,0,l),
(682,0,l)
);
}
);
width = 1712;
},
{
anchors = (
{
name = bottom;
pos = (301,0);
},
{
name = top;
pos = (491,1200);
}
);
layerId = "55C4185A-9C39-4468-B19C-DE0A3E571700";
shapes = (
{
closed = 1;
nodes = (
(112,1200,l),
(467,1200,l),
(321,244,l),
(325,244,l),
(517,1200,l),
(882,1200,l),
(556,0,l),
(14,0,l)
);
}
);
width = 782;
},
{
anchors = (
{
name = bottom;
pos = (-1,0);
},
{
name = top;
pos = (205,1200);
}
);
layerId = "4F53612F-C4F8-4368-83AD-8913BEEF8F1D";
shapes = (
{
closed = 1;
nodes = (
(136,1200,l),
(158,1200,l),
(-7,22,l),
(-3,22,l),
(248,1200,l),
(270,1200,l),
(12,0,l),
(-30,0,l)
);
}
);
width = 182;
},
{
anchors = (
{
name = bottom;
pos = (905,0);
},
{
name = top;
pos = (1095,1172);
}
);
layerId = "E5A4176B-9C10-4B01-BBC9-D7999ECBFAF8";
shapes = (
{
closed = 1;
nodes = (
(113,1172,l),
(689,1172,l),
(926,356,l),
(927,356,l),
(1453,1172,l),
(2047,1172,l),
(1219,0,l),
(529,0,l)
);
}
);
width = 1999;
}
);
unicode = 118;
},
{
color = 6;
glyphname = w;
kernLeft = w;
kernRight = w;
lastChange = "2023-03-03 15:00:28 +0000";
layers = (
{
anchors = (
{
name = bottom;
pos = (1010,0);
},
{
name = top;
pos = (1208,1172);
}
);
layerId = "5997A0D0-E78E-41EC-9011-DECBEAD8517D";
shapes = (
{
closed = 1;
nodes = (
(227,1168,l),
(252,1168,l),
(482,20,l),
(483,20,l),
(1193,1168,l),
(1224,1168,l),
(1546,20,l),
(1547,20,l),
(2170,1168,l),
(2198,1168,l),
(1565,0,l),
(1523,0,l),
(1206,1148,l),
(501,0,l),
(459,0,l)
);
}
);
width = 2278;
},
{
anchors = (
{
name = bottom;
pos = (499,0);
},
{
name = top;
pos = (742,1200);
}
);
layerId = "55C4185A-9C39-4468-B19C-DE0A3E571700";
shapes = (
{
closed = 1;
nodes = (
(108,1200,l),
(474,1200,l),
(306,254,l),
(310,254,l),
(556,1200,l),
(934,1200,l),
(840,254,l),
(844,254,l),
(1002,1200,l),
(1376,1200,l),
(1044,0,l),
(585,0,l),
(681,844,l),
(476,0,l),
(14,0,l)
);
}
);
width = 1272;
},
{
anchors = (
{
name = bottom;
pos = (53,0);
},
{
name = top;
pos = (271,1200);
}
);
layerId = "4F53612F-C4F8-4368-83AD-8913BEEF8F1D";
shapes = (
{
closed = 1;
nodes = (
(137,1200,l),
(158,1200,l),
(-14,23,l),
(-12,23,l),
(250,1200,l),
(288,1200,l),
(132,23,l),
(134,23,l),
(378,1200,l),
(401,1200,l),
(150,0,l),
(110,0,l),
(266,1178,l),
(4,0,l),
(-36,0,l)
);
}
);
width = 326;
},
{
anchors = (
{
name = bottom;
pos = (1371,0);
},
{
name = top;
pos = (1561,1172);
}
);
layerId = "E5A4176B-9C10-4B01-BBC9-D7999ECBFAF8";
shapes = (
{
closed = 1;
nodes = (
(170,1172,l),
(727,1172,l),
(816,332,l),
(817,332,l),
(1281,1172,l),
(1797,1172,l),
(1964,339,l),
(1965,339,l),
(2345,1172,l),
(2914,1172,l),
(2296,0,l),
(1564,0,l),
(1449,624,l),
(1116,0,l),
(376,0,l)
);
}
);
width = 2924;
}
);
unicode = 119;
},
{
color = 6;
glyphname = x;
kernLeft = x;
kernRight = x;
lastChange = "2023-03-03 15:00:28 +0000";
layers = (
{
anchors = (
{
name = bottom;
pos = (692,0);
},
{
name = top;
pos = (908,1172);
}
);
layerId = "5997A0D0-E78E-41EC-9011-DECBEAD8517D";
shapes = (
{
closed = 1;
nodes = (
(793,584,l),
(175,1168,l),
(208,1168,l),
(813,594,l),
(1619,1168,l),
(1658,1168,l),
(834,584,l),
(1479,0,l),
(1446,0,l),
(813,574,l),
(-25,0,l),
(-64,0,l)
);
}
);
width = 1673;
},
{
anchors = (
{
name = bottom;
pos = (296,0);
},
{
name = top;
pos = (499,1200);
}
);
layerId = "55C4185A-9C39-4468-B19C-DE0A3E571700";
shapes = (
{
closed = 1;
nodes = (
(111,600,l),
(111,1200,l),
(471,1200,l),
(415,727,l),
(527,1200,l),
(887,1200,l),
(675,600,l),
(675,0,l),
(315,0,l),
(371,473,l),
(259,0,l),
(-101,0,l)
);
}
);
width = 784;
},
{
anchors = (
{
name = bottom;
pos = (8,0);
},
{
name = top;
pos = (208,1200);
}
);
layerId = "4F53612F-C4F8-4368-83AD-8913BEEF8F1D";
shapes = (
{
closed = 1;
nodes = (
(84,600,l),
(138,1200,l),
(160,1200,l),
(106,617,l),
(258,1200,l),
(280,1200,l),
(122,600,l),
(69,0,l),
(47,0,l),
(100,583,l),
(-53,0,l),
(-75,0,l)
);
}
);
width = 206;
},
{
anchors = (
{
name = bottom;
pos = (950,0);
},
{
name = top;
pos = (1158,1172);
}
);
layerId = "E5A4176B-9C10-4B01-BBC9-D7999ECBFAF8";
shapes = (
{
closed = 1;
nodes = (
(680,586,l),
(159,1172,l),
(819,1172,l),
(1100,822,l),
(1483,1172,l),
(2133,1172,l),
(1400,586,l),
(1933,0,l),
(1273,0,l),
(976,350,l),
(579,0,l),
(-71,0,l)
);
}
);
width = 2090;
}
);
unicode = 120;
},
{
color = 6;
glyphname = y;
kernLeft = v;
kernRight = v;
lastChange = "2023-03-03 15:00:28 +0000";
layers = (
{
anchors = (
{
name = bottom;
pos = (638,-242);
},
{
name = top;
pos = (810,1172);
}
);
layerId = "5997A0D0-E78E-41EC-9011-DECBEAD8517D";
shapes = (
{
closed = 1;
nodes = (
(138,1168,l),
(164,1168,l),
(630,27,l),
(631,27,l),
(1480,1168,l),
(1508,1168,l),
(638,0,l),
(615,0,l)
);
},
{
closed = 1;
nodes = (
(-135,-433,l),
(69,-433,o),
(436,-232,o),
(615,0,q),
(638,0,l),
(453,-249,o),
(67,-455,o),
(-139,-455,q)
);
}
);
width = 1460;
},
{
anchors = (
{
name = bottom;
pos = (587,-210);
},
{
name = top;
pos = (513,1200);
}
);
layerId = "55C4185A-9C39-4468-B19C-DE0A3E571700";
shapes = (
{
closed = 1;
nodes = (
(108,1200,l),
(465,1200,l),
(352,276,l),
(354,276,l),
(561,1200,l),
(918,1200,l),
(600,0,l),
(14,0,l)
);
},
{
closed = 1;
nodes = (
(-70,-202,l),
(86,-201,o),
(259,-125,o),
(292,0,q),
(600,0,l),
(522,-296,o),
(149,-460,o),
(-115,-460,q)
);
}
);
width = 814;
},
{
anchors = (
{
name = bottom;
pos = (-17,-237);
},
{
name = top;
pos = (198,1200);
}
);
layerId = "4F53612F-C4F8-4368-83AD-8913BEEF8F1D";
shapes = (
{
closed = 1;
nodes = (
(134,1200,l),
(156,1200,l),
(-13,28,l),
(-11,28,l),
(246,1200,l),
(268,1200,l),
(5,0,l),
(-39,0,l)
);
},
{
closed = 1;
nodes = (
(-169,-436,l),
(-133,-436,o),
(-80,-275,o),
(-17,2,q),
(5,0,l),
(-60,-286,o),
(-123,-458,o),
(-173,-458,q)
);
}
);
width = 179;
},
{
anchors = (
{
name = bottom;
pos = (1308,-243);
},
{
name = top;
pos = (1092,1172);
}
);
layerId = "E5A4176B-9C10-4B01-BBC9-D7999ECBFAF8";
shapes = (
{
closed = 1;
nodes = (
(143,1172,l),
(729,1172,l),
(923,306,l),
(925,306,l),
(1425,1172,l),
(2011,1172,l),
(1266,0,l),
(474,0,l)
);
},
{
closed = 1;
nodes = (
(82,-132,l),
(402,-132,o),
(674,-97,o),
(740,2,q),
(1266,0,l),
(1059,-315,o),
(510,-480,o),
(20,-480,q)
);
}
);
width = 1970;
}
);
unicode = 121;
},
{
color = 6;
glyphname = z;
kernLeft = z;
kernRight = z;
lastChange = "2023-03-03 15:00:28 +0000";
layers = (
{
anchors = (
{
name = bottom;
pos = (593,0);
},
{
name = center;
pos = (703,591);
},
{
name = top;
pos = (808,1172);
}
);
layerId = "5997A0D0-E78E-41EC-9011-DECBEAD8517D";
shapes = (
{
closed = 1;
nodes = (
(19,31,l),
(1366,1145,l),
(1366,1146,l),
(233,1146,l),
(237,1168,l),
(1393,1168,l),
(1387,1132,l),
(45,23,l),
(45,22,l),
(1212,22,l),
(1208,0,l),
(14,0,l)
);
}
);
width = 1506;
},
{
anchors = (
{
name = bottom;
pos = (157,0);
},
{
name = center;
pos = (252,600);
},
{
name = top;
pos = (366,1200);
}
);
layerId = "55C4185A-9C39-4468-B19C-DE0A3E571700";
shapes = (
{
closed = 1;
nodes = (
(-49,236,l),
(216,948,l),
(217,950,l),
(85,950,l),
(129,1200,l),
(597,1200,l),
(555,964,l),
(293,252,l),
(292,250,l),
(433,250,l),
(389,0,l),
(-91,0,l)
);
}
);
width = 504;
},
{
anchors = (
{
name = bottom;
pos = (-3,0);
},
{
name = center;
pos = (82,599);
},
{
name = top;
pos = (187,1200);
}
);
layerId = "4F53612F-C4F8-4368-83AD-8913BEEF8F1D";
shapes = (
{
closed = 1;
nodes = (
(-82,24,l),
(220,1174,l),
(221,1178,l),
(132,1178,l),
(136,1200,l),
(248,1200,l),
(244,1176,l),
(-58,30,l),
(-59,22,l),
(42,22,l),
(38,0,l),
(-86,0,l)
);
}
);
width = 164;
},
{
anchors = (
{
name = bottom;
pos = (839,0);
},
{
name = center;
pos = (921,585);
},
{
name = top;
pos = (1029,1172);
}
);
layerId = "E5A4176B-9C10-4B01-BBC9-D7999ECBFAF8";
shapes = (
{
closed = 1;
nodes = (
(85,364,l),
(1046,809,l),
(1046,810,l),
(153,810,l),
(217,1172,l),
(1821,1172,l),
(1757,810,l),
(827,363,l),
(827,362,l),
(1695,362,l),
(1631,0,l),
(21,0,l)
);
}
);
width = 1880;
}
);
unicode = 122;
},
{
color = 6;
glyphname = ordfeminine;
kernLeft = ordfeminine;
kernRight = ordfeminine;
lastChange = "2023-03-03 15:00:28 +0000";
layers = (
{
layerId = "4F53612F-C4F8-4368-83AD-8913BEEF8F1D";
shapes = (
{
closed = 1;
nodes = (
(188,861,l),
(234,1123,ls),
(252,1226,o),
(272,1341,o),
(234,1341,qs),
(196,1341,o),
(177,1229,o),
(160,1133,q),
(138,1133,l),
(155,1230,o),
(178,1363,o),
(238,1363,qs),
(299,1363,o),
(274,1220,o),
(256,1121,qs),
(204,831,l),
(182,831,l)
);
},
{
closed = 1;
nodes = (
(106,827,o),
(94,885,o),
(104,940,qs),
(112,986,o),
(130,1085,o),
(182,1100,qs),
(203,1106,o),
(243,1107,q),
(239,1083,l),
(207,1082,o),
(184,1077,qs),
(148,1068,o),
(134,987,o),
(126,941,qs),
(118,894,o),
(126,849,o),
(146,849,qs),
(168,849,o),
(194,894,o),
(203,946,q),
(220,939,l),
(212,889,o),
(176,827,o),
(142,827,qs)
);
}
);
width = 200;
},
{
layerId = "55C4185A-9C39-4468-B19C-DE0A3E571700";
shapes = (
{
closed = 1;
nodes = (
(286,861,l),
(336,1143,ls),
(345,1192,o),
(351,1225,o),
(337,1225,qs),
(324,1225,o),
(319,1197,o),
(311,1153,q),
(109,1153,l),
(130,1268,o),
(219,1363,o),
(366,1363,qs),
(513,1363,o),
(569,1268,o),
(549,1153,qs),
(493,831,l),
(322,831,l)
);
},
{
closed = 1;
nodes = (
(125,826,o),
(66,905,o),
(79,981,qs),
(92,1054,o),
(162,1113,o),
(211,1124,qs),
(269,1137,o),
(366,1137,q),
(347,1025,l),
(313,1025,o),
(304,1023,qs),
(294,1021,o),
(286,1008,o),
(283,994,qs),
(280,978,o),
(281,966,o),
(291,966,qs),
(301,966,o),
(307,979,o),
(311,1006,q),
(418,970,l),
(409,920,o),
(290,826,o),
(209,826,qs)
);
}
);
width = 465;
},
{
layerId = "E5A4176B-9C10-4B01-BBC9-D7999ECBFAF8";
shapes = (
{
closed = 1;
nodes = (
(712,874,l),
(757,1133,ls),
(764,1176,o),
(709,1198,o),
(607,1198,qs),
(520,1198,o),
(319,1176,o),
(317,1175,q),
(233,1337,l),
(245,1341,o),
(508,1363,o),
(669,1363,qs),
(884,1363,o),
(1057,1238,o),
(1037,1123,qs),
(986,831,l),
(704,831,l)
);
},
{
closed = 1;
nodes = (
(282,821,o),
(146,900,o),
(153,994,qs),
(159,1072,o),
(363,1164,o),
(611,1164,qs),
(667,1164,o),
(795,1164,q),
(770,1025,l),
(624,1023,o),
(561,1023,qs),
(517,1023,o),
(438,1014,o),
(435,997,qs),
(432,978,o),
(474,972,o),
(520,972,qs),
(624,972,o),
(734,1004,o),
(739,1031,q),
(851,1003,l),
(834,905,o),
(595,821,o),
(426,821,qs)
);
}
);
width = 1120;
},
{
layerId = "5997A0D0-E78E-41EC-9011-DECBEAD8517D";
shapes = (
{
closed = 1;
nodes = (
(950,861,l),
(996,1123,ls),
(1016,1238,o),
(846,1341,o),
(656,1341,qs),
(470,1341,o),
(284,1254,o),
(271,1180,q),
(249,1180,l),
(264,1265,o),
(452,1363,o),
(647,1363,qs),
(849,1363,o),
(1041,1251,o),
(1018,1121,qs),
(966,831,l),
(944,831,l)
);
},
{
closed = 1;
nodes = (
(339,827,o),
(178,909,o),
(192,987,qs),
(205,1060,o),
(396,1137,o),
(608,1135,qs),
(821,1133,o),
(1010,1133,q),
(1006,1112,l),
(841,1112,o),
(607,1113,qs),
(394,1114,o),
(226,1048,o),
(215,987,qs),
(203,917,o),
(358,849,o),
(557,849,qs),
(750,849,o),
(962,932,o),
(970,975,q),
(990,969,l),
(981,919,o),
(754,827,o),
(553,827,qs)
);
}
);
width = 1167;
}
);
metricLeft = a;
metricRight = a;
unicode = 170;
},
{
color = 6;
glyphname = ordmasculine;
kernLeft = ordmasculine;
kernRight = ordmasculine;
lastChange = "2023-03-03 15:00:28 +0000";
layers = (
{
layerId = "4F53612F-C4F8-4368-83AD-8913BEEF8F1D";
shapes = (
{
closed = 1;
nodes = (
(104,828,o),
(92,906,o),
(110,1012,qs),
(138,1174,ls),
(156,1280,o),
(197,1358,o),
(230,1358,qs),
(266,1358,o),
(278,1280,o),
(260,1174,qs),
(232,1012,ls),
(214,906,o),
(173,828,o),
(138,828,qs)
);
},
{
closed = 1;
nodes = (
(164,850,o),
(193,918,o),
(210,1014,qs),
(238,1172,ls),
(255,1268,o),
(251,1336,o),
(227,1336,qs),
(206,1336,o),
(177,1268,o),
(160,1172,qs),
(132,1014,ls),
(115,918,o),
(119,850,o),
(141,850,qs)
);
}
);
width = 180;
},
{
layerId = "55C4185A-9C39-4468-B19C-DE0A3E571700";
shapes = (
{
closed = 1;
nodes = (
(184,830,o),
(70,922,o),
(92,1042,qs),
(112,1152,ls),
(134,1274,o),
(276,1364,o),
(393,1364,qs),
(511,1364,o),
(622,1274,o),
(600,1152,qs),
(580,1042,ls),
(558,920,o),
(416,830,o),
(299,830,qs)
);
},
{
closed = 1;
nodes = (
(334,982,o),
(341,993,o),
(346,1020,qs),
(374,1176,ls),
(378,1201,o),
(374,1212,o),
(366,1212,q),
(357,1212,o),
(349,1203,o),
(344,1176,qs),
(316,1020,ls),
(312,993,o),
(316,982,o),
(326,982,q)
);
}
);
width = 508;
},
{
layerId = "E5A4176B-9C10-4B01-BBC9-D7999ECBFAF8";
shapes = (
{
closed = 1;
nodes = (
(356,820,o),
(118,950,o),
(141,1074,qs),
(149,1118,ls),
(172,1242,o),
(434,1374,o),
(674,1374,qs),
(912,1374,o),
(1146,1244,o),
(1123,1118,qs),
(1115,1074,ls),
(1092,950,o),
(834,820,o),
(596,820,qs)
);
},
{
closed = 1;
nodes = (
(689,1008,o),
(769,1046,o),
(777,1086,qs),
(781,1106,ls),
(789,1146,o),
(720,1184,o),
(646,1184,qs),
(572,1184,o),
(497,1146,o),
(489,1106,qs),
(485,1086,ls),
(477,1046,o),
(541,1008,o),
(615,1008,qs)
);
}
);
width = 1023;
},
{
layerId = "5997A0D0-E78E-41EC-9011-DECBEAD8517D";
shapes = (
{
closed = 1;
nodes = (
(342,823,o),
(122,950,o),
(146,1088,q),
(148,1100,l),
(173,1241,o),
(428,1365,o),
(676,1365,qs),
(923,1365,o),
(1144,1241,o),
(1119,1100,q),
(1117,1088,l),
(1093,950,o),
(837,823,o),
(590,823,qs)
);
},
{
closed = 1;
nodes = (
(829,845,o),
(1073,962,o),
(1095,1090,q),
(1097,1098,l),
(1120,1229,o),
(912,1343,o),
(677,1343,qs),
(436,1343,o),
(193,1229,o),
(170,1098,q),
(168,1090,l),
(146,962,o),
(353,845,o),
(589,845,qs)
);
}
);
width = 1098;
}
);
unicode = 186;
},
{
color = 6;
glyphname = zero;
kernLeft = zero;
kernRight = zero;
lastChange = "2023-03-03 15:00:28 +0000";
layers = (
{
layerId = "5997A0D0-E78E-41EC-9011-DECBEAD8517D";
shapes = (
{
closed = 1;
nodes = (
(287,-18,o),
(30,222,o),
(68,440,qs),
(150,906,ls),
(188,1124,o),
(515,1362,o),
(819,1362,qs),
(1123,1362,o),
(1376,1122,o),
(1338,906,qs),
(1256,440,ls),
(1218,222,o),
(893,-18,o),
(589,-18,qs)
);
},
{
closed = 1;
nodes = (
(887,4,o),
(1198,234,o),
(1235,444,qs),
(1315,898,ls),
(1352,1110,o),
(1123,1340,o),
(821,1340,qs),
(519,1340,o),
(208,1110,o),
(171,898,qs),
(91,444,ls),
(54,234,o),
(289,4,o),
(587,4,qs)
);
}
);
width = 1484;
},
{
layerId = "55C4185A-9C39-4468-B19C-DE0A3E571700";
shapes = (
{
closed = 1;
nodes = (
(86,-16,o),
(-67,120,o),
(-41,266,qs),
(103,1080,ls),
(129,1226,o),
(328,1362,o),
(514,1362,qs),
(700,1362,o),
(853,1226,o),
(827,1080,qs),
(683,266,ls),
(657,120,o),
(458,-16,o),
(272,-16,qs)
);
},
{
closed = 1;
nodes = (
(324,238,o),
(332,260,o),
(340,304,qs),
(470,1042,ls),
(478,1086,o),
(478,1108,o),
(470,1108,qs),
(462,1108,o),
(454,1086,o),
(446,1042,qs),
(316,304,ls),
(308,260,o),
(308,238,o),
(316,238,qs)
);
}
);
width = 744;
},
{
layerId = "4F53612F-C4F8-4368-83AD-8913BEEF8F1D";
shapes = (
{
closed = 1;
nodes = (
(-45,-6,o),
(-57,62,o),
(-41,154,qs),
(143,1196,ls),
(159,1288,o),
(195,1356,o),
(223,1356,qs),
(251,1356,o),
(263,1288,o),
(247,1196,qs),
(63,154,ls),
(47,62,o),
(11,-6,o),
(-17,-6,qs)
);
},
{
closed = 1;
nodes = (
(3,16,o),
(27,76,o),
(42,158,qs),
(225,1194,ls),
(239,1274,o),
(235,1334,o),
(219,1334,qs),
(203,1334,o),
(179,1274,o),
(165,1194,qs),
(-18,158,ls),
(-33,76,o),
(-29,16,o),
(-13,16,qs)
);
}
);
width = 166;
},
{
layerId = "E5A4176B-9C10-4B01-BBC9-D7999ECBFAF8";
shapes = (
{
closed = 1;
nodes = (
(361,-16,o),
(-10,246,o),
(46,534,qs),
(100,812,ls),
(156,1100,o),
(633,1362,o),
(1063,1362,qs),
(1493,1362,o),
(1866,1100,o),
(1810,812,qs),
(1756,534,ls),
(1700,246,o),
(1225,-16,o),
(795,-16,qs)
);
},
{
closed = 1;
nodes = (
(1019,346,o),
(1178,444,o),
(1196,534,qs),
(1250,814,ls),
(1268,904,o),
(1149,1000,o),
(993,1000,qs),
(829,1000,o),
(676,906,o),
(658,814,qs),
(604,534,ls),
(586,442,o),
(701,346,o),
(865,346,qs)
);
}
);
width = 1941;
}
);
unicode = 48;
},
{
color = 6;
glyphname = one;
kernLeft = one;
kernRight = one;
lastChange = "2023-03-03 15:00:28 +0000";
layers = (
{
layerId = "5997A0D0-E78E-41EC-9011-DECBEAD8517D";
shapes = (
{
closed = 1;
nodes = (
(37,22,l),
(555,22,l),
(785,1330,l),
(246,1266,l),
(250,1288,l),
(799,1352,l),
(811,1352,l),
(577,22,l),
(1103,22,l),
(1099,0,l),
(33,0,l)
);
}
);
width = 1380;
},
{
layerId = "55C4185A-9C39-4468-B19C-DE0A3E571700";
shapes = (
{
closed = 1;
nodes = (
(-24,254,l),
(108,254,l),
(251,1068,l),
(82,992,l),
(128,1254,l),
(339,1352,l),
(643,1352,l),
(450,254,l),
(582,254,l),
(537,0,l),
(-69,0,l)
);
}
);
width = 654;
},
{
layerId = "4F53612F-C4F8-4368-83AD-8913BEEF8F1D";
shapes = (
{
closed = 1;
nodes = (
(-58,22,l),
(-28,22,l),
(202,1328,l),
(159,1290,l),
(164,1316,l),
(204,1352,l),
(228,1352,l),
(-6,22,l),
(24,22,l),
(20,0,l),
(-62,0,l)
);
}
);
width = 146;
},
{
layerId = "E5A4176B-9C10-4B01-BBC9-D7999ECBFAF8";
shapes = (
{
closed = 1;
nodes = (
(33,362,l),
(619,362,l),
(715,908,l),
(119,782,l),
(188,1176,l),
(905,1352,l),
(1353,1352,l),
(1179,362,l),
(1737,362,l),
(1673,0,l),
(-31,0,l)
);
}
);
width = 1881;
}
);
unicode = 49;
},
{
color = 6;
glyphname = two;
kernLeft = two;
kernRight = two;
lastChange = "2023-03-03 15:00:28 +0000";
layers = (
{
layerId = "5997A0D0-E78E-41EC-9011-DECBEAD8517D";
shapes = (
{
closed = 1;
nodes = (
(9,24,l),
(43,218,o),
(380,466,o),
(714,580,qs),
(998,677,o),
(1350,847,o),
(1367,1006,qs),
(1382,1148,o),
(1128,1340,o),
(850,1340,qs),
(572,1340,o),
(217,1104,o),
(181,900,q),
(155,900,l),
(192,1112,o),
(562,1362,o),
(850,1362,qs),
(1134,1362,o),
(1407,1159,o),
(1392,1008,qs),
(1375,838,o),
(1022,664,o),
(751,571,qs),
(399,451,o),
(66,208,o),
(33,22,q),
(1216,22,l),
(1212,0,l),
(5,0,l)
);
}
);
width = 1484;
},
{
layerId = "55C4185A-9C39-4468-B19C-DE0A3E571700";
shapes = (
{
closed = 1;
nodes = (
(-56,184,l),
(-34,304,o),
(131,514,o),
(254,658,qs),
(358,782,o),
(435,880,o),
(447,948,qs),
(467,1062,o),
(475,1108,o),
(463,1108,qs),
(451,1108,o),
(443,1062,o),
(418,920,q),
(74,920,l),
(90,1012,o),
(152,1362,o),
(500,1362,qs),
(870,1362,o),
(811,1040,o),
(794,940,qs),
(774,828,o),
(609,626,o),
(487,474,qs),
(405,372,o),
(330,280,o),
(326,254,q),
(673,254,l),
(628,0,l),
(-88,0,l)
);
}
);
width = 742;
},
{
layerId = "4F53612F-C4F8-4368-83AD-8913BEEF8F1D";
shapes = (
{
closed = 1;
nodes = (
(-66,18,l),
(-60,54,o),
(-4,334,o),
(52,494,qs),
(112,668,o),
(188,990,o),
(220,1172,qs),
(236,1272,o),
(234,1334,o),
(220,1334,qs),
(192,1334,o),
(164,1172,o),
(110,870,q),
(88,870,l),
(140,1170,o),
(174,1356,o),
(224,1356,qs),
(252,1356,o),
(260,1278,o),
(240,1166,qs),
(210,992,o),
(132,660,o),
(72,492,qs),
(12,324,o),
(-36,64,o),
(-44,22,q),
(38,22,l),
(34,0,l),
(-70,0,l)
);
}
);
width = 162;
},
{
layerId = "E5A4176B-9C10-4B01-BBC9-D7999ECBFAF8";
shapes = (
{
closed = 1;
nodes = (
(50,339,l),
(82,520,o),
(449,720,o),
(824,758,qs),
(1194,796,o),
(1318,842,o),
(1328,896,qs),
(1337,950,o),
(1202,1000,o),
(1072,1000,qs),
(914,1000,o),
(705,926,o),
(691,846,q),
(133,846,l),
(179,1104,o),
(688,1362,o),
(1124,1362,qs),
(1550,1362,o),
(1909,1114,o),
(1896,918,qs),
(1881,686,o),
(1444,464,o),
(1150,437,qs),
(892,413,o),
(643,387,o),
(639,362,q),
(1793,362,l),
(1729,0,l),
(-10,0,l)
);
}
);
width = 2010;
}
);
unicode = 50;
},
{
color = 6;
glyphname = three;
kernLeft = three;
kernRight = three;
lastChange = "2023-03-03 15:00:28 +0000";
layers = (
{
layerId = "5997A0D0-E78E-41EC-9011-DECBEAD8517D";
shapes = (
{
closed = 1;
nodes = (
(337,-18,o),
(55,168,o),
(104,446,q),
(128,446,l),
(82,182,o),
(344,4,o),
(658,4,qs),
(974,4,o),
(1308,176,o),
(1330,366,qs),
(1349,532,o),
(1100,658,o),
(728,662,q),
(732,684,l),
(1100,694,o),
(1422,837,o),
(1441,996,qs),
(1461,1164,o),
(1202,1340,o),
(894,1340,qs),
(600,1340,o),
(253,1152,o),
(203,872,q),
(179,872,l),
(230,1160,o),
(581,1362,o),
(892,1362,qs),
(1210,1362,o),
(1483,1174,o),
(1466,1000,qs),
(1449,828,o),
(1117,678,o),
(868,674,q),
(1118,674,o),
(1373,542,o),
(1355,372,qs),
(1333,164,o),
(986,-18,o),
(660,-18,qs)
);
}
);
width = 1612;
},
{
layerId = "55C4185A-9C39-4468-B19C-DE0A3E571700";
shapes = (
{
closed = 1;
nodes = (
(-96,-16,o),
(-34,340,o),
(-14,450,q),
(328,450,l),
(298,282,o),
(290,238,o),
(302,238,qs),
(314,238,o),
(321,276,o),
(354,464,qs),
(364,518,o),
(336,552,o),
(294,552,q),
(336,794,l),
(378,794,o),
(418,824,o),
(427,878,qs),
(462,1074,o),
(468,1108,o),
(456,1108,qs),
(444,1108,o),
(436,1064,o),
(405,888,q),
(63,888,l),
(82,998,o),
(146,1362,o),
(498,1362,qs),
(854,1362,o),
(804,1078,o),
(785,968,qs),
(773,898,o),
(734,678,o),
(565,674,q),
(732,670,o),
(693,444,o),
(680,374,qs),
(661,264,o),
(612,-16,o),
(254,-16,qs)
);
}
);
width = 732;
},
{
layerId = "4F53612F-C4F8-4368-83AD-8913BEEF8F1D";
shapes = (
{
closed = 1;
nodes = (
(-70,-6,o),
(-40,170,o),
(6,430,q),
(28,430,l),
(-16,176,o),
(-44,16,o),
(-16,16,qs),
(12,16,o),
(42,176,o),
(76,380,qs),
(102,532,o),
(106,656,o),
(74,662,q),
(78,684,l),
(112,690,o),
(154,816,o),
(180,968,qs),
(214,1168,o),
(244,1334,o),
(216,1334,qs),
(188,1334,o),
(158,1168,o),
(106,870,q),
(84,870,l),
(138,1174,o),
(170,1356,o),
(220,1356,qs),
(270,1356,o),
(238,1174,o),
(202,968,qs),
(176,822,o),
(132,680,o),
(98,674,q),
(128,668,o),
(124,526,o),
(98,380,qs),
(60,166,o),
(30,-6,o),
(-20,-6,qs)
);
}
);
width = 158;
},
{
layerId = "E5A4176B-9C10-4B01-BBC9-D7999ECBFAF8";
shapes = (
{
closed = 1;
nodes = (
(466,-16,o),
(26,206,o),
(74,480,q),
(632,480,l),
(618,398,o),
(800,334,o),
(948,334,qs),
(1092,334,o),
(1282,390,o),
(1290,434,qs),
(1298,478,o),
(1132,516,o),
(904,516,q),
(960,830,l),
(1188,830,o),
(1370,876,o),
(1376,920,qs),
(1382,964,o),
(1212,1012,o),
(1068,1012,qs),
(914,1012,o),
(714,948,o),
(698,858,q),
(140,858,l),
(188,1128,o),
(710,1362,o),
(1128,1362,qs),
(1572,1362,o),
(1964,1176,o),
(1942,972,qs),
(1924,812,o),
(1614,692,o),
(1442,684,q),
(1612,676,o),
(1858,570,o),
(1844,414,qs),
(1824,202,o),
(1328,-16,o),
(884,-16,qs)
);
}
);
width = 2002;
}
);
unicode = 51;
},
{
color = 6;
glyphname = four;
kernLeft = four;
kernRight = four;
lastChange = "2023-03-03 15:00:28 +0000";
layers = (
{
layerId = "5997A0D0-E78E-41EC-9011-DECBEAD8517D";
shapes = (
{
closed = 1;
nodes = (
(945,440,l),
(13,440,l),
(16,460,l),
(1102,1350,l),
(1127,1350,l),
(970,462,l),
(1320,462,l),
(1317,440,l),
(967,440,l),
(889,0,l),
(867,0,l)
);
},
{
closed = 1;
nodes = (
(948,462,l),
(1100,1321,l),
(1099,1321,l),
(52,462,l)
);
}
);
width = 1526;
},
{
layerId = "55C4185A-9C39-4468-B19C-DE0A3E571700";
shapes = (
{
closed = 1;
nodes = (
(318,266,l),
(-50,266,l),
(-7,509,l),
(251,1350,l),
(851,1350,l),
(704,515,l),
(772,515,l),
(728,266,l),
(660,266,l),
(613,0,l),
(271,0,l)
);
},
{
closed = 1;
nodes = (
(362,515,l),
(466,1106,l),
(460,1106,l),
(324,515,l)
);
}
);
width = 798;
},
{
layerId = "4F53612F-C4F8-4368-83AD-8913BEEF8F1D";
shapes = (
{
closed = 1;
nodes = (
(66,338,l),
(-10,338,l),
(-6,358,l),
(220,1350,l),
(268,1350,l),
(92,360,l),
(112,360,l),
(108,338,l),
(88,338,l),
(28,0,l),
(6,0,l)
);
},
{
closed = 1;
nodes = (
(70,360,l),
(242,1328,l),
(236,1328,l),
(16,360,l)
);
}
);
width = 176;
},
{
layerId = "E5A4176B-9C10-4B01-BBC9-D7999ECBFAF8";
shapes = (
{
closed = 1;
nodes = (
(915,254,l),
(-21,254,l),
(40,600,l),
(932,1350,l),
(1666,1350,l),
(1531,582,l),
(1787,582,l),
(1729,254,l),
(1473,254,l),
(1428,0,l),
(870,0,l)
);
},
{
closed = 1;
nodes = (
(973,582,l),
(1039,958,l),
(1037,958,l),
(605,582,l)
);
}
);
width = 1909;
}
);
unicode = 52;
},
{
color = 6;
glyphname = five;
kernLeft = five;
kernRight = five;
lastChange = "2023-03-03 15:00:28 +0000";
layers = (
{
layerId = "5997A0D0-E78E-41EC-9011-DECBEAD8517D";
shapes = (
{
closed = 1;
nodes = (
(314,-14,o),
(52,178,o),
(76,374,q),
(100,374,l),
(80,198,o),
(322,8,o),
(604,8,qs),
(876,8,o),
(1250,210,o),
(1280,456,qs),
(1310,700,o),
(1060,898,o),
(812,898,qs),
(554,898,o),
(160,708,o),
(134,568,q),
(112,568,l),
(140,726,o),
(546,920,o),
(814,920,qs),
(1072,920,o),
(1334,714,o),
(1304,456,qs),
(1274,196,o),
(884,-14,o),
(604,-14,qs)
);
},
{
closed = 1;
nodes = (
(248,1350,l),
(1422,1350,l),
(1418,1328,l),
(266,1328,l),
(132,568,l),
(110,568,l)
);
}
);
width = 1494;
},
{
layerId = "55C4185A-9C39-4468-B19C-DE0A3E571700";
shapes = (
{
closed = 1;
nodes = (
(-93,-14,o),
(-28,354,o),
(-11,454,q),
(331,454,l),
(301,284,o),
(294,240,o),
(306,240,qs),
(318,240,o),
(325,284,o),
(358,472,qs),
(384,618,o),
(392,662,o),
(380,662,qs),
(368,662,o),
(360,618,o),
(354,582,q),
(194,582,l),
(228,776,o),
(456,922,o),
(580,922,qs),
(780,922,o),
(725,612,o),
(700,472,qs),
(676,332,o),
(615,-14,o),
(249,-14,q)
);
},
{
closed = 1;
nodes = (
(147,1350,l),
(837,1350,l),
(793,1098,l),
(445,1098,l),
(354,582,l),
(12,582,l)
);
}
);
width = 732;
},
{
layerId = "4F53612F-C4F8-4368-83AD-8913BEEF8F1D";
shapes = (
{
closed = 1;
nodes = (
(-70,-8,o),
(-36,180,o),
(2,394,q),
(24,394,l),
(-14,180,o),
(-44,14,o),
(-14,14,qs),
(16,14,o),
(46,180,o),
(102,500,qs),
(152,782,o),
(176,924,o),
(154,924,qs),
(126,924,o),
(92,780,o),
(68,652,q),
(46,652,l),
(70,786,o),
(112,946,o),
(160,946,qs),
(202,946,o),
(174,782,o),
(124,500,qs),
(66,178,o),
(34,-8,o),
(-18,-8,qs)
);
},
{
closed = 1;
nodes = (
(170,1350,l),
(270,1350,l),
(266,1328,l),
(188,1328,l),
(68,652,l),
(46,652,l)
);
}
);
width = 162;
},
{
layerId = "E5A4176B-9C10-4B01-BBC9-D7999ECBFAF8";
shapes = (
{
closed = 1;
nodes = (
(502,-14,o),
(40,162,o),
(64,410,q),
(624,410,l),
(622,362,o),
(784,328,o),
(920,328,qs),
(1060,328,o),
(1234,394,o),
(1246,470,qs),
(1258,546,o),
(1108,608,o),
(970,608,qs),
(836,608,o),
(664,572,o),
(646,534,q),
(314,552,l),
(386,718,o),
(906,894,o),
(1196,894,qs),
(1482,894,o),
(1845,715,o),
(1826,486,qs),
(1800,178,o),
(1244,-14,o),
(846,-14,qs)
);
},
{
closed = 1;
nodes = (
(230,1350,l),
(1918,1350,l),
(1854,990,l),
(726,990,l),
(646,534,l),
(86,534,l)
);
}
);
width = 1978;
}
);
unicode = 53;
},
{
color = 6;
glyphname = six;
kernLeft = six;
kernRight = six;
lastChange = "2023-03-03 15:00:28 +0000";
layers = (
{
layerId = "5997A0D0-E78E-41EC-9011-DECBEAD8517D";
shapes = (
{
closed = 1;
nodes = (
(302,-14,o),
(50,290,o),
(98,562,qs),
(172,980,o),
(584,1362,o),
(880,1362,qs),
(1156,1362,o),
(1374,1132,o),
(1354,1010,q),
(1330,1010,l),
(1350,1124,o),
(1142,1340,o),
(876,1340,qs),
(596,1340,o),
(194,972,o),
(122,556,qs),
(78,304,o),
(306,8,o),
(606,8,qs),
(902,8,o),
(1236,252,o),
(1276,476,qs),
(1316,700,o),
(1074,898,o),
(806,898,qs),
(540,898,o),
(146,698,o),
(122,556,q),
(104,574,l),
(130,718,o),
(532,920,o),
(806,920,qs),
(1080,920,o),
(1342,710,o),
(1300,476,qs),
(1256,236,o),
(912,-14,o),
(610,-14,qs)
);
}
);
width = 1516;
},
{
layerId = "55C4185A-9C39-4468-B19C-DE0A3E571700";
shapes = (
{
closed = 1;
nodes = (
(-94,-14,o),
(-27,368,o),
(27,676,qs),
(82,984,o),
(148,1362,o),
(504,1362,qs),
(854,1362,o),
(796,1034,o),
(783,956,q),
(443,956,l),
(461,1062,o),
(470,1108,o),
(458,1108,qs),
(446,1108,o),
(434,1042,o),
(353,582,qs),
(301,286,o),
(292,240,o),
(304,240,qs),
(316,240,o),
(325,286,o),
(352,442,qs),
(383,618,o),
(391,662,o),
(379,662,q),
(367,662,o),
(359,618,o),
(353,582,q),
(198,636,l),
(211,710,o),
(433,912,o),
(577,912,qs),
(775,912,o),
(722,612,o),
(697,472,qs),
(673,332,o),
(612,-14,o),
(248,-14,q)
);
}
);
width = 730;
},
{
layerId = "4F53612F-C4F8-4368-83AD-8913BEEF8F1D";
shapes = (
{
closed = 1;
nodes = (
(-72,-8,o),
(-40,178,o),
(36,606,qs),
(136,1174,o),
(168,1356,o),
(218,1356,qs),
(270,1356,o),
(238,1174,o),
(214,1032,q),
(192,1032,l),
(214,1166,o),
(244,1334,o),
(214,1334,qs),
(186,1334,o),
(156,1166,o),
(58,606,qs),
(-16,182,o),
(-46,14,o),
(-18,14,qs),
(12,14,o),
(40,182,o),
(92,474,qs),
(148,784,o),
(172,924,o),
(148,924,qs),
(124,924,o),
(87,772,o),
(69,672,q),
(50,686,l),
(72,806,o),
(116,946,o),
(154,946,qs),
(198,946,o),
(168,782,o),
(114,474,qs),
(62,178,o),
(30,-8,o),
(-22,-8,qs)
);
}
);
width = 160;
},
{
layerId = "E5A4176B-9C10-4B01-BBC9-D7999ECBFAF8";
shapes = (
{
closed = 1;
nodes = (
(424,-14,o),
(52,314,o),
(82,646,qs),
(111,967,o),
(662,1362,o),
(1136,1362,qs),
(1526,1362,o),
(1900,1124,o),
(1866,938,q),
(1300,938,l),
(1296,980,o),
(1190,1028,o),
(1078,1028,qs),
(924,1028,o),
(684,864,o),
(646,646,qs),
(610,440,o),
(792,326,o),
(934,326,qs),
(1080,326,o),
(1242,396,o),
(1254,466,qs),
(1266,536,o),
(1130,604,o),
(984,604,qs),
(842,604,o),
(646,522,o),
(608,458,q),
(374,592,l),
(408,674,o),
(892,888,o),
(1198,888,qs),
(1520,888,o),
(1854,720,o),
(1834,486,qs),
(1812,230,o),
(1328,-14,o),
(860,-14,qs)
);
}
);
width = 2004;
}
);
unicode = 54;
},
{
color = 6;
glyphname = seven;
kernLeft = seven;
kernRight = seven;
lastChange = "2023-03-03 15:00:28 +0000";
layers = (
{
layerId = "5997A0D0-E78E-41EC-9011-DECBEAD8517D";
shapes = (
{
closed = 1;
nodes = (
(553,450,o),
(976,1110,o),
(1376,1328,q),
(1375,1328,l),
(206,1328,l),
(210,1350,l),
(1418,1350,l),
(1414,1326,l),
(1004,1102,o),
(580,444,o),
(502,0,q),
(476,0,l)
);
}
);
width = 1408;
},
{
layerId = "55C4185A-9C39-4468-B19C-DE0A3E571700";
shapes = (
{
closed = 1;
nodes = (
(51,210,o),
(217,820,o),
(358,1090,q),
(359,1096,l),
(103,1096,l),
(148,1350,l),
(768,1350,l),
(723,1092,l),
(585,824,o),
(422,206,o),
(390,0,q),
(16,0,l)
);
}
);
width = 641;
},
{
layerId = "4F53612F-C4F8-4368-83AD-8913BEEF8F1D";
shapes = (
{
closed = 1;
nodes = (
(4,312,o),
(122,918,o),
(244,1326,q),
(244,1328,l),
(154,1328,l),
(158,1350,l),
(270,1350,l),
(266,1328,l),
(146,926,o),
(30,328,o),
(-32,0,q),
(-54,0,l)
);
}
);
width = 160;
},
{
layerId = "E5A4176B-9C10-4B01-BBC9-D7999ECBFAF8";
shapes = (
{
closed = 1;
nodes = (
(356,436,o),
(946,910,o),
(1272,984,q),
(1274,988,l),
(102,988,l),
(166,1350,l),
(1916,1350,l),
(1854,998,l),
(1496,820,o),
(952,396,o),
(882,0,q),
(278,0,l)
);
}
);
width = 1806;
}
);
unicode = 55;
},
{
color = 6;
glyphname = eight;
kernLeft = eight;
kernRight = eight;
lastChange = "2023-03-03 15:00:28 +0000";
layers = (
{
layerId = "5997A0D0-E78E-41EC-9011-DECBEAD8517D";
shapes = (
{
closed = 1;
nodes = (
(316,-16,o),
(8,196,o),
(39,372,qs),
(69,543,o),
(411,730,o),
(729,730,qs),
(1047,730,o),
(1331,540,o),
(1303,372,qs),
(1273,195,o),
(904,-16,o),
(610,-16,qs)
);
},
{
closed = 1;
nodes = (
(894,6,o),
(1252,206,o),
(1281,370,qs),
(1309,531,o),
(1041,712,o),
(733,712,qs),
(424,712,o),
(89,531,o),
(61,370,qs),
(32,204,o),
(322,6,o),
(608,6,qs)
);
},
{
closed = 1;
nodes = (
(441,716,o),
(170,888,o),
(197,1044,qs),
(222,1186,o),
(552,1362,o),
(840,1362,qs),
(1124,1362,o),
(1406,1186,o),
(1381,1044,qs),
(1354,888,o),
(1041,716,o),
(741,716,qs)
);
},
{
closed = 1;
nodes = (
(1029,734,o),
(1334,902,o),
(1359,1044,qs),
(1383,1176,o),
(1118,1340,o),
(844,1340,qs),
(568,1340,o),
(242,1176,o),
(219,1044,qs),
(194,900,o),
(445,734,o),
(737,734,qs)
);
}
);
width = 1508;
},
{
layerId = "55C4185A-9C39-4468-B19C-DE0A3E571700";
shapes = (
{
closed = 1;
nodes = (
(-88,-16,o),
(-26,338,o),
(-2,474,qs),
(28,642,o),
(270,812,o),
(414,812,qs),
(558,812,o),
(736,642,o),
(706,474,qs),
(682,338,o),
(620,-16,o),
(268,-16,qs)
);
},
{
closed = 1;
nodes = (
(322,238,o),
(330,282,o),
(353,410,qs),
(378,554,o),
(386,598,o),
(374,598,qs),
(362,598,o),
(354,554,o),
(329,410,qs),
(306,282,o),
(298,238,o),
(310,238,qs)
);
},
{
closed = 1;
nodes = (
(237,628,o),
(50,772,o),
(80,940,qs),
(95,1024,o),
(154,1362,o),
(508,1362,qs),
(862,1362,o),
(803,1024,o),
(788,940,qs),
(758,772,o),
(525,628,o),
(381,628,qs)
);
},
{
closed = 1;
nodes = (
(429,842,o),
(437,886,o),
(456,994,qs),
(467,1060,o),
(476,1108,o),
(464,1108,qs),
(452,1108,o),
(443,1060,o),
(432,994,qs),
(413,886,o),
(405,842,o),
(417,842,qs)
);
}
);
width = 732;
},
{
layerId = "4F53612F-C4F8-4368-83AD-8913BEEF8F1D";
shapes = (
{
closed = 1;
nodes = (
(-72,-8,o),
(-40,178,o),
(-2,392,qs),
(34,586,o),
(60,728,o),
(108,728,qs),
(156,728,o),
(130,586,o),
(96,392,qs),
(58,178,o),
(26,-8,o),
(-24,-8,qs)
);
},
{
closed = 1;
nodes = (
(8,14,o),
(36,184,o),
(74,392,qs),
(108,580,o),
(130,710,o),
(104,710,qs),
(78,710,o),
(54,580,o),
(22,392,qs),
(-16,184,o),
(-46,14,o),
(-20,14,qs)
);
},
{
closed = 1;
nodes = (
(58,718,o),
(84,860,o),
(116,1048,qs),
(144,1210,o),
(170,1356,o),
(218,1356,qs),
(266,1356,o),
(242,1210,o),
(212,1048,qs),
(178,860,o),
(154,718,o),
(106,718,qs)
);
},
{
closed = 1;
nodes = (
(134,734,o),
(158,866,o),
(190,1048,qs),
(218,1204,o),
(240,1334,o),
(214,1334,qs),
(188,1334,o),
(166,1204,o),
(138,1048,qs),
(106,866,o),
(82,734,o),
(108,734,qs)
);
}
);
width = 156;
},
{
layerId = "E5A4176B-9C10-4B01-BBC9-D7999ECBFAF8";
shapes = (
{
closed = 1;
nodes = (
(469,-16,o),
(56,201,o),
(84,420,qs),
(109,613,o),
(612,816,o),
(1016,816,qs),
(1420,816,o),
(1832,610,o),
(1808,420,qs),
(1780,199,o),
(1237,-16,o),
(873,-16,qs)
);
},
{
closed = 1;
nodes = (
(1077,334,o),
(1247,400,o),
(1257,456,qs),
(1266,510,o),
(1113,570,o),
(973,570,qs),
(833,570,o),
(658,510,o),
(649,456,qs),
(639,400,o),
(785,334,o),
(931,334,qs)
);
},
{
closed = 1;
nodes = (
(567,618,o),
(200,794,o),
(222,974,qs),
(248,1190,o),
(730,1362,o),
(1104,1362,qs),
(1438,1362,o),
(1894,1187,o),
(1866,974,qs),
(1842,793,o),
(1395,618,o),
(981,618,qs)
);
},
{
closed = 1;
nodes = (
(1161,844,o),
(1323,888,o),
(1331,936,qs),
(1339,980,o),
(1189,1026,o),
(1053,1026,qs),
(917,1026,o),
(751,980,o),
(743,936,qs),
(735,888,o),
(881,844,o),
(1021,844,qs)
);
}
);
width = 1967;
}
);
unicode = 56;
},
{
color = 6;
glyphname = nine;
kernLeft = nine;
kernRight = nine;
lastChange = "2023-03-03 15:00:28 +0000";
layers = (
{
layerId = "5997A0D0-E78E-41EC-9011-DECBEAD8517D";
shapes = (
{
closed = 1;
nodes = (
(319,-14,o),
(95,216,o),
(120,358,q),
(144,358,l),
(121,224,o),
(329,8,o),
(615,8,qs),
(885,8,o),
(1268,336,o),
(1349,792,qs),
(1393,1040,o),
(1155,1340,o),
(855,1340,qs),
(559,1340,o),
(226,1111,o),
(195,872,qs),
(168,662,o),
(405,450,o),
(673,450,qs),
(939,450,o),
(1324,650,o),
(1349,792,q),
(1366,774,l),
(1340,630,o),
(945,428,o),
(671,428,qs),
(397,428,o),
(143,648,o),
(171,872,qs),
(203,1124,o),
(550,1362,o),
(852,1362,qs),
(1160,1362,o),
(1420,1058,o),
(1372,786,qs),
(1291,328,o),
(901,-14,o),
(615,-14,qs)
);
}
);
width = 1462;
},
{
layerId = "55C4185A-9C39-4468-B19C-DE0A3E571700";
shapes = (
{
closed = 1;
nodes = (
(-90,-14,o),
(-32,314,o),
(-22,372,q),
(318,372,l),
(303,286,o),
(294,240,o),
(306,240,qs),
(318,240,o),
(330,306,o),
(411,766,qs),
(467,1082,o),
(472,1108,o),
(460,1108,qs),
(448,1108,o),
(439,1062,o),
(412,906,qs),
(381,730,o),
(373,686,o),
(385,686,q),
(397,686,o),
(405,730,o),
(411,766,q),
(566,712,l),
(553,638,o),
(331,436,o),
(187,436,qs),
(-11,436,o),
(51,786,o),
(75,926,qs),
(97,1046,o),
(152,1362,o),
(526,1362,q),
(858,1362,o),
(784,940,o),
(737,672,qs),
(689,404,o),
(616,-14,o),
(260,-14,qs)
);
}
);
width = 730;
},
{
layerId = "4F53612F-C4F8-4368-83AD-8913BEEF8F1D";
shapes = (
{
closed = 1;
nodes = (
(-70,-8,o),
(-38,174,o),
(-14,316,q),
(8,316,l),
(-14,182,o),
(-44,14,o),
(-14,14,qs),
(14,14,o),
(44,182,o),
(142,742,qs),
(216,1166,o),
(246,1334,o),
(218,1334,qs),
(188,1334,o),
(160,1166,o),
(108,874,qs),
(52,564,o),
(28,424,o),
(52,424,qs),
(76,424,o),
(113,576,o),
(131,676,q),
(148,662,l),
(126,542,o),
(84,402,o),
(46,402,qs),
(2,402,o),
(32,566,o),
(86,874,qs),
(138,1170,o),
(170,1356,o),
(222,1356,qs),
(272,1356,o),
(240,1170,o),
(164,742,qs),
(64,174,o),
(32,-8,o),
(-18,-8,qs)
);
}
);
width = 162;
},
{
layerId = "E5A4176B-9C10-4B01-BBC9-D7999ECBFAF8";
shapes = (
{
closed = 1;
nodes = (
(459,-14,o),
(115,260,o),
(141,410,q),
(707,410,l),
(712,368,o),
(818,320,o),
(930,320,qs),
(1094,320,o),
(1330,472,o),
(1361,702,qs),
(1386,888,o),
(1232,1012,o),
(1090,1012,qs),
(944,1012,o),
(750,948,o),
(740,888,qs),
(729,828,o),
(882,764,o),
(1028,764,qs),
(1170,764,o),
(1373,826,o),
(1400,890,q),
(1634,756,l),
(1600,674,o),
(1116,460,o),
(810,460,qs),
(488,460,o),
(150,638,o),
(171,872,qs),
(194,1129,o),
(689,1362,o),
(1157,1362,qs),
(1593,1362,o),
(1973,1030,o),
(1925,702,qs),
(1878,381,o),
(1357,-14,o),
(883,-14,qs)
);
}
);
width = 2017;
}
);
unicode = 57;
},
{
color = 3;
glyphname = zero.zero;
lastChange = "2023-03-03 15:00:28 +0000";
layers = (
{
layerId = "4F53612F-C4F8-4368-83AD-8913BEEF8F1D";
shapes = (
{
closed = 1;
nodes = (
(147,682,l),
(143,660,l),
(56,660,l),
(60,682,l)
);
},
{
ref = zero;
}
);
width = 166;
},
{
layerId = "55C4185A-9C39-4468-B19C-DE0A3E571700";
shapes = (
{
closed = 1;
nodes = (
(668,794,l),
(624,548,l),
(121,548,l),
(165,794,l)
);
},
{
ref = zero;
}
);
width = 744;
},
{
layerId = "5997A0D0-E78E-41EC-9011-DECBEAD8517D";
shapes = (
{
closed = 1;
nodes = (
(1288,682,l),
(1284,660,l),
(121,660,l),
(125,682,l)
);
},
{
ref = zero;
}
);
width = 1484;
},
{
layerId = "E5A4176B-9C10-4B01-BBC9-D7999ECBFAF8";
shapes = (
{
closed = 1;
nodes = (
(1489,813,l),
(1439,529,l),
(370,529,l),
(420,813,l)
);
},
{
ref = zero;
}
);
width = 1941;
}
);
metricLeft = zero;
metricRight = zero;
},
{
color = 6;
glyphname = zero.dnom;
kernLeft = zero.dnom;
kernRight = zero.dnom;
lastChange = "2023-03-03 15:00:28 +0000";
layers = (
{
layerId = "4F53612F-C4F8-4368-83AD-8913BEEF8F1D";
shapes = (
{
closed = 1;
nodes = (
(-60,-3,o),
(-76,31,o),
(-68,75,qs),
(15,532,ls),
(23,576,o),
(48,611,o),
(70,611,qs),
(92,611,o),
(107,577,o),
(99,532,qs),
(17,75,ls),
(9,31,o),
(-16,-3,o),
(-38,-3,qs)
);
},
{
closed = 1;
nodes = (
(-26,18,o),
(-11,44,o),
(-5,78,qs),
(78,530,ls),
(84,564,o),
(79,589,o),
(68,589,qs),
(58,589,o),
(43,564,o),
(37,530,qs),
(-46,78,ls),
(-52,43,o),
(-48,18,o),
(-37,18,qs)
);
}
);
userData = {
RMXScaler = {
height = 45;
weight = -15;
width = 70;
};
};
width = 127;
},
{
layerId = "55C4185A-9C39-4468-B19C-DE0A3E571700";
shapes = (
{
closed = 1;
nodes = (
(-2,-8,o),
(-80,57,o),
(-68,126,qs),
(-6,479,ls),
(6,548,o),
(107,613,o),
(202,613,qs),
(296,613,o),
(373,548,o),
(361,479,qs),
(299,126,ls),
(287,57,o),
(185,-8,o),
(92,-8,qs)
);
},
{
closed = 1;
nodes = (
(122,120,o),
(128,128,o),
(131,145,qs),
(187,460,ls),
(190,478,o),
(186,486,o),
(179,486,qs),
(171,486,o),
(165,477,o),
(162,460,qs),
(106,145,ls),
(103,128,o),
(107,120,o),
(115,120,qs)
);
}
);
userData = {
RMXScaler = {
height = 45;
weight = -450;
width = 70;
};
};
width = 390;
},
{
layerId = "5997A0D0-E78E-41EC-9011-DECBEAD8517D";
shapes = (
{
closed = 1;
nodes = (
(174,-8,o),
(-21,101,o),
(-3,204,qs),
(32,402,ls),
(50,504,o),
(273,613,o),
(489,613,qs),
(705,613,o),
(897,504,o),
(879,402,qs),
(843,203,ls),
(825,102,o),
(605,-8,o),
(388,-8,qs)
);
},
{
closed = 1;
nodes = (
(592,22,o),
(795,118,o),
(812,205,qs),
(849,399,ls),
(866,487,o),
(698,583,o),
(492,583,qs),
(284,583,o),
(81,487,o),
(64,399,qs),
(27,205,ls),
(10,118,o),
(182,22,o),
(386,22,qs)
);
}
);
userData = {
RMXScaler = {
height = 45;
weight = -7;
width = 70;
};
};
width = 1052;
},
{
layerId = "E5A4176B-9C10-4B01-BBC9-D7999ECBFAF8";
shapes = (
{
closed = 1;
nodes = (
(210,-7,o),
(-27,111,o),
(-4,240,qs),
(18,366,ls),
(41,495,o),
(321,613,o),
(586,613,qs),
(850,613,o),
(1088,495,o),
(1065,366,qs),
(1043,240,ls),
(1020,111,o),
(742,-7,o),
(476,-7,qs)
);
},
{
closed = 1;
nodes = (
(653,154,o),
(798,198,o),
(806,240,qs),
(828,367,ls),
(836,408,o),
(708,452,o),
(557,452,qs),
(403,452,o),
(262,409,o),
(254,367,qs),
(232,240,ls),
(224,198,o),
(351,154,o),
(505,154,qs)
);
}
);
userData = {
RMXScaler = {
height = 45;
weight = -500;
width = 70;
};
};
width = 1227;
}
);
userData = {
RMXScaler = {
source = zero;
};
};
},
{
color = 6;
glyphname = one.dnom;
kernLeft = one.dnom;
kernRight = one.dnom;
lastChange = "2023-03-03 15:00:28 +0000";
layers = (
{
layerId = "4F53612F-C4F8-4368-83AD-8913BEEF8F1D";
shapes = (
{
closed = 1;
nodes = (
(-74,22,l),
(-52,22,l),
(48,585,l),
(6,556,l),
(10,579,l),
(52,608,l),
(74,608,l),
(-30,22,l),
(-7,22,l),
(-11,0,l),
(-78,0,l)
);
}
);
userData = {
RMXScaler = {
height = 45;
weight = -15;
width = 70;
};
};
width = 112;
},
{
layerId = "55C4185A-9C39-4468-B19C-DE0A3E571700";
shapes = (
{
closed = 1;
nodes = (
(-57,127,l),
(12,127,l),
(72,466,l),
(-17,430,l),
(6,561,l),
(115,608,l),
(265,608,l),
(180,127,l),
(249,127,l),
(226,0,l),
(-80,0,l)
);
}
);
userData = {
RMXScaler = {
height = 45;
weight = -450;
width = 70;
};
};
width = 344;
},
{
layerId = "5997A0D0-E78E-41EC-9011-DECBEAD8517D";
shapes = (
{
closed = 1;
nodes = (
(-4,30,l),
(361,30,l),
(457,576,l),
(80,544,l),
(85,573,l),
(473,608,l),
(494,608,l),
(392,30,l),
(761,30,l),
(755,0,l),
(-10,0,l)
);
}
);
userData = {
RMXScaler = {
height = 45;
weight = -7;
width = 70;
};
};
width = 980;
},
{
layerId = "E5A4176B-9C10-4B01-BBC9-D7999ECBFAF8";
shapes = (
{
closed = 1;
nodes = (
(-14,161,l),
(377,161,l),
(421,411,l),
(22,355,l),
(53,530,l),
(505,608,l),
(693,608,l),
(614,161,l),
(995,161,l),
(966,0,l),
(-43,0,l)
);
}
);
userData = {
RMXScaler = {
height = 45;
weight = -500;
width = 70;
};
};
width = 1173;
}
);
userData = {
RMXScaler = {
source = one;
};
};
},
